<?xml version="1.0" encoding="UTF-8"?>
<svg version="1.1" xmlns="http://www.w3.org/2000/svg" width="222" height="227">
<path d="M0 0 C73.26 0 146.52 0 222 0 C222 74.91 222 149.82 222 227 C148.74 227 75.48 227 0 227 C0 152.09 0 77.18 0 0 Z " fill="#FCFCFC" transform="translate(0,0)"/>
<path d="M0 0 C4.39638531 2.23966799 6.92615591 4.50667114 9 9 C9 9.99 9 10.98 9 12 C11.97 12 14.94 12 18 12 C18.020625 11.13375 18.04125 10.2675 18.0625 9.375 C19.19703433 5.2906764 20.68254195 3.70459757 23.96484375 1.13671875 C27.55524879 -0.86867063 29.93960797 -0.58941175 34 0 C38.52627609 1.89472022 41.27943723 4.95802102 44 9 C44.53016086 13.46849866 44.51250583 15.23124125 42 19 C42.3121764 21.64632287 42.3121764 21.64632287 43 24 C44.93109581 24.04289755 44.93109581 24.04289755 47 23 C48.79271391 19.51202512 48.79271391 19.51202512 50 16 C56.44764009 16.26865167 60.41546822 18.46519199 65 23 C68.7870435 27.66750459 69.11950951 31.59859504 68.8125 37.5 C68.62217849 42.47719576 68.99359859 44.84781878 72.375 48.5625 C73.00148438 49.14128906 73.62796875 49.72007813 74.2734375 50.31640625 C77.1744448 53.14521654 77.94054047 55.35783705 78.3125 59.375 C77.95131738 63.56471837 77.35407082 65.50456151 75 69 C73.48743316 70.1773643 71.965601 71.34286886 70.4375 72.5 C66.16512201 76.0695029 65.31244858 78.62776712 64.6875 84.125 C64.584375 85.3315625 64.48125 86.538125 64.375 87.78125 C63.73047566 93.31341726 61.43954091 95.59644761 57.5 99.4375 C55 101 55 101 52.9375 101.1875 C50.34396267 99.59791261 49.57268559 97.42589925 48.19921875 94.79296875 C46.05346884 91.58482801 43.51788067 90.50766315 40 89 C37.64330947 89.10275315 37.64330947 89.10275315 36 90 C36.3649861 92.66896085 36.65313719 93.7278921 38.8125 95.421875 C39.8953125 96.07929688 39.8953125 96.07929688 41 96.75 C44.03878554 98.91431488 45.59422689 100.26494445 46.25 104 C46.34141438 108.36295918 44.95457938 110.75716897 42 114 C38.48493422 116.82847119 35.34384554 118.7581078 30.875 119.5625 C26.95516368 118.7955755 24.99847302 117.67255204 22 115 C19.82563509 111.17587886 18.38730003 107.1619001 17 103 C15.02 103 13.04 103 11 103 C10.79246094 103.65226562 10.58492187 104.30453125 10.37109375 104.9765625 C8.20282308 111.1275563 5.91586987 115.8183557 0 119 C-4.34967175 119.76310031 -6.29139918 119.37514161 -10.1875 117.3125 C-16.59241655 112.04623528 -16.59241655 112.04623528 -17.3828125 108.078125 C-17.59161673 104.37533004 -17.25007539 102.41679232 -15.3125 99.1875 C-9.82857143 94 -9.82857143 94 -6 94 C-6 92.35 -6 90.7 -6 89 C-11.43922743 89.43513819 -14.84503784 90.39903279 -19 94 C-20.58772693 96.57083958 -21.84843711 99.20915347 -23 102 C-28.99113088 101.87518477 -31.96878632 100.0097155 -36.265625 95.87109375 C-39.51441284 92.36620777 -41.05003034 89.91115884 -40.921875 85.015625 C-40.83679688 83.33726562 -40.83679688 83.33726562 -40.75 81.625 C-40.60207606 76.62972229 -40.95471879 74.20178584 -44.375 70.5 C-45.58203008 69.33198504 -46.7901752 68.16511996 -48 67 C-50.2545045 62.98110067 -50.54256723 59.57306661 -50 55 C-47.97261864 50.32978223 -45.39271346 47.16271194 -41.25 44.25 C-38.73882871 42.27770667 -38.07807608 41.43747393 -37.5078125 38.2421875 C-37.41885351 36.15426762 -37.34608334 34.06559858 -37.2890625 31.9765625 C-36.72241985 26.14167462 -33.50821945 22.47143361 -29.4375 18.5 C-27 17 -27 17 -23 17 C-21.65625 18.71484375 -21.65625 18.71484375 -20.5 20.9375 C-18.9073487 24.16308798 -18.9073487 24.16308798 -15.84375 25.75390625 C-14.93109375 25.87572266 -14.93109375 25.87572266 -14 26 C-13.11443256 24.31026274 -13.11443256 24.31026274 -13 22 C-13.9590625 20.6078125 -13.9590625 20.6078125 -14.9375 19.1875 C-17.42693028 15.34019865 -17.64346269 13.50423884 -17 9 C-13.23712424 1.75298003 -8.2603235 -1.45770415 0 0 Z " fill="#FBFBFB" transform="translate(96,54)"/>
<path d="M0 0 C2.45489914 1.68206052 4.6623887 3.44193553 6.625 5.6875 C6.625 6.3475 6.625 7.0075 6.625 7.6875 C7.13289063 7.21699219 7.64078125 6.74648438 8.1640625 6.26171875 C14.15471503 0.84320719 18.95332042 -2.99389968 27.32421875 -2.65625 C33.93122595 -1.66912499 38.26427729 1.83880385 42.49609375 6.80859375 C43.85298481 9.06694876 44.23856536 11.09794375 44.625 13.6875 C45.32625 13.76226562 46.0275 13.83703125 46.75 13.9140625 C55.86158719 15.17680964 61.29096116 18.36773539 67 25.5625 C70.03572779 30.33990539 70.52907052 35.38872193 70.78076172 40.92724609 C71.1489644 46.59200968 72.91740805 48.68511481 76.625 52.6875 C79.68847607 58.28121911 80.66324496 63.86824174 78.96875 70.1015625 C76.83627371 76.18647329 73.84596756 80.80392314 68.625 84.6875 C67.965 84.6875 67.305 84.6875 66.625 84.6875 C66.686875 85.821875 66.74875 86.95625 66.8125 88.125 C66.75650242 96.06265673 64.09773163 102.11644113 58.7265625 107.921875 C56.4102921 109.86788656 54.19832502 110.96589601 51.4375 112.1875 C46.76132128 114.27282294 45.58019752 116.041614 43.75 120.6875 C41.13049717 125.34439392 35.54649199 128.04700267 30.625 129.6875 C25.3575072 130.19192239 20.99320832 130.3591659 16.1875 128 C13.67711993 125.73453506 11.69608637 123.35032533 9.625 120.6875 C8.965 120.6875 8.305 120.6875 7.625 120.6875 C6.8825 121.615625 6.14 122.54375 5.375 123.5 C2.07966097 127.51708475 -0.85360945 129.33090334 -6.109375 130.07421875 C-12.81405285 130.4571001 -17.17817377 129.52248969 -22.52734375 125.40625 C-25.14670917 122.96963101 -26.76851544 120.90046912 -28.375 117.6875 C-28.375 116.3675 -28.375 115.0475 -28.375 113.6875 C-29.53 113.625625 -30.685 113.56375 -31.875 113.5 C-39.24636376 112.54927641 -44.61697532 108.20906256 -49.125 102.48828125 C-52.47200506 97.66650208 -53.4538568 93.57326517 -53.6875 87.8125 C-54.01171837 82.17391959 -55.59706259 79.09974988 -58.94140625 74.640625 C-62.33528156 70.01681668 -62.93463725 65.28387246 -62.375 59.6875 C-60.46997901 52.61496698 -57.31774882 47.10796833 -51.375 42.6875 C-50.715 42.6875 -50.055 42.6875 -49.375 42.6875 C-49.46201172 41.77871094 -49.46201172 41.77871094 -49.55078125 40.8515625 C-49.97746623 32.92741286 -48.00774446 26.87573694 -42.765625 20.83203125 C-39.7571596 18.0374705 -37.11467041 16.48773129 -33.1875 15.3125 C-30.72440831 14.51506227 -29.66406851 14.12700211 -28.2265625 11.94140625 C-27.61211014 10.55232379 -27.01333528 9.15621044 -26.4296875 7.75390625 C-24.19890813 3.38323112 -20.15871928 0.72017958 -16 -1.6875 C-10.08331799 -3.09623381 -5.3039269 -3.24291663 0 0 Z M-21.8125 11.5625 C-22.66668033 14.78940347 -22.7192907 17.35935653 -22.375 20.6875 C-21.06918644 22.7055755 -19.73863208 24.70803408 -18.375 26.6875 C-18.625 29.0625 -18.625 29.0625 -19.375 30.6875 C-22.07938996 30.32344751 -23.11906383 30.00607318 -24.859375 27.83984375 C-25.27703125 27.10894531 -25.6946875 26.37804687 -26.125 25.625 C-26.55296875 24.89152344 -26.9809375 24.15804687 -27.421875 23.40234375 C-27.73640625 22.83644531 -28.0509375 22.27054688 -28.375 21.6875 C-31.50241354 21.76196223 -33.65935344 22.04912983 -36.0390625 24.171875 C-40.42802819 29.23107683 -42.51686156 32.63004163 -42.4375 39.4375 C-42.67251939 43.2254596 -42.88231148 45.09548705 -45.33203125 48.0390625 C-46.93083435 49.37699465 -48.55606336 50.68402739 -50.20703125 51.95703125 C-54.1258997 55.08506499 -55.18432653 58.21659036 -55.8125 63.0625 C-55.11767768 68.81959923 -53.20697095 73.23025038 -48.625 76.875 C-45.83921618 80.35722978 -46.19455896 81.63934159 -46.375 86 C-46.65945533 93.40420497 -44.82090684 96.91025597 -39.953125 102.24609375 C-36.37712225 105.6394512 -33.20230879 106.39786147 -28.375 106.6875 C-27.6325 104.8621875 -27.6325 104.8621875 -26.875 103 C-24.48402351 98.20953821 -21.27150457 95.75275836 -16.375 93.6875 C-13.375 93.375 -13.375 93.375 -11.375 93.6875 C-11.375 95.3375 -11.375 96.9875 -11.375 98.6875 C-12.096875 98.935 -12.81875 99.1825 -13.5625 99.4375 C-17.23897353 101.07148823 -20.53601709 103.00953419 -22.375 106.6875 C-23.03638627 111.93442467 -23.03638627 111.93442467 -21.17578125 116.69921875 C-17.61662044 120.97559081 -14.66807968 123.34137476 -9.0625 124.1875 C-4.04284076 123.50686824 -1.49076605 121.6361936 1.625 117.6875 C3.26761308 114.44092355 4.52265496 111.15201297 5.625 107.6875 C7.605 107.6875 9.585 107.6875 11.625 107.6875 C11.97111328 108.68330078 11.97111328 108.68330078 12.32421875 109.69921875 C14.57456304 115.79204815 16.54858245 120.64929123 22.625 123.6875 C27.70591827 124.41334547 30.70153215 122.96615263 34.78515625 120.16796875 C37.58195086 117.91746948 39.14563637 115.96782805 40.625 112.6875 C40.99494507 108.44740348 40.99494507 108.44740348 39.625 104.6875 C36.87031243 101.95860538 33.87606267 99.78919708 30.625 97.6875 C31.12 95.7075 31.12 95.7075 31.625 93.6875 C36.18377267 94.2238262 39.06537226 95.8095031 42.625 98.6875 C44.20649473 100.95512013 45.38249245 103.20248489 46.625 105.6875 C49.39141818 105.60613476 51.13597677 105.1203274 53.22265625 103.2734375 C56.95660926 99.1082909 59.65527399 95.22350186 59.60546875 89.40625 C59.6394156 85.00673815 59.81828756 82.58669271 62.83984375 79.21875 C64.61099058 77.69408989 66.42290374 76.2151508 68.27734375 74.79296875 C71.74882776 71.67960788 72.46343769 68.9107575 73.0625 64.375 C72.39820716 58.77596039 69.74605047 54.49191884 65.453125 50.83984375 C62.96065054 47.90532788 63.33840276 46.21700109 63.625 42.4375 C63.78451722 36.50212995 63.42716977 32.37364762 59.625 27.6875 C55.04046822 23.15269199 51.07264009 20.95615167 44.625 20.6875 C43.305 23.3275 41.985 25.9675 40.625 28.6875 C39.305 28.3575 37.985 28.0275 36.625 27.6875 C37.5 22.9375 37.5 22.9375 38.625 20.6875 C39.21270522 17.0143424 39.25595384 14.6415428 37.16796875 11.484375 C33.24133039 6.88814146 31.06885229 4.9726161 24.875 4.25 C20.46627784 4.30704446 18.10039095 5.96383137 14.96875 8.953125 C13.05931613 11.41762685 12.69817436 13.61417698 12.625 16.6875 C9.655 16.6875 6.685 16.6875 3.625 16.6875 C3.5425 15.965625 3.46 15.24375 3.375 14.5 C2.29511634 10.45043629 0.21466448 7.87974836 -3.125 5.375 C-11.03186066 2.9590148 -16.86558172 5.10999789 -21.8125 11.5625 Z " fill="#050505" transform="translate(101.375,49.3125)"/>
<path d="M0 0 C4.62 0 9.24 0 14 0 C17.49900663 8.12672508 20.692066 16.34637266 23.8125 24.625 C24.22169678 25.70458984 24.63089355 26.78417969 25.05249023 27.89648438 C25.43348877 28.91291016 25.8144873 29.92933594 26.20703125 30.9765625 C26.5522583 31.89518066 26.89748535 32.81379883 27.25317383 33.76025391 C28 36 28 36 28 38 C24.04 38 20.08 38 16 38 C15.34 36.35 14.68 34.7 14 33 C7.07 32.505 7.07 32.505 0 32 C-0.66 33.98 -1.32 35.96 -2 38 C-5.63 38 -9.26 38 -13 38 C-11.46798006 29.59234838 -8.45566851 21.8674049 -5.375 13.9375 C-4.85358826 12.58160249 -4.33275032 11.22548419 -3.8125 9.86914062 C-2.54930535 6.57638641 -1.27447683 3.28849122 0 0 Z " fill="#020202" transform="translate(93,91)"/>
<path d="M0 0 C0.02464849 5.39346988 0.04283531 10.78690725 0.05493164 16.18041992 C0.05997231 18.01668875 0.06680477 19.85295354 0.07543945 21.68920898 C0.08751672 24.32276401 0.09323081 26.95626616 0.09765625 29.58984375 C0.10281754 30.41588608 0.10797882 31.24192841 0.11329651 32.09300232 C0.11349205 34.06236368 0.06204152 36.03161614 0 38 C-1 39 -1 39 -3.59204102 39.11352539 C-4.71795654 39.10828857 -5.84387207 39.10305176 -7.00390625 39.09765625 C-8.21884766 39.09443359 -9.43378906 39.09121094 -10.68554688 39.08789062 C-11.96494141 39.07951172 -13.24433594 39.07113281 -14.5625 39.0625 C-15.84576172 39.05798828 -17.12902344 39.05347656 -18.45117188 39.04882812 C-21.63416022 39.03699545 -24.81705762 39.02051068 -28 39 C-28.26039062 39.64066406 -28.52078125 40.28132813 -28.7890625 40.94140625 C-30 43 -30 43 -33.375 43.9375 C-37 44 -37 44 -39.4375 43.0625 C-41.53094774 40.29914899 -41.51250592 38.27510058 -41.3125 34.875 C-41 33 -41 33 -39.9375 31 C-36.90246787 29.43353181 -34.34866332 29.7010122 -31 30 C-30.01 30.66 -29.02 31.32 -28 32 C-25.58286521 32.3663859 -25.58286521 32.3663859 -22.89453125 32.4140625 C-21.91162109 32.45273438 -20.92871094 32.49140625 -19.91601562 32.53125 C-18.37977539 32.57765625 -18.37977539 32.57765625 -16.8125 32.625 C-15.77673828 32.66367188 -14.74097656 32.70234375 -13.67382812 32.7421875 C-11.11606378 32.83648296 -8.55830713 32.92208202 -6 33 C-6.02094727 32.10692139 -6.04189453 31.21384277 -6.06347656 30.29370117 C-6.13167346 26.97816657 -6.18180815 23.66337761 -6.21972656 20.34741211 C-6.23983525 18.91272214 -6.26712673 17.47811407 -6.30175781 16.04370117 C-6.3503146 13.98075161 -6.37297406 11.91888569 -6.390625 9.85546875 C-6.41157227 8.61434326 -6.43251953 7.37321777 -6.45410156 6.09448242 C-6 3 -6 3 -4.10058594 1.0715332 C-2 0 -2 0 0 0 Z " fill="#040404" transform="translate(105,183)"/>
<path d="M0 0 C3.4960972 0.06133504 5.93514814 0.34734886 8.9375 2.1875 C10.54073557 4.92243127 10.38077478 6.8903393 10 10 C9 12.375 9 12.375 7 14 C4.15316895 14.46573923 1.93212569 14.27925007 -1 14 C-1.66 13.34 -2.32 12.68 -3 12 C-5.3245339 11.62948007 -5.3245339 11.62948007 -8.0078125 11.5859375 C-8.99394531 11.54726562 -9.98007813 11.50859375 -10.99609375 11.46875 C-12.02863281 11.4378125 -13.06117188 11.406875 -14.125 11.375 C-15.16527344 11.33632812 -16.20554688 11.29765625 -17.27734375 11.2578125 C-19.85138311 11.16335234 -22.42541155 11.07778786 -25 11 C-24.9685791 11.85754883 -24.9371582 12.71509766 -24.90478516 13.59863281 C-24.80235373 16.78913396 -24.7272274 19.97879606 -24.67041016 23.17041016 C-24.64028696 24.54992281 -24.59937725 25.92924467 -24.54736328 27.30810547 C-24.47437498 29.29310092 -24.44370602 31.27950932 -24.4140625 33.265625 C-24.3826416 34.45961914 -24.3512207 35.65361328 -24.31884766 36.88378906 C-25 40 -25 40 -28.03662109 42.42089844 C-29.01453613 42.94200195 -29.99245117 43.46310547 -31 44 C-31.02464849 38.60653012 -31.04283531 33.21309275 -31.05493164 27.81958008 C-31.05997231 25.98331125 -31.06680477 24.14704646 -31.07543945 22.31079102 C-31.08751672 19.67723599 -31.09323081 17.04373384 -31.09765625 14.41015625 C-31.10281754 13.58411392 -31.10797882 12.75807159 -31.11329651 11.90699768 C-31.11349205 9.93763632 -31.06204152 7.96838386 -31 6 C-29.24369985 4.24369985 -26.73875238 4.84943196 -24.35546875 4.82421875 C-22.62780273 4.78844727 -22.62780273 4.78844727 -20.86523438 4.75195312 C-18.42530477 4.70919281 -15.98514721 4.6778296 -13.54492188 4.65820312 C-11.81145508 4.61663086 -11.81145508 4.61663086 -10.04296875 4.57421875 C-8.98102295 4.55963623 -7.91907715 4.54505371 -6.82495117 4.5300293 C-3.35624658 3.87921626 -2.36744492 2.51531232 0 0 Z " fill="#010101" transform="translate(145,0)"/>
<path d="M0 0 C1.49249268 0.01571045 1.49249268 0.01571045 3.01513672 0.03173828 C4.6296875 0.04140625 4.6296875 0.04140625 6.27685547 0.05126953 C7.40478516 0.06802734 8.53271484 0.08478516 9.69482422 0.10205078 C11.39832031 0.11558594 11.39832031 0.11558594 13.13623047 0.12939453 C15.94763721 0.1530198 18.7586272 0.18596065 21.56982422 0.22705078 C22.55982422 2.53705078 23.54982422 4.84705078 24.56982422 7.22705078 C17.30982422 7.22705078 10.04982422 7.22705078 2.56982422 7.22705078 C2.75544922 12.61017578 2.75544922 12.61017578 2.94482422 18.10205078 C2.97882324 19.23239746 3.01282227 20.36274414 3.04785156 21.52734375 C3.08346191 22.41566895 3.11907227 23.30399414 3.15576172 24.21923828 C3.18718262 25.13044434 3.21860352 26.04165039 3.25097656 26.98046875 C3.36864933 29.42636264 3.36864933 29.42636264 5.56982422 31.22705078 C6.00732422 34.60205078 6.00732422 34.60205078 5.56982422 38.22705078 C3.15122859 40.92205734 1.56218457 42.03341949 -1.99267578 42.72705078 C-5.35508808 42.03732518 -6.47879249 41.04571554 -8.43017578 38.22705078 C-8.86767578 34.66455078 -8.86767578 34.66455078 -8.43017578 31.22705078 C-7.93525635 30.78304932 -7.44033691 30.33904785 -6.93041992 29.8815918 C-4.73186124 27.45691609 -5.02970269 25.54424156 -4.98876953 22.31689453 C-4.96234375 21.16253906 -4.93591797 20.00818359 -4.90869141 18.81884766 C-4.89515625 17.61292969 -4.88162109 16.40701172 -4.86767578 15.16455078 C-4.83334164 12.7776922 -4.7907958 10.39093302 -4.73876953 8.00439453 C-4.72644287 6.94470459 -4.71411621 5.88501465 -4.70141602 4.79321289 C-4.33431978 1.32017189 -3.50877891 0.32782443 0 0 Z " fill="#111111" transform="translate(9.43017578125,119.77294921875)"/>
<path d="M0 0 C2.375 1.625 2.375 1.625 4 4 C4.50299316 8.10777749 4.32749345 9.50875983 2 13 C1.34 13 0.68 13 0 13 C0.00785522 14.21901001 0.00785522 14.21901001 0.01586914 15.46264648 C0.03656994 19.12092322 0.04963803 22.77918767 0.0625 26.4375 C0.07087891 27.71689453 0.07925781 28.99628906 0.08789062 30.31445312 C0.09272461 32.13686523 0.09272461 32.13686523 0.09765625 33.99609375 C0.10551147 35.68496704 0.10551147 35.68496704 0.11352539 37.40795898 C0 40 0 40 -1 41 C-2.99964982 41.08758003 -5.0023611 41.10696576 -7.00390625 41.09765625 C-8.21884766 41.09443359 -9.43378906 41.09121094 -10.68554688 41.08789062 C-11.96494141 41.07951172 -13.24433594 41.07113281 -14.5625 41.0625 C-15.84576172 41.05798828 -17.12902344 41.05347656 -18.45117188 41.04882812 C-21.63416022 41.03699545 -24.81705762 41.02051068 -28 41 C-28.66 39.02 -29.32 37.04 -30 35 C-22.08 35 -14.16 35 -6 35 C-6 27.74 -6 20.48 -6 13 C-6.99 12.67 -7.98 12.34 -9 12 C-10.42041821 9.15916359 -10.31452272 7.14522722 -10 4 C-7.21921757 -0.06422047 -4.81255755 -0.80209293 0 0 Z " fill="#040404" transform="translate(217,65)"/>
<path d="M0 0 C3.96 0 7.92 0 12 0 C12 12.54 12 25.08 12 38 C8.04 38 4.08 38 0 38 C0 25.46 0 12.92 0 0 Z " fill="#000000" transform="translate(125,91)"/>
<path d="M0 0 C0.680625 -0.00322266 1.36125 -0.00644531 2.0625 -0.00976562 C7.10757212 0.04507212 7.10757212 0.04507212 9.375 2.3125 C9.66760904 5.89047895 9.79031891 9.42845928 9.85351562 13.015625 C10.01197518 17.48341138 10.3161497 19.85289124 13.375 23.3125 C13.30474155 26.75516385 12.97590824 28.59603249 10.75 31.25 C7.2292329 32.82508002 5.03265818 32.37654602 1.375 31.3125 C-0.625 29.0625 -0.625 29.0625 -1.625 26.3125 C-1.38771993 22.9114856 -1.055466 21.742966 1.375 19.3125 C1.83896693 16.42026497 1.83896693 16.42026497 2 13.1875 C2.12375 11.24875 2.2475 9.31 2.375 7.3125 C-2.245 7.3125 -6.865 7.3125 -11.625 7.3125 C-11.625 3.3125 -11.625 3.3125 -10.1015625 1.58203125 C-6.74553984 -0.13832737 -3.67922342 -0.08810401 0 0 Z " fill="#0E0E0E" transform="translate(187.625,133.6875)"/>
<path d="M0 0 C2.5 1.5625 2.5 1.5625 4 4 C3.78571429 10.21428571 3.78571429 10.21428571 1 13 C0.53603307 15.89223503 0.53603307 15.89223503 0.375 19.125 C0.25125 21.06375 0.1275 23.0025 0 25 C3.96 25 7.92 25 12 25 C11 29 11 29 9.3203125 30.73046875 C6.34939091 32.35597299 4.24602774 32.36633705 0.875 32.3125 C-0.17945313 32.30863281 -1.23390625 32.30476563 -2.3203125 32.30078125 C-5 32 -5 32 -7 30 C-7.32518437 26.36384747 -7.46461131 22.7677479 -7.56640625 19.12109375 C-7.54846181 14.58723296 -7.54846181 14.58723296 -10 11 C-10.55239643 4.03980504 -10.55239643 4.03980504 -8.9375 1 C-5.82090489 -0.60856522 -3.43737531 -0.42213381 0 0 Z " fill="#0E0E0E" transform="translate(32,61)"/>
<path d="M0 0 C1.32 0.66 2.64 1.32 4 2 C4.99 2.33 5.98 2.66 7 3 C7 11.91 7 20.82 7 30 C7.99 30.33 8.98 30.66 10 31 C10.87620107 34.42514962 11.19765706 36.44408952 10 39.8125 C8 42 8 42 4.5625 43 C1 43 1 43 -1.4375 42.0625 C-3.93401068 38.76710591 -3.32291479 36.06872641 -3 32 C-2.67 31.34 -2.34 30.68 -2 30 C-1.34 30 -0.68 30 0 30 C0 20.1 0 10.2 0 0 Z " fill="#101010" transform="translate(116,184)"/>
<path d="M0 0 C0.99 0.66 1.98 1.32 3 2 C3 2.66 3 3.32 3 4 C4.28777344 3.98839844 5.57554688 3.97679687 6.90234375 3.96484375 C8.58072772 3.9554673 10.25911326 3.94636695 11.9375 3.9375 C13.21270508 3.92493164 13.21270508 3.92493164 14.51367188 3.91210938 C15.32255859 3.90888672 16.13144531 3.90566406 16.96484375 3.90234375 C17.7137085 3.89710693 18.46257324 3.89187012 19.23413086 3.88647461 C21 4 21 4 22 5 C22.07258946 7.18639453 22.08373783 9.37500389 22.0625 11.5625 C22.05347656 12.76003906 22.04445312 13.95757812 22.03515625 15.19140625 C22.02355469 16.11824219 22.01195312 17.04507813 22 18 C20.02 18.33 18.04 18.66 16 19 C16 16.03 16 13.06 16 10 C11.71 10 7.42 10 3 10 C2.67 10.99 2.34 11.98 2 13 C-0.84083641 14.42041821 -2.85477278 14.31452272 -6 14 C-8.375 12.375 -8.375 12.375 -10 10 C-10.61195145 6.3282913 -10.48706506 4.71186432 -8.375 1.625 C-5.33636094 -0.45406883 -3.61550392 -0.46155369 0 0 Z " fill="#040404" transform="translate(64,21)"/>
<path d="M0 0 C0 3.3 0 6.6 0 10 C1.93833996 9.91284983 3.8757429 9.80467036 5.8125 9.6875 C6.89144531 9.62949219 7.97039062 9.57148438 9.08203125 9.51171875 C12.27341482 8.95205175 12.95096322 8.35855895 15 6 C17.875 5.5 17.875 5.5 21 6 C23.9375 8.125 23.9375 8.125 26 11 C26 14.23421175 25.53173428 16.11377619 23.875 18.875 C20.87553214 20.67468071 18.40613332 20.36494286 15 20 C14.5148291 19.50709473 14.0296582 19.01418945 13.52978516 18.50634766 C11.61412513 16.62003703 10.67055162 16.59945782 8.0234375 16.5234375 C6.89421875 16.47703125 6.89421875 16.47703125 5.7421875 16.4296875 C4.96101562 16.41164062 4.17984375 16.39359375 3.375 16.375 C-4.89527027 16.10472973 -4.89527027 16.10472973 -6 15 C-6.07258946 12.81360547 -6.08373783 10.62499611 -6.0625 8.4375 C-6.05347656 7.23996094 -6.04445312 6.04242188 -6.03515625 4.80859375 C-6.02355469 3.88175781 -6.01195312 2.95492187 -6 2 C-1.125 0 -1.125 0 0 0 Z " fill="#020202" transform="translate(139,186)"/>
<path d="M0 0 C3.4375 0.9375 3.4375 0.9375 5.375 2.0625 C7.08300843 5.07663252 6.79954814 7.55838399 6.4375 10.9375 C5.94531982 11.37231689 5.45313965 11.80713379 4.94604492 12.25512695 C2.66693343 14.79685819 3.00180799 16.99508667 2.92578125 20.35546875 C2.89033203 21.60908203 2.85488281 22.86269531 2.81835938 24.15429688 C2.78452148 26.11979492 2.78452148 26.11979492 2.75 28.125 C2.71682334 29.46032013 2.68233334 30.79560832 2.64648438 32.13085938 C2.56387943 35.39965504 2.49476771 38.66817812 2.4375 41.9375 C0.4575 40.9475 -1.5225 39.9575 -3.5625 38.9375 C-3.58437378 37.83293457 -3.58437378 37.83293457 -3.60668945 36.70605469 C-3.68121111 33.36600996 -3.77785873 30.02696019 -3.875 26.6875 C-3.89755859 25.52863281 -3.92011719 24.36976562 -3.94335938 23.17578125 C-3.97880859 22.06074219 -4.01425781 20.94570313 -4.05078125 19.796875 C-4.07696533 18.77045898 -4.10314941 17.74404297 -4.13012695 16.68652344 C-4.61753226 13.58760548 -5.60413236 12.32271185 -7.5625 9.9375 C-8.0933392 6.29745978 -7.99608722 4.61389606 -6 1.5 C-3.5625 -0.0625 -3.5625 -0.0625 0 0 Z " fill="#030303" transform="translate(99.5625,0.0625)"/>
<path d="M0 0 C2.4375 1.625 2.4375 1.625 4 4 C4.4375 7.0625 4.4375 7.0625 4 10 C3.50886719 10.39832031 3.01773438 10.79664062 2.51171875 11.20703125 C0.16472478 13.99067527 0.46679486 17.13679526 0.375 20.625 C0.10472973 27.89527027 0.10472973 27.89527027 -1 29 C-2.68608966 29.07205511 -4.37500659 29.08386068 -6.0625 29.0625 C-6.98160156 29.05347656 -7.90070313 29.04445313 -8.84765625 29.03515625 C-9.55792969 29.02355469 -10.26820313 29.01195313 -11 29 C-11 27.02 -11 25.04 -11 23 C-9.35 23 -7.7 23 -6 23 C-6 19.7 -6 16.4 -6 13 C-6.99 12.67 -7.98 12.34 -9 12 C-10.52491998 8.95016004 -10.23562548 6.3576631 -10 3 C-7.7773391 -1.05308751 -4.20075589 -0.5158823 0 0 Z " fill="#020202" transform="translate(191,61)"/>
<path d="M0 0 C1.670625 0.061875 1.670625 0.061875 3.375 0.125 C3.375 2.435 3.375 4.745 3.375 7.125 C2.385 7.125 1.395 7.125 0.375 7.125 C0.375 10.425 0.375 13.725 0.375 17.125 C1.365 17.455 2.355 17.785 3.375 18.125 C4.79541821 20.96583641 4.68952272 22.97977278 4.375 26.125 C2.75 28.5 2.75 28.5 0.375 30.125 C-3.2967087 30.73695145 -4.91313568 30.61206506 -8 28.5 C-10.07906883 25.46136094 -10.08655369 23.74050392 -9.625 20.125 C-8.635 18.64 -8.635 18.64 -7.625 17.125 C-6.965 17.125 -6.305 17.125 -5.625 17.125 C-5.64820313 16.06539062 -5.67140625 15.00578125 -5.6953125 13.9140625 C-5.71406944 12.5260487 -5.73226972 11.1380273 -5.75 9.75 C-5.76675781 9.05132812 -5.78351562 8.35265625 -5.80078125 7.6328125 C-5.81844267 5.79602514 -5.72803261 3.95898037 -5.625 2.125 C-3.625 0.125 -3.625 0.125 0 0 Z " fill="#050505" transform="translate(36.625,135.875)"/>
<path d="M0 0 C1.97265625 0.36328125 1.97265625 0.36328125 3.40234375 1.83984375 C5.5661517 3.93906042 7.19601129 3.8583043 10.16015625 4.05078125 C11.06121094 4.11652344 11.96226563 4.18226563 12.890625 4.25 C13.57769531 4.28738281 14.26476562 4.32476562 14.97265625 4.36328125 C15.30265625 3.04328125 15.63265625 1.72328125 15.97265625 0.36328125 C18.44765625 0.85828125 18.44765625 0.85828125 20.97265625 1.36328125 C21.09765625 4.73828125 21.09765625 4.73828125 20.97265625 8.36328125 C18.97265625 10.36328125 18.97265625 10.36328125 15.49609375 10.55859375 C14.11314657 10.54529618 12.73026971 10.52144357 11.34765625 10.48828125 C10.64125 10.47925781 9.93484375 10.47023437 9.20703125 10.4609375 C7.46209527 10.43735728 5.7173333 10.40148586 3.97265625 10.36328125 C3.97265625 11.02328125 3.97265625 11.68328125 3.97265625 12.36328125 C1.38969893 14.05213796 0.04408231 14.3661966 -3.08984375 14.23828125 C-6.02734375 13.36328125 -6.02734375 13.36328125 -7.96484375 11.73828125 C-9.49596426 8.31577658 -8.88997415 5.94651523 -8.02734375 2.36328125 C-5.4339847 -0.2300778 -3.53987343 0.08601562 0 0 Z " fill="#040404" transform="translate(68.02734375,186.63671875)"/>
<path d="M0 0 C2.375 1.625 2.375 1.625 4 4 C4.61195145 7.6717087 4.48706506 9.28813568 2.375 12.375 C-0.66363906 14.45406883 -2.38449608 14.46155369 -6 14 C-6.99 13.34 -7.98 12.68 -9 12 C-9 11.34 -9 10.68 -9 10 C-15.6 10 -22.2 10 -29 10 C-28.34 8.02 -27.68 6.04 -27 4 C-21.06 4 -15.12 4 -9 4 C-8.67 3.01 -8.34 2.02 -8 1 C-5.15916359 -0.42041821 -3.14522722 -0.31452272 0 0 Z " fill="#030303" transform="translate(217,114)"/>
<path d="M0 0 C4.3986399 1.31023316 4.3986399 1.31023316 5.9375 3.875 C6.29998449 7.25818857 6.52183618 9.74284865 4.9375 12.8125 C1.67107754 14.54778693 -1.40601452 14.05482715 -5.0625 13.875 C-5.7225 12.555 -6.3825 11.235 -7.0625 9.875 C-10.3625 9.875 -13.6625 9.875 -17.0625 9.875 C-17.0625 10.865 -17.0625 11.855 -17.0625 12.875 C-20.0325 12.38 -20.0325 12.38 -23.0625 11.875 C-23.10491723 9.54205225 -23.10342937 7.20797433 -23.0625 4.875 C-20.93809668 2.75059668 -15.69118793 3.52507446 -12.69726562 3.4453125 C-7.59757677 3.20603091 -4.61113887 -0.18820975 0 0 Z " fill="#030303" transform="translate(153.0625,26.125)"/>
<path d="M0 0 C0.66 1.32 1.32 2.64 2 4 C7.61 4 13.22 4 19 4 C18.67 5.98 18.34 7.96 18 10 C16.89140625 10.03738281 15.7828125 10.07476562 14.640625 10.11328125 C13.17705026 10.17895448 11.71351009 10.24540135 10.25 10.3125 C9.52039063 10.33505859 8.79078125 10.35761719 8.0390625 10.38085938 C3.67928166 10.59884842 1.2899037 11.15488514 -2 14 C-5.14141856 13.87177883 -7.21117432 13.4995896 -9.875 11.8125 C-11.56589731 9.08827656 -11.38457172 7.14066901 -11 4 C-8.7771202 -1.27933953 -5.04466178 -0.33079749 0 0 Z " fill="#010101" transform="translate(12,99)"/>
<path d="M0 0 C0.66 0 1.32 0 2 0 C2.50692692 1.5811292 3.00526443 3.16501383 3.5 4.75 C3.7784375 5.63171875 4.056875 6.5134375 4.34375 7.421875 C5 10 5 10 5 14 C2.36 14 -0.28 14 -3 14 C-2.68872484 12.41642541 -2.37592711 10.83315007 -2.0625 9.25 C-1.80146484 7.92742187 -1.80146484 7.92742187 -1.53515625 6.578125 C-1.07631512 4.36764947 -0.56663926 2.18487932 0 0 Z " fill="#E0E0E0" transform="translate(99,101)"/>
</svg>
