<?xml version="1.0" encoding="UTF-8"?>
<svg version="1.1" xmlns="http://www.w3.org/2000/svg" width="234" height="38">
<path d="M0 0 C77.22 0 154.44 0 234 0 C234 12.54 234 25.08 234 38 C156.78 38 79.56 38 0 38 C0 25.46 0 12.92 0 0 Z " fill="#1E154C" transform="translate(0,0)"/>
<path d="M0 0 C27.72 0 55.44 0 84 0 C84 12.54 84 25.08 84 38 C76.62654751 38.04193433 69.25352658 38.08200526 61.88005829 38.10350037 C58.44643556 38.11406361 55.01291148 38.12818069 51.5793457 38.15087891 C47.64014881 38.17675686 43.70099226 38.18647162 39.76171875 38.1953125 C38.53039719 38.20563507 37.29907562 38.21595764 36.03044128 38.22659302 C34.88948502 38.22674408 33.74852875 38.22689514 32.57299805 38.22705078 C31.567061 38.231492 30.56112396 38.23593323 29.52470398 38.24050903 C27 38 27 38 24 36 C24.33 35.34 24.66 34.68 25 34 C32.59 34 40.18 34 48 34 C48 31.69 48 29.38 48 27 C42.39 27 36.78 27 31 27 C31 20.4 31 13.8 31 7 C28.69 7 26.38 7 24 7 C24 16.24 24 25.48 24 35 C18.80952381 29.80952381 18.80952381 29.80952381 17 26 C17.27311535 22.90469271 18.2229157 21.66562645 20 19 C20.60334781 15.12133551 20.1126555 13.22964391 18.375 9.6875 C15.39397366 6.33930913 11.98681377 6.43364639 7.6875 6.125 C5.45900296 6.05628992 3.22954788 6.00603396 1 6 C1 5.34 1 4.68 1 4 C0.01 3.67 -0.98 3.34 -2 3 C-1.34 2.67 -0.68 2.34 0 2 C0 1.34 0 0.68 0 0 Z " fill="#1F154F" transform="translate(150,0)"/>
<path d="M0 0 C0.33 0 0.66 0 1 0 C1 8.25 1 16.5 1 25 C3.31 25 5.62 25 8 25 C8 23.02 8 21.04 8 19 C8.80824219 18.96261719 9.61648437 18.92523437 10.44921875 18.88671875 C11.51785156 18.82097656 12.58648437 18.75523438 13.6875 18.6875 C14.74324219 18.62949219 15.79898438 18.57148438 16.88671875 18.51171875 C20.30137547 17.95046401 22.25584852 17.08846927 25 15 C26.05352843 12.69034152 27.05719096 10.3570226 28 8 C28.99 7.34 29.98 6.68 31 6 C31.99 6.33 32.98 6.66 34 7 C35.32 7 36.64 7 38 7 C38.83679277 9.62394306 39.66956942 12.24904384 40.5 14.875 C40.85771484 15.99455078 40.85771484 15.99455078 41.22265625 17.13671875 C43 22.7734375 43 22.7734375 43 25 C45.31 25 47.62 25 50 25 C50.18175781 24.3709375 50.36351563 23.741875 50.55078125 23.09375 C52.15552584 17.62938892 53.93585454 12.30780262 56 7 C59.22334883 9.63728541 60.25743292 12.71892631 61.6875 16.5625 C62.12449219 17.71878906 62.56148438 18.87507813 63.01171875 20.06640625 C64 23 64 23 64 25 C66.31 25 68.62 25 71 25 C71.144375 24.05125 71.28875 23.1025 71.4375 22.125 C72 19 72 19 73 17 C76.0625 16.375 76.0625 16.375 79 16 C79.515625 16.928125 80.03125 17.85625 80.5625 18.8125 C83.07967196 22.52664883 85.63960016 23.7848066 90 25 C95.25313821 25.13515793 99.84172258 24.40222698 104 21 C106.76227499 16.54159124 106.4030141 12.08291255 106 7 C105.36632896 4.02165879 105.36632896 4.02165879 104 2 C103.01 1.67 102.02 1.34 101 1 C104.1047265 0.11293529 106.73720471 0 110 0 C110 8.58 110 17.16 110 26 C111.98 26 113.96 26 116 26 C116.33 27.32 116.66 28.64 117 30 C98.79808147 30.02334363 80.59616682 30.04098639 62.39423656 30.05181217 C53.94307645 30.05697201 45.49192563 30.06400878 37.04077148 30.07543945 C29.67614066 30.0853958 22.31151657 30.0918557 14.94687921 30.09408849 C11.04611746 30.09539398 7.14537496 30.09846963 3.24461937 30.10573006 C-0.4250859 30.11250525 -4.09476394 30.11461389 -7.76447487 30.11310768 C-9.7570391 30.113515 -11.74960035 30.11890242 -13.74215698 30.12442017 C-14.92426254 30.1230455 -16.1063681 30.12167084 -17.32429504 30.12025452 C-18.86875919 30.12163721 -18.86875919 30.12163721 -20.44442463 30.12304783 C-23 30 -23 30 -26 29 C-26 28.34 -26 27.68 -26 27 C-26.66 26.67 -27.32 26.34 -28 26 C-27.01 25.97421875 -26.02 25.9484375 -25 25.921875 C-12.89655301 25.49280378 -12.89655301 25.49280378 -3 18.9375 C-1.43852127 14.35065624 -1.77310743 9.79835767 -2 5 C-1.34 5 -0.68 5 0 5 C-0.185625 4.360625 -0.37125 3.72125 -0.5625 3.0625 C-0.706875 2.381875 -0.85125 1.70125 -1 1 C-0.67 0.67 -0.34 0.34 0 0 Z " fill="#1E144D" transform="translate(34,8)"/>
<path d="M0 0 C3.196875 -0.061875 6.39375 -0.12375 9.6875 -0.1875 C11.18543091 -0.22846802 11.18543091 -0.22846802 12.71362305 -0.27026367 C17.60343329 -0.31608255 21.0952382 -0.30402922 25 3 C27.32579101 6.48868651 27.41865457 7.89718519 27 12 C26.01268258 13.34275169 25.01405257 14.67732273 24 16 C24.14369507 20.16715689 26.9646452 23.4381291 29 27 C29.33 18.09 29.66 9.18 30 0 C32.31 0 34.62 0 37 0 C37 6.6 37 13.2 37 20 C42.61 20 48.22 20 54 20 C54 22.31 54 24.62 54 27 C46.41 27 38.82 27 31 27 C31 27.66 31 28.32 31 29 C31.66 29.66 32.32 30.32 33 31 C24.42 31 15.84 31 7 31 C6.67 29.68 6.34 28.36 6 27 C4.02 27 2.04 27 0 27 C0 18.09 0 9.18 0 0 Z " fill="#20184B" transform="translate(144,7)"/>
<path d="M0 0 C19.8 0 39.6 0 60 0 C60 0.99 60 1.98 60 3 C58.68 3.33 57.36 3.66 56 4 C57.19625 3.95875 58.3925 3.9175 59.625 3.875 C63.43505408 3.875 66.46405787 4.48459623 70 6 C70.99 6.99 70.99 6.99 72 8 C71.11477661 7.90912109 71.11477661 7.90912109 70.21166992 7.81640625 C67.53710341 7.54271254 64.86230723 7.27133069 62.1875 7 C60.7943457 6.85691406 60.7943457 6.85691406 59.37304688 6.7109375 C58.48037109 6.62070313 57.58769531 6.53046875 56.66796875 6.4375 C55.84578857 6.35371094 55.0236084 6.26992187 54.17651367 6.18359375 C51.86580992 5.95797314 51.86580992 5.95797314 49 6 C49 12.6 49 19.2 49 26 C45.81453711 27.59273144 42.36800652 27.10141833 38.875 27.0625 C36.27625 27.041875 33.6775 27.02125 31 27 C31 20.4 31 13.8 31 7 C28.69 7 26.38 7 24 7 C24 16.24 24 25.48 24 35 C18.80952381 29.80952381 18.80952381 29.80952381 17 26 C17.27311535 22.90469271 18.2229157 21.66562645 20 19 C20.60334781 15.12133551 20.1126555 13.22964391 18.375 9.6875 C15.39397366 6.33930913 11.98681377 6.43364639 7.6875 6.125 C5.45900296 6.05628992 3.22954788 6.00603396 1 6 C1 5.34 1 4.68 1 4 C0.01 3.67 -0.98 3.34 -2 3 C-1.34 2.67 -0.68 2.34 0 2 C0 1.34 0 0.68 0 0 Z M67 3 C68.32 3.33 69.64 3.66 71 4 C70.01 4.495 70.01 4.495 69 5 C68.34 4.34 67.68 3.68 67 3 Z " fill="#1C134C" transform="translate(150,0)"/>
<path d="M0 0 C19.28571429 -0.9375 19.28571429 -0.9375 24.125 3.375 C27.47180058 7.12279973 28.35557853 9.78296605 28.28125 14.90234375 C27.70237984 19.21975037 25.24618234 21.98388209 21.96875 24.65625 C17.69132525 26.59234752 13.81681714 26.32109483 9.1875 26.1875 C6.155625 26.125625 3.12375 26.06375 0 26 C0 17.42 0 8.84 0 0 Z " fill="#EAE9F2" transform="translate(5,7)"/>
<path d="M0 0 C2.84625 -0.0825 5.6925 -0.165 8.625 -0.25 C9.51010254 -0.28641602 10.39520508 -0.32283203 11.30712891 -0.36035156 C16.70234537 -0.4356393 19.76262502 0.36069296 24 4 C26.74292373 6.89401699 27.4505237 8.90452678 27.5 12.875 C27.39846756 16.49810482 26.99174691 18.67364276 24.6875 21.5 C21.20081826 24.74342487 19.27386562 26.25870961 14.55078125 26.1953125 C13.78677002 26.19031738 13.02275879 26.18532227 12.2355957 26.18017578 C10.78866333 26.15286377 10.78866333 26.15286377 9.3125 26.125 C6.239375 26.08375 3.16625 26.0425 0 26 C0 17.42 0 8.84 0 0 Z " fill="#EEECF4" transform="translate(201,7)"/>
<path d="M0 0 C3.04411448 2.15315414 4.22278209 3.31434767 5.5625 6.8125 C6.23411117 11.77081456 6.07526082 15.63742312 4.0625 20.25 C0.28686666 24.12002418 -3.34710195 25.6399397 -8.74609375 25.94140625 C-14.50514584 25.62091937 -17.44011088 23.90982385 -21.4375 19.8125 C-23.52658513 15.63432975 -22.87498035 10.36351082 -22.4375 5.8125 C-20.69098964 2.57822155 -19.3811611 1.3953495 -16.3125 -0.5 C-10.71144475 -1.83938278 -5.45751216 -1.88532238 0 0 Z " fill="#F1EFF6" transform="translate(135.4375,8.1875)"/>
<path d="M0 0 C2.31 0 4.62 0 7 0 C7.67031719 1.9570868 8.33614683 3.91571113 9 5.875 C9.556875 7.51082031 9.556875 7.51082031 10.125 9.1796875 C11 12 11 12 11 14 C11.66 14 12.32 14 13 14 C13.12375 12.7625 13.12375 12.7625 13.25 11.5 C14.16447269 7.23246079 15.92223178 3.80763106 18 0 C20.64 0 23.28 0 26 0 C27.98 4.29 29.96 8.58 32 13 C33.65 8.71 35.3 4.42 37 0 C38.98 0 40.96 0 43 0 C42.36519395 5.922178 40.78907028 11.28827744 38.9375 16.9375 C38.51500977 18.24944336 38.51500977 18.24944336 38.08398438 19.58789062 C37.39434445 21.72694327 36.69959171 23.86418579 36 26 C33.69 26 31.38 26 29 26 C25.535 17.585 25.535 17.585 22 9 C21.21625 10.876875 20.4325 12.75375 19.625 14.6875 C19.18414062 15.74324219 18.74328125 16.79898437 18.2890625 17.88671875 C17.17242538 20.58356657 16.07708199 23.28716264 15 26 C12.69 26 10.38 26 8 26 C6.6618184 22.04328884 5.330278 18.08437472 4 14.125 C3.6184375 12.99707031 3.236875 11.86914062 2.84375 10.70703125 C2.4828125 9.63066406 2.121875 8.55429688 1.75 7.4453125 C1.41484375 6.45031738 1.0796875 5.45532227 0.734375 4.43017578 C0 2 0 2 0 0 Z " fill="#F2F1F7" transform="translate(69,7)"/>
<path d="M0 0 C3.196875 -0.0825 6.39375 -0.165 9.6875 -0.25 C10.68612061 -0.28641602 11.68474121 -0.32283203 12.71362305 -0.36035156 C16.98285395 -0.41369006 19.36670269 -0.38848656 23.08203125 1.890625 C26.04358954 5.14773595 26.39152746 7.53997465 26.359375 11.9609375 C25.7567698 15.38006698 23.63213933 16.93189052 21 19 C18.23547967 20.38226016 15.9538637 20.09525387 12.875 20.0625 C11.77929688 20.05347656 10.68359375 20.04445313 9.5546875 20.03515625 C8.71164063 20.02355469 7.86859375 20.01195313 7 20 C7 21.98 7 23.96 7 26 C4.69 26 2.38 26 0 26 C0 17.42 0 8.84 0 0 Z " fill="#F0EEF7" transform="translate(35,7)"/>
<path d="M0 0 C5.61 0 11.22 0 17 0 C16.67 1.32 16.34 2.64 16 4 C12.7 4 9.4 4 6 4 C6 6.64 6 9.28 6 12 C11.445 11.505 11.445 11.505 17 11 C17.66 9.02 18.32 7.04 19 5 C19.99 5 20.98 5 22 5 C22.33 5.99 22.66 6.98 23 8 C23 7.01 23 6.02 23 5 C23.99 5 24.98 5 26 5 C26.31678207 9.64613708 25.77482856 11.3806584 23 15 C23.11306697 16.95894361 23.11306697 16.95894361 24 19 C24.350625 20.0725 24.70125 21.145 25.0625 22.25 C25.5265625 23.61125 25.5265625 23.61125 26 25 C23.69 25 21.38 25 19 25 C16 19.25 16 19.25 16 17 C12.7 17 9.4 17 6 17 C6 19.64 6 22.28 6 25 C4.02 25 2.04 25 0 25 C0 16.75 0 8.5 0 0 Z " fill="#F5F4F8" transform="translate(145,8)"/>
<path d="M0 0 C2.31 0 4.62 0 7 0 C7 6.6 7 13.2 7 20 C12.61 20 18.22 20 24 20 C24 21.98 24 23.96 24 26 C16.08 26 8.16 26 0 26 C0 17.42 0 8.84 0 0 Z " fill="#EAE8F2" transform="translate(174,7)"/>
<path d="M0 0 C5.61 0.33 11.22 0.66 17 1 C16.67 2.32 16.34 3.64 16 5 C12.7 5 9.4 5 6 5 C6 10.28 6 15.56 6 21 C8.97 21 11.94 21 15 21 C15.33 22.65 15.66 24.3 16 26 C10.72 26 5.44 26 0 26 C0 17.42 0 8.84 0 0 Z " fill="#FBFAFD" transform="translate(201,7)"/>
<path d="M0 0 C1.17949219 0.10183594 2.35898438 0.20367187 3.57421875 0.30859375 C4.47785156 0.39238281 5.38148438 0.47617188 6.3125 0.5625 C6.3125 0.8925 6.3125 1.2225 6.3125 1.5625 C1.6925 1.5625 -2.9275 1.5625 -7.6875 1.5625 C-7.6875 10.1425 -7.6875 18.7225 -7.6875 27.5625 C-2.7375 27.5625 2.2125 27.5625 7.3125 27.5625 C7.3125 27.8925 7.3125 28.2225 7.3125 28.5625 C0.8775 29.0575 0.8775 29.0575 -5.6875 29.5625 C-5.6875 30.2225 -5.6875 30.8825 -5.6875 31.5625 C-9.79185673 33.61467837 -15.11425128 32.74739112 -19.625 32.75 C-20.73552734 32.76224609 -21.84605469 32.77449219 -22.99023438 32.78710938 C-24.58641602 32.79000977 -24.58641602 32.79000977 -26.21484375 32.79296875 C-27.19187256 32.79707764 -28.16890137 32.80118652 -29.17553711 32.80541992 C-31.6875 32.5625 -31.6875 32.5625 -34.6875 30.5625 C-34.3575 29.9025 -34.0275 29.2425 -33.6875 28.5625 C-26.0975 28.5625 -18.5075 28.5625 -10.6875 28.5625 C-11.0175 26.2525 -11.3475 23.9425 -11.6875 21.5625 C-13.3375 21.2325 -14.9875 20.9025 -16.6875 20.5625 C-16.6875 20.2325 -16.6875 19.9025 -16.6875 19.5625 C-14.7075 19.5625 -12.7275 19.5625 -10.6875 19.5625 C-10.3575 13.2925 -10.0275 7.0225 -9.6875 0.5625 C-6.14075997 -0.61974668 -3.71227005 -0.33079634 0 0 Z " fill="#292444" transform="translate(208.6875,5.4375)"/>
<path d="M0 0 C9.09090909 -0.60606061 9.09090909 -0.60606061 13.1875 2.125 C15 5 15 5 15 8.125 C13.96916471 11.08865145 13.47246004 12.16316149 11 14 C7.29631297 14.40199208 3.73655831 14.13187853 0 14 C0 9.38 0 4.76 0 0 Z " fill="#201650" transform="translate(207,13)"/>
<path d="M0 0 C2.875 1.625 2.875 1.625 5 4 C5.67927401 7.62279473 5.46942769 9.25673949 3.5 12.375 C-0.00640667 14.65416433 -2.92900647 14.81753559 -7 14 C-9.5 12.375 -9.5 12.375 -11 10 C-11.5625 7 -11.5625 7 -11 4 C-7.63592992 0.24015697 -4.98202553 -0.83033759 0 0 Z " fill="#1D1546" transform="translate(130,13)"/>
<path d="M0 0 C3.196875 -0.061875 6.39375 -0.12375 9.6875 -0.1875 C11.18543091 -0.22846802 11.18543091 -0.22846802 12.71362305 -0.27026367 C21.16645846 -0.34946908 21.16645846 -0.34946908 25 3 C25.33 3.99 25.66 4.98 26 6 C25.34 6 24.68 6 24 6 C24 6.99 24 7.98 24 9 C22 8 22 8 21 7 C20.690625 7.804375 20.38125 8.60875 20.0625 9.4375 C19 12 19 12 18 13 C16.14712498 13.07226502 14.29166122 13.0838122 12.4375 13.0625 C11.42558594 13.05347656 10.41367188 13.04445313 9.37109375 13.03515625 C8.19740234 13.01775391 8.19740234 13.01775391 7 13 C7 10.36 7 7.72 7 5 C7.95712891 4.92652344 7.95712891 4.92652344 8.93359375 4.8515625 C9.75988281 4.77679687 10.58617187 4.70203125 11.4375 4.625 C12.26121094 4.55539063 13.08492187 4.48578125 13.93359375 4.4140625 C14.95646484 4.20910156 14.95646484 4.20910156 16 4 C16.33 3.34 16.66 2.68 17 2 C11.72 1.67 6.44 1.34 1 1 C1 9.25 1 17.5 1 26 C0.67 26 0.34 26 0 26 C0 17.42 0 8.84 0 0 Z " fill="#D9D6E6" transform="translate(144,7)"/>
<path d="M0 0 C9.40212264 -0.27653302 9.40212264 -0.27653302 13 2 C14.42041821 4.84083641 14.31452272 6.85477278 14 10 C12.625 12.375 12.625 12.375 10 14 C6.59266913 14.33111993 3.4389618 14.18099799 0 14 C0 9.38 0 4.76 0 0 Z " fill="#1D1452" transform="translate(12,13)"/>
<path d="M0 0 C1.65 0 3.3 0 5 0 C4.67 1.32 4.34 2.64 4 4 C4.66 4 5.32 4 6 4 C6 6.97 6 9.94 6 13 C10.29 13 14.58 13 19 13 C19 14.65 19 16.3 19 18 C17.87980469 17.98839844 16.75960937 17.97679688 15.60546875 17.96484375 C14.13281417 17.95546378 12.66015778 17.9463638 11.1875 17.9375 C10.44951172 17.92912109 9.71152344 17.92074219 8.95117188 17.91210938 C5.70077932 17.89740172 3.10595105 17.96468298 0 19 C0 12.73 0 6.46 0 0 Z " fill="#F9F8FB" transform="translate(36,8)"/>
<path d="M0 0 C1.98 0.66 3.96 1.32 6 2 C5.98839844 3.27617187 5.97679687 4.55234375 5.96484375 5.8671875 C5.95546583 7.53645687 5.94636563 9.20572783 5.9375 10.875 C5.92912109 11.71675781 5.92074219 12.55851562 5.91210938 13.42578125 C5.90727539 14.63427734 5.90727539 14.63427734 5.90234375 15.8671875 C5.89448853 16.98262939 5.89448853 16.98262939 5.88647461 18.12060547 C5.88213364 20.09132568 5.88213364 20.09132568 7 22 C6.67 22.66 6.34 23.32 6 24 C4.02 24.33 2.04 24.66 0 25 C0 16.75 0 8.5 0 0 Z " fill="#FCFCFA" transform="translate(6,7)"/>
<path d="M0 0 C0.33 0 0.66 0 1 0 C1 9.24 1 18.48 1 28 C-4.19047619 22.80952381 -4.19047619 22.80952381 -6 19 C-5.72688465 15.90469271 -4.7770843 14.66562645 -3 12 C-2.75892674 9.71351152 -2.75892674 9.71351152 -2.875 7.3125 C-2.89304688 6.50425781 -2.91109375 5.69601563 -2.9296875 4.86328125 C-2.95289063 4.24839844 -2.97609375 3.63351563 -3 3 C-2.01 2.67 -1.02 2.34 0 2 C0 1.34 0 0.68 0 0 Z " fill="#170F42" transform="translate(173,7)"/>
<path d="M0 0 C0.33 0 0.66 0 1 0 C1.16702456 4.34263862 1.12999997 7.20960634 -1 11 C-4.43742918 11.05802698 -7.87473253 11.09360486 -11.3125 11.125 C-12.28896484 11.14175781 -13.26542969 11.15851562 -14.27148438 11.17578125 C-15.20927734 11.18222656 -16.14707031 11.18867187 -17.11328125 11.1953125 C-17.97735596 11.20578613 -18.84143066 11.21625977 -19.73168945 11.22705078 C-22 11 -22 11 -25 9 C-24.67 8.34 -24.34 7.68 -24 7 C-16.41 6.67 -8.82 6.34 -1 6 C-0.67 4.02 -0.34 2.04 0 0 Z " fill="#191147" transform="translate(199,27)"/>
<path d="M0 0 C1.79133978 -0.05391993 3.58313899 -0.09275571 5.375 -0.125 C6.37273438 -0.14820313 7.37046875 -0.17140625 8.3984375 -0.1953125 C11 0 11 0 13 2 C12.75 4.5625 12.75 4.5625 12 7 C9.47524538 8.26237731 7.68799534 8.09856404 4.875 8.0625 C3.96492188 8.05347656 3.05484375 8.04445313 2.1171875 8.03515625 C1.41851562 8.02355469 0.71984375 8.01195312 0 8 C0 5.36 0 2.72 0 0 Z " fill="#1B1343" transform="translate(42,13)"/>
<path d="M0 0 C0.33 0 0.66 0 1 0 C1.33 7.92 1.66 15.84 2 24 C3.65 24 5.3 24 7 24 C7 22.68 7 21.36 7 20 C10.63 20 14.26 20 18 20 C18 21.32 18 22.64 18 24 C14.31602884 26.45598077 11.55276192 26.2271532 7.3125 26.125 C4.899375 26.08375 2.48625 26.0425 0 26 C0 17.42 0 8.84 0 0 Z " fill="#E2DFEC" transform="translate(5,7)"/>
<path d="M0 0 C1.74627478 2.61941217 2.38722388 4.03824877 3 7 C5.31 7 7.62 7 10 7 C10.33 5.68 10.66 4.36 11 3 C11.33 3.33 11.66 3.66 12 4 C12.66 2.68 13.32 1.36 14 0 C14.99 0.33 15.98 0.66 17 1 C17 1.66 17 2.32 17 3 C17.99 3.66 18.98 4.32 20 5 C18.68 5.33 17.36 5.66 16 6 C16.33 6.66 16.66 7.32 17 8 C16.01 8.495 16.01 8.495 15 9 C14.67 9.99 14.34 10.98 14 12 C9.25 12.125 9.25 12.125 7 11 C7 10.34 7 9.68 7 9 C5.35 9 3.7 9 2 9 C1.67 8.01 1.34 7.02 1 6 C-1.01508358 5.26676204 -1.01508358 5.26676204 -3 5 C-2.01 3.35 -1.02 1.7 0 0 Z " fill="#1E154D" transform="translate(95,26)"/>
<path d="M0 0 C3.96 0 7.92 0 12 0 C12.33 1.65 12.66 3.3 13 5 C11 7 11 7 8.3984375 7.1953125 C7.40070313 7.17210937 6.40296875 7.14890625 5.375 7.125 C3.87066406 7.09792969 3.87066406 7.09792969 2.3359375 7.0703125 C1.56507813 7.04710937 0.79421875 7.02390625 0 7 C0 4.69 0 2.38 0 0 Z " fill="#160E40" transform="translate(151,13)"/>
<path d="M0 0 C5.28 0 10.56 0 16 0 C16 1.65 16 3.3 16 5 C10.06 5 4.12 5 -2 5 C-1.34 3.35 -0.68 1.7 0 0 Z " fill="#FCFBFD" transform="translate(182,28)"/>
<path d="M0 0 C0.33 0 0.66 0 1 0 C1 6.6 1 13.2 1 20 C2.65 19.34 4.3 18.68 6 18 C9.33203125 18.0234375 9.33203125 18.0234375 12.8125 18.375 C13.97394531 18.48585938 15.13539062 18.59671875 16.33203125 18.7109375 C17.21246094 18.80632813 18.09289062 18.90171875 19 19 C19 19.33 19 19.66 19 20 C15.04 20 11.08 20 7 20 C7 21.98 7 23.96 7 26 C4.69 26 2.38 26 0 26 C0 17.42 0 8.84 0 0 Z " fill="#D1CEE0" transform="translate(35,7)"/>
<path d="M0 0 C1.32 0.66 2.64 1.32 4 2 C3.01 2.495 3.01 2.495 2 3 C1.67 3.99 1.34 4.98 1 6 C-7.91 6 -16.82 6 -26 6 C-26 5.01 -26 4.02 -26 3 C-24.02 2.34 -22.04 1.68 -20 1 C-20 1.66 -20 2.32 -20 3 C-18.68 3 -17.36 3 -16 3 C-15.67 2.34 -15.34 1.68 -15 1 C-14.67 1.99 -14.34 2.98 -14 4 C-11.69 4.33 -9.38 4.66 -7 5 C-6.67 4.34 -6.34 3.68 -6 3 C-5.67 3.33 -5.34 3.66 -5 4 C-4.01 3.34 -3.02 2.68 -2 2 C-1.34 2 -0.68 2 0 2 C0 1.34 0 0.68 0 0 Z " fill="#211851" transform="translate(139,32)"/>
<path d="M0 0 C-0.33 0.99 -0.66 1.98 -1 3 C-0.67 3.66 -0.34 4.32 0 5 C-6.6 5 -13.2 5 -20 5 C-19.34 4.67 -18.68 4.34 -18 4 C-18 3.34 -18 2.68 -18 2 C-18.66 1.67 -19.32 1.34 -20 1 C-17.60429729 0.8312461 -15.20846637 0.66493164 -12.8125 0.5 C-12.13896484 0.45230469 -11.46542969 0.40460937 -10.77148438 0.35546875 C-7.17363248 0.10976179 -3.60627694 -0.05601984 0 0 Z " fill="#191047" transform="translate(221,33)"/>
<path d="M0 0 C3.44216672 2.6598561 3.99504674 5.90288286 5 10 C2 12 2 12 -2 12 C-2 12.66 -2 13.32 -2 14 C-0.68 13.67 0.64 13.34 2 13 C0.75 14.5625 0.75 14.5625 -1 16 C-3.109375 15.58984375 -3.109375 15.58984375 -5 15 C-1.92482916 4.44191344 -1.92482916 4.44191344 0 0 Z " fill="#261F4B" transform="translate(90,15)"/>
<path d="M0 0 C0.33 0 0.66 0 1 0 C1 8.58 1 17.16 1 26 C0.01 25.67 -0.98 25.34 -2 25 C-2 24.34 -2 23.68 -2 23 C-3.65 23.33 -5.3 23.66 -7 24 C-6.6390625 23.55011719 -6.278125 23.10023437 -5.90625 22.63671875 C-1.6829096 16.78269969 -1.41404203 12.08358078 -2 5 C-1.34 5 -0.68 5 0 5 C-0.2784375 4.0409375 -0.2784375 4.0409375 -0.5625 3.0625 C-0.706875 2.381875 -0.85125 1.70125 -1 1 C-0.67 0.67 -0.34 0.34 0 0 Z " fill="#090628" transform="translate(34,8)"/>
<path d="M0 0 C0.99 0.66 1.98 1.32 3 2 C5.33199388 2.07905064 7.66832622 2.08798769 10 2 C10 2.33 10 2.66 10 3 C8.02 3 6.04 3 4 3 C4 4.32 4 5.64 4 7 C0.04 7 -3.92 7 -8 7 C-7.67 5.68 -7.34 4.36 -7 3 C-7.33 2.34 -7.66 1.68 -8 1 C-5.22899606 -0.38550197 -3.0665294 -0.1877467 0 0 Z " fill="#251C53" transform="translate(32,31)"/>
<path d="M0 0 C1.65 0 3.3 0 5 0 C5 0.99 5 1.98 5 3 C5.99 3.33 6.98 3.66 8 4 C7.68289062 4.55171875 7.36578125 5.1034375 7.0390625 5.671875 C5.87290025 8.28477989 5.59954289 10.40579002 5.375 13.25 C5.30023438 14.14203125 5.22546875 15.0340625 5.1484375 15.953125 C5.09945312 16.62859375 5.05046875 17.3040625 5 18 C3.02 18.33 1.04 18.66 -1 19 C0.65 13.06 2.3 7.12 4 1 C2.68 0.67 1.36 0.34 0 0 Z " fill="#2F2850" transform="translate(108,6)"/>
<path d="M0 0 C0.66 0.66 1.32 1.32 2 2 C2.33 1.67 2.66 1.34 3 1 C4.78071246 0.91273777 6.5648314 0.89300959 8.34765625 0.90234375 C9.42724609 0.90556641 10.50683594 0.90878906 11.61914062 0.91210938 C13.32360352 0.92467773 13.32360352 0.92467773 15.0625 0.9375 C16.77276367 0.94426758 16.77276367 0.94426758 18.51757812 0.95117188 C21.34510351 0.96300253 24.1725264 0.9794859 27 1 C27 1.33 27 1.66 27 2 C19.41 2 11.82 2 4 2 C4 2.66 4 3.32 4 4 C4.66 4.66 5.32 5.32 6 6 C0.39 6 -5.22 6 -11 6 C-10.34 5.67 -9.68 5.34 -9 5 C-9 4.34 -9 3.68 -9 3 C-8.21625 3.185625 -7.4325 3.37125 -6.625 3.5625 C-4.02910225 4.25962266 -4.02910225 4.25962266 -2 3 C-1.34 3.33 -0.68 3.66 0 4 C0 2.68 0 1.36 0 0 Z " fill="#342D5C" transform="translate(171,32)"/>
<path d="M0 0 C0.6875 1.8125 0.6875 1.8125 1 4 C-0.4375 5.75 -0.4375 5.75 -2 7 C-2 6.34 -2 5.68 -2 5 C-2.99 5.5259375 -2.99 5.5259375 -4 6.0625 C-8.0513091 7.32853409 -10.83374555 6.70614482 -15 6 C-15.0825 6.94875 -15.165 7.8975 -15.25 8.875 C-16 12 -16 12 -18.0625 13.375 C-18.701875 13.58125 -19.34125 13.7875 -20 14 C-20 13.34 -20 12.68 -20 12 C-20.99 11.67 -21.98 11.34 -23 11 C-21.02 11 -19.04 11 -17 11 C-17 8.69 -17 6.38 -17 4 C-15.78763672 3.94392578 -15.78763672 3.94392578 -14.55078125 3.88671875 C-13.48214844 3.82097656 -12.41351563 3.75523438 -11.3125 3.6875 C-10.25675781 3.62949219 -9.20101562 3.57148438 -8.11328125 3.51171875 C-4.76990036 2.96217936 -2.76473738 1.91325982 0 0 Z " fill="#150F36" transform="translate(59,23)"/>
<path d="M0 0 C2.97 0 5.94 0 9 0 C8.67 0.66 8.34 1.32 8 2 C5.9375 2.625 5.9375 2.625 4 3 C3.67 5.64 3.34 8.28 3 11 C5.31 11.66 7.62 12.32 10 13 C10 13.33 10 13.66 10 14 C6.7 14 3.4 14 0 14 C0 9.38 0 4.76 0 0 Z " fill="#211B41" transform="translate(207,13)"/>
<path d="M0 0 C1.89510699 -0.08160748 3.79124504 -0.13946459 5.6875 -0.1875 C6.74324219 -0.22230469 7.79898438 -0.25710937 8.88671875 -0.29296875 C12.35422768 0.03333385 14.18432448 1.00969875 17 3 C16.67 4.32 16.34 5.64 16 7 C15.34 7 14.68 7 14 7 C13.67 7.66 13.34 8.32 13 9 C12.01 8.34 11.02 7.68 10 7 C7.49103314 6.54398739 7.49103314 6.54398739 4.8125 6.375 C3.91144531 6.30023437 3.01039063 6.22546875 2.08203125 6.1484375 C1.39496094 6.09945313 0.70789063 6.05046875 0 6 C0 5.67 0 5.34 0 5 C3.3 5 6.6 5 10 5 C10.33 3.68 10.66 2.36 11 1 C7.37 1 3.74 1 0 1 C0 0.67 0 0.34 0 0 Z " fill="#E9E6F3" transform="translate(207,7)"/>
<path d="M0 0 C1.11375 0.185625 2.2275 0.37125 3.375 0.5625 C6.82568861 1.31680657 6.82568861 1.31680657 9 0 C9 5.28 9 10.56 9 16 C6.80291879 13.80291879 6.35322321 12.48226667 5.4375 9.5625 C5.18871094 8.78003906 4.93992188 7.99757813 4.68359375 7.19140625 C4.45800781 6.46824219 4.23242188 5.74507812 4 5 C3.67 4.01 3.34 3.02 3 2 C2.01 1.67 1.02 1.34 0 1 C0 0.67 0 0.34 0 0 Z " fill="#231C48" transform="translate(135,8)"/>
<path d="M0 0 C1.65 0.33 3.3 0.66 5 1 C5.33 3.31 5.66 5.62 6 8 C5.195625 8.28875 4.39125 8.5775 3.5625 8.875 C0.8673532 9.73262568 0.8673532 9.73262568 0 12 C-0.66 12 -1.32 12 -2 12 C-1.34 8.04 -0.68 4.08 0 0 Z " fill="#FAF9FC" transform="translate(135,16)"/>
<path d="M0 0 C0.33 1.65 0.66 3.3 1 5 C-3.16138263 5.08159574 -6.9472484 4.98248524 -11 4 C-11 2.68 -11 1.36 -11 0 C-7.38640813 -1.80679594 -3.76813293 -1.11648383 0 0 Z " fill="#FCFBFC" transform="translate(131,8)"/>
<path d="M0 0 C1.34061543 0.30271961 2.67405895 0.63837971 4 1 C4.99 0.67 5.98 0.34 7 0 C7 0.66 7 1.32 7 2 C6.34 2 5.68 2 5 2 C5.66 3.32 6.32 4.64 7 6 C6.01 6 5.02 6 4 6 C3.67 6.99 3.34 7.98 3 9 C0.66666667 9 -1.66666667 9 -4 9 C-2.25 2.25 -2.25 2.25 0 0 Z " fill="#1A1146" transform="translate(64,14)"/>
<path d="M0 0 C2.97 0 5.94 0 9 0 C6.66666667 2.33333333 4.33333333 4.66666667 2 7 C1.60235737 8.98821313 1.26224651 10.98944339 1 13 C3.64 13 6.28 13 9 13 C9 13.33 9 13.66 9 14 C6.03 14 3.06 14 0 14 C0 9.38 0 4.76 0 0 Z " fill="#100A35" transform="translate(12,13)"/>
<path d="M0 0 C0.33 0 0.66 0 1 0 C1 9.24 1 18.48 1 28 C-2.45397435 24.54602565 -3.56375905 23.30872286 -5 19 C-4.01 18.67 -3.02 18.34 -2 18 C-2 18.66 -2 19.32 -2 20 C-1.34 20 -0.68 20 0 20 C0 13.4 0 6.8 0 0 Z " fill="#110A34" transform="translate(173,7)"/>
<path d="M0 0 C0.66 0.99 1.32 1.98 2 3 C1.67 3.66 1.34 4.32 1 5 C0.01 5 -0.98 5 -2 5 C-2 5.99 -2 6.98 -2 8 C-1.34 8.33 -0.68 8.66 0 9 C-0.33 9.66 -0.66 10.32 -1 11 C-3.31 10.67 -5.62 10.34 -8 10 C-8 7 -8 7 -6.25 5.17578125 C-5.5075 4.56089844 -4.765 3.94601563 -4 3.3125 C-3.2575 2.68988281 -2.515 2.06726563 -1.75 1.42578125 C-1.1725 0.95527344 -0.595 0.48476563 0 0 Z " fill="#211754" transform="translate(226,27)"/>
<path d="M0 0 C1.73546076 2.60319113 2.65175233 4.52267237 3.625 7.4375 C3.88539062 8.19933594 4.14578125 8.96117187 4.4140625 9.74609375 C5 12 5 12 5 16 C4.01 16 3.02 16 2 16 C-0.05362055 10.91059256 -1.43179252 6.45479185 -2 1 C-1.34 0.67 -0.68 0.34 0 0 Z " fill="#27204D" transform="translate(71,15)"/>
<path d="M0 0 C0.74507812 0.00451172 1.49015625 0.00902344 2.2578125 0.01367188 C4.0885764 0.02540754 5.91929873 0.0433415 7.75 0.0625 C7.75 0.3925 7.75 0.7225 7.75 1.0625 C1.315 1.5575 1.315 1.5575 -5.25 2.0625 C-5.25 2.7225 -5.25 3.3825 -5.25 4.0625 C-4.26 4.3925 -3.27 4.7225 -2.25 5.0625 C-5.88 5.0625 -9.51 5.0625 -13.25 5.0625 C-12.92 3.7425 -12.59 2.4225 -12.25 1.0625 C-8.15996141 -0.08732602 -4.21822949 -0.04844256 0 0 Z " fill="#31295D" transform="translate(13.25,32.9375)"/>
<path d="M0 0 C1.65 0.33 3.3 0.66 5 1 C5.66 2.98 6.32 4.96 7 7 C4.69 7 2.38 7 0 7 C-0.66 5.35 -1.32 3.7 -2 2 C-1.34 2 -0.68 2 0 2 C0 1.34 0 0.68 0 0 Z " fill="#F0EDF7" transform="translate(164,26)"/>
<path d="M0 0 C2.375 -0.1875 2.375 -0.1875 5 0 C7.31332486 3.46998729 7.33957563 4.92509248 7 9 C6.01 10.485 6.01 10.485 5 12 C4.01 11.67 3.02 11.34 2 11 C2.57344937 8.13275314 2.8614515 7.1385485 5 5 C3.7625 4.319375 3.7625 4.319375 2.5 3.625 C1.675 3.08875 0.85 2.5525 0 2 C0 1.34 0 0.68 0 0 Z " fill="#19133C" transform="translate(19,14)"/>
<path d="M0 0 C0.66 0.33 1.32 0.66 2 1 C1.125 5.875 1.125 5.875 0 7 C-1.85287502 7.07226502 -3.70833878 7.0838122 -5.5625 7.0625 C-6.57441406 7.05347656 -7.58632812 7.04445313 -8.62890625 7.03515625 C-9.41136719 7.02355469 -10.19382813 7.01195312 -11 7 C-10.67 6.01 -10.34 5.02 -10 4 C-7.36 4 -4.72 4 -2 4 C-2 3.01 -2 2.02 -2 1 C-1.34 0.67 -0.68 0.34 0 0 Z " fill="#332E50" transform="translate(162,13)"/>
<path d="M0 0 C0.66 0.66 1.32 1.32 2 2 C1.67 2.66 1.34 3.32 1 4 C-3.29 4 -7.58 4 -12 4 C-11.67 3.01 -11.34 2.02 -11 1 C-7.26779887 0.12183503 -3.83453269 -0.25563551 0 0 Z " fill="#1B1340" transform="translate(135,33)"/>
<path d="M0 0 C0.33 0 0.66 0 1 0 C2.7479503 5.24385089 3.19392201 9.47322267 3 15 C2.01 15 1.02 15 0 15 C-2.72580143 10.45699761 -1.63313152 6.89047526 -0.5078125 2.01171875 C-0.34023437 1.34785156 -0.17265625 0.68398438 0 0 Z " fill="#2D2652" transform="translate(141,17)"/>
<path d="M0 0 C0.33 1.32 0.66 2.64 1 4 C1.99 3.67 2.98 3.34 4 3 C4.66 3.66 5.32 4.32 6 5 C4.02 6.32 2.04 7.64 0 9 C0 8.01 0 7.02 0 6 C-0.66 6 -1.32 6 -2 6 C-2 5.34 -2 4.68 -2 4 C-2.66 3.67 -3.32 3.34 -4 3 C-2.68 2.01 -1.36 1.02 0 0 Z " fill="#E5E3EE" transform="translate(119,8)"/>
<path d="M0 0 C1.32 0.33 2.64 0.66 4 1 C4 3.31 4 5.62 4 8 C3.01 7.67 2.02 7.34 1 7 C1 6.34 1 5.68 1 5 C-0.65 5.33 -2.3 5.66 -4 6 C-2.68 4.02 -1.36 2.04 0 0 Z " fill="#16103E" transform="translate(31,26)"/>
<path d="M0 0 C1.6875 2.375 1.6875 2.375 3 5 C2.67 5.66 2.34 6.32 2 7 C-0.475 6.01 -0.475 6.01 -3 5 C-2.67 4.34 -2.34 3.68 -2 3 C-2.66 2.67 -3.32 2.34 -4 2 C-4.66 3.65 -5.32 5.3 -6 7 C-7.125 3.25 -7.125 3.25 -6 1 C-3.911361 0.32624548 -2.19636905 0 0 0 Z " fill="#17103C" transform="translate(113,24)"/>
<path d="M0 0 C0.33 0.66 0.66 1.32 1 2 C1.33 1.34 1.66 0.68 2 0 C2.66 0 3.32 0 4 0 C4.33 2.31 4.66 4.62 5 7 C4.01 7.33 3.02 7.66 2 8 C0.68 6.35 -0.64 4.7 -2 3 C-1.34 2.01 -0.68 1.02 0 0 Z " fill="#282053" transform="translate(29,6)"/>
<path d="M0 0 C0.33 0.99 0.66 1.98 1 3 C2.32 2.67 3.64 2.34 5 2 C5 2.66 5 3.32 5 4 C0.8204355 6.78637633 -1.14668677 5.79562512 -6 5 C-6 4.01 -6 3.02 -6 2 C-4.02 2 -2.04 2 0 2 C0 1.34 0 0.68 0 0 Z " fill="#170F40" transform="translate(84,32)"/>
<path d="M0 0 C1.48831242 0.00667405 2.97660807 0.01863442 4.46484375 0.03515625 C5.22345703 0.03966797 5.98207031 0.04417969 6.76367188 0.04882812 C8.64326246 0.06064945 10.52281274 0.07858547 12.40234375 0.09765625 C12.40234375 0.42765625 12.40234375 0.75765625 12.40234375 1.09765625 C5.96734375 1.59265625 5.96734375 1.59265625 -0.59765625 2.09765625 C-0.59765625 2.75765625 -0.59765625 3.41765625 -0.59765625 4.09765625 C-2.24765625 4.42765625 -3.89765625 4.75765625 -5.59765625 5.09765625 C-4.47399541 0.12144396 -4.47399541 0.12144396 0 0 Z " fill="#3C355F" transform="translate(203.59765625,32.90234375)"/>
<path d="M0 0 C1.74627478 2.61941217 2.38722388 4.03824877 3 7 C4.98 7 6.96 7 9 7 C9 7.33 9 7.66 9 8 C6.69 8.33 4.38 8.66 2 9 C1.67 8.01 1.34 7.02 1 6 C-1.01508358 5.26676204 -1.01508358 5.26676204 -3 5 C-2.01 3.35 -1.02 1.7 0 0 Z " fill="#322C53" transform="translate(95,26)"/>
<path d="M0 0 C4.875 1.75 4.875 1.75 6 4 C4.68 5.32 3.36 6.64 2 8 C0.23537317 4.91190305 0 3.76687864 0 0 Z " fill="#271E52" transform="translate(129,19)"/>
<path d="M0 0 C0.66 1.32 1.32 2.64 2 4 C0.35 5.65 -1.3 7.3 -3 9 C-5 7 -5 7 -5.125 4.375 C-5.08375 3.59125 -5.0425 2.8075 -5 2 C-2.525 2.495 -2.525 2.495 0 3 C0 2.01 0 1.02 0 0 Z " fill="#EAE8F3" transform="translate(118,19)"/>
<path d="M0 0 C0.66 0.66 1.32 1.32 2 2 C2.99 2 3.98 2 5 2 C0.375 7.875 0.375 7.875 -3 9 C-2.01 6.03 -1.02 3.06 0 0 Z " fill="#E6E4EB" transform="translate(86,8)"/>
<path d="M0 0 C0.99 0.33 1.98 0.66 3 1 C3 1.66 3 2.32 3 3 C3.99 3.66 4.98 4.32 6 5 C4.8553125 4.9071875 4.8553125 4.9071875 3.6875 4.8125 C0.95474688 4.74101915 0.95474688 4.74101915 -0.8125 6.5 C-1.4003125 7.2425 -1.4003125 7.2425 -2 8 C-2 7.34 -2 6.68 -2 6 C-2.66 6 -3.32 6 -4 6 C-3.67 5.01 -3.34 4.02 -3 3 C-2.67 3.33 -2.34 3.66 -2 4 C-1.34 2.68 -0.68 1.36 0 0 Z " fill="#292056" transform="translate(109,26)"/>
<path d="M0 0 C0.33 0 0.66 0 1 0 C1 5.28 1 10.56 1 16 C-1.85212766 13.14787234 -1.73901015 10.98009518 -2 7 C-1.52944399 4.54740506 -0.82239721 2.37043901 0 0 Z " fill="#0C072D" transform="translate(143,8)"/>
<path d="M0 0 C0 0.33 0 0.66 0 1 C-2.31 1 -4.62 1 -7 1 C-7 1.66 -7 2.32 -7 3 C-9 4.625 -9 4.625 -11 6 C-11.33 4.35 -11.66 2.7 -12 1 C-7.67265609 -1.22923777 -4.71599818 -0.92470553 0 0 Z " fill="#271F4E" transform="translate(180,6)"/>
<path d="M0 0 C0.66 0.99 1.32 1.98 2 3 C1.67 3.66 1.34 4.32 1 5 C0.01 5 -0.98 5 -2 5 C-2 5.66 -2 6.32 -2 7 C-3.32 6.67 -4.64 6.34 -6 6 C-4 4 -2 2 0 0 Z " fill="#29224D" transform="translate(226,27)"/>
<path d="M0 0 C0.66 0 1.32 0 2 0 C1.625 2.4375 1.625 2.4375 1 5 C-1.52475462 6.26237731 -3.31200466 6.09856404 -6.125 6.0625 C-7.03507812 6.05347656 -7.94515625 6.04445313 -8.8828125 6.03515625 C-9.58148438 6.02355469 -10.28015625 6.01195312 -11 6 C-11 5.67 -11 5.34 -11 5 C-9.01432292 4.77213542 -7.02864583 4.54427083 -5.04296875 4.31640625 C-2.80603607 4.02829265 -2.80603607 4.02829265 0 3 C0 2.01 0 1.02 0 0 Z " fill="#312C4A" transform="translate(53,15)"/>
<path d="M0 0 C0.66 0 1.32 0 2 0 C2 0.99 2 1.98 2 3 C1.34 3 0.68 3 0 3 C-0.33 4.98 -0.66 6.96 -1 9 C-1.99 8.67 -2.98 8.34 -4 8 C-3.67 5.69 -3.34 3.38 -3 1 C-2.34 1.33 -1.68 1.66 -1 2 C-0.67 1.34 -0.34 0.68 0 0 Z " fill="#160D42" transform="translate(232,17)"/>
<path d="M0 0 C0.66 0.33 1.32 0.66 2 1 C1.6875 3.875 1.6875 3.875 1 7 C0.01 7.66 -0.98 8.32 -2 9 C-2.125 5.625 -2.125 5.625 -2 2 C-1.34 1.34 -0.68 0.68 0 0 Z " fill="#1B1538" transform="translate(220,17)"/>
<path d="M0 0 C0.99 0 1.98 0 3 0 C2.67 1.32 2.34 2.64 2 4 C3.32 4.66 4.64 5.32 6 6 C3.125 6.125 3.125 6.125 0 6 C-0.66 5.34 -1.32 4.68 -2 4 C-1.34 2.68 -0.68 1.36 0 0 Z " fill="#1B1247" transform="translate(87,0)"/>
<path d="M0 0 C3.3 0 6.6 0 10 0 C10.33 1.65 10.66 3.3 11 5 C9.35 4.67 7.7 4.34 6 4 C6 3.34 6 2.68 6 2 C3.03 1.505 3.03 1.505 0 1 C0 0.67 0 0.34 0 0 Z " fill="#4F4A6D" transform="translate(151,25)"/>
<path d="M0 0 C-0.75 2.9375 -0.75 2.9375 -2 6 C-4.125 6.875 -4.125 6.875 -6 7 C-5.67 6.01 -5.34 5.02 -5 4 C-5.66 4 -6.32 4 -7 4 C-7 3.34 -7 2.68 -7 2 C-2.25 0 -2.25 0 0 0 Z " fill="#170E46" transform="translate(95,25)"/>
<path d="M0 0 C2 1 2 1 4 3 C4 3.99 4 4.98 4 6 C1.03 5.505 1.03 5.505 -2 5 C-1.125 1.125 -1.125 1.125 0 0 Z " fill="#191141" transform="translate(22,2)"/>
<path d="M0 0 C1.32 0 2.64 0 4 0 C3.67 1.98 3.34 3.96 3 6 C2.34 6 1.68 6 1 6 C0.67 4.02 0.34 2.04 0 0 Z " fill="#1C163B" transform="translate(79,15)"/>
<path d="M0 0 C1.65 0 3.3 0 5 0 C5.66 1.32 6.32 2.64 7 4 C6.01 4.33 5.02 4.66 4 5 C3.34 4.34 2.68 3.68 2 3 C1.34 2.67 0.68 2.34 0 2 C0 1.34 0 0.68 0 0 Z " fill="#211C43" transform="translate(19,14)"/>
<path d="M0 0 C0.33 0 0.66 0 1 0 C1 2.97 1 5.94 1 9 C0.01 9.495 0.01 9.495 -1 10 C-1.33 8.35 -1.66 6.7 -2 5 C-1.34 5 -0.68 5 0 5 C-0.2784375 4.0409375 -0.2784375 4.0409375 -0.5625 3.0625 C-0.7790625 2.0415625 -0.7790625 2.0415625 -1 1 C-0.67 0.67 -0.34 0.34 0 0 Z " fill="#0F0930" transform="translate(34,8)"/>
<path d="M0 0 C0.6875 1.8125 0.6875 1.8125 1 4 C-0.4375 5.75 -0.4375 5.75 -2 7 C-2.99 5.68 -3.98 4.36 -5 3 C-3.35 2.01 -1.7 1.02 0 0 Z " fill="#1B1340" transform="translate(59,23)"/>
<path d="M0 0 C0 1.65 0 3.3 0 5 C-2.97 4.505 -2.97 4.505 -6 4 C-2.25 0 -2.25 0 0 0 Z " fill="#241B4E" transform="translate(173,22)"/>
<path d="M0 0 C-0.66 0 -1.32 0 -2 0 C-2 0.99 -2 1.98 -2 3 C-3.32 3.33 -4.64 3.66 -6 4 C-6 2.68 -6 1.36 -6 0 C-3.50907189 -1.24546405 -2.58919267 -0.7767578 0 0 Z " fill="#F5F4F6" transform="translate(126,8)"/>
<path d="M0 0 C1.65 0.33 3.3 0.66 5 1 C5 1.66 5 2.32 5 3 C3.35 3 1.7 3 0 3 C-0.33 3.66 -0.66 4.32 -1 5 C-1.33 4.01 -1.66 3.02 -2 2 C-1.34 2 -0.68 2 0 2 C0 1.34 0 0.68 0 0 Z " fill="#E5E3EE" transform="translate(164,26)"/>
<path d="M0 0 C0.66 0.33 1.32 0.66 2 1 C1.67 2.65 1.34 4.3 1 6 C0.01 5.34 -0.98 4.68 -2 4 C-2 3.01 -2 2.02 -2 1 C-1.34 0.67 -0.68 0.34 0 0 Z " fill="#282148" transform="translate(162,13)"/>
</svg>
