<?xml version="1.0" encoding="UTF-8"?>
<svg version="1.1" xmlns="http://www.w3.org/2000/svg" width="130" height="97">
<path d="M0 0 C42.9 0 85.8 0 130 0 C130 32.01 130 64.02 130 97 C87.1 97 44.2 97 0 97 C0 64.99 0 32.98 0 0 Z " fill="#1D144F" transform="translate(0,0)"/>
<path d="M0 0 C0.33 0 0.66 0 1 0 C1.55353075 16.70842825 1.55353075 16.70842825 -2 25 C-2.66 25 -3.32 25 -4 25 C-4.20625 25.680625 -4.4125 26.36125 -4.625 27.0625 C-6.42895027 30.91639375 -8.9010345 34.07787764 -12 37 C-12.66 37 -13.32 37 -14 37 C-14 37.66 -14 38.32 -14 39 C-15.99563262 39.96739508 -17.99675882 40.92346044 -20 41.875 C-21.11375 42.40867188 -22.2275 42.94234375 -23.375 43.4921875 C-43.1404774 51.71360375 -62.9799746 46.04044761 -81.8737793 38.37475586 C-89.48023155 35.29948271 -96.75563865 33.87292275 -105 35 C-109.72247796 37.15029256 -113.1209435 39.68141525 -116 44 C-116.66 44 -117.32 44 -118 44 C-115.6229971 37.06707488 -111.52805809 32.75436181 -105.203125 29.17578125 C-95.37777839 25.56916012 -84.40532215 27.73313023 -74.5 30 C-54.16327902 34.6161994 -34.66601181 33.70389827 -16.33984375 23.5625 C-13.90288703 22.04580321 -13.90288703 22.04580321 -11.81640625 19.8125 C-10 18 -10 18 -8 18 C-8 17.34 -8 16.68 -8 16 C-7.01 15.34 -6.02 14.68 -5 14 C-3.80337533 11.73105664 -3.80337533 11.73105664 -2.875 9.125 C-2.54242188 8.26132812 -2.20984375 7.39765625 -1.8671875 6.5078125 C-1.12036334 4.34807776 -0.50735788 2.22616212 0 0 Z " fill="#05B37C" transform="translate(120,18)"/>
<path d="M0 0 C2.95633414 5.03500659 2.09707435 9.43672949 1 15 C-1.11847952 23.11515949 -3.3883954 31.39638038 -10.97265625 35.89453125 C-11.64167969 36.25933594 -12.31070313 36.62414063 -13 37 C-14.30150521 37.94492844 -15.59377037 38.90275714 -16.875 39.875 C-20 42 -20 42 -22 42 C-22.103125 42.598125 -22.20625 43.19625 -22.3125 43.8125 C-23.08876455 46.28243264 -24.07088921 47.32251235 -26 49 C-25.236875 49.144375 -24.47375 49.28875 -23.6875 49.4375 C-21 50 -21 50 -18 51 C-18 51.66 -18 52.32 -18 53 C-18.66 53 -19.32 53 -20 53 C-20.33 53.99 -20.66 54.98 -21 56 C-22.85546875 56.9140625 -22.85546875 56.9140625 -25.1875 57.625 C-25.94417969 57.86476562 -26.70085937 58.10453125 -27.48046875 58.3515625 C-33.26783593 59.84102444 -38.74949506 60.15574032 -44.6875 60.125 C-45.44611328 60.12886719 -46.20472656 60.13273437 -46.98632812 60.13671875 C-50.2477639 60.13096158 -52.88513748 60.03828751 -56 59 C-56 58.01 -56 57.02 -56 56 C-57.32 55.67 -58.64 55.34 -60 55 C-60.125 48.25 -60.125 48.25 -59 46 C-60.216875 46.020625 -61.43375 46.04125 -62.6875 46.0625 C-65.91492629 46.05677761 -68.88606572 45.94361645 -72 45 C-72.33 44.34 -72.66 43.68 -73 43 C-75.64 43 -78.28 43 -81 43 C-81.33 42.01 -81.66 41.02 -82 40 C-84.54051087 38.91078215 -86.9315425 38.04754586 -89.5625 37.25 C-90.25408203 37.01667969 -90.94566406 36.78335938 -91.65820312 36.54296875 C-96.86212264 34.92310937 -100.64453144 35.01958089 -106 36 C-107.155 36.185625 -108.31 36.37125 -109.5 36.5625 C-110.325 36.706875 -111.15 36.85125 -112 37 C-108.61020693 33.45612542 -106.59771 32.8110682 -101.6875 32.6875 C-90.38190348 32.82145257 -79.96865172 37.65614502 -69.53491211 41.62524414 C-55.17820964 47.04689642 -38.18371587 47.15519745 -24 41 C-22.93652344 40.45988281 -21.87304688 39.91976562 -20.77734375 39.36328125 C-18 38 -18 38 -16 38 C-16 37.34 -16 36.68 -16 36 C-15.278125 35.46375 -14.55625 34.9275 -13.8125 34.375 C-10.68481787 31.7338462 -9.09207066 29.14154632 -7.11328125 25.609375 C-6.74589844 25.07828125 -6.37851563 24.5471875 -6 24 C-5.34 24 -4.68 24 -4 24 C-2.05338979 16.07451558 -1.00148167 8.08643179 0 0 Z " fill="#1D144F" transform="translate(122,19)"/>
<path d="M0 0 C1.32451172 0.01353516 1.32451172 0.01353516 2.67578125 0.02734375 C3.67158203 0.04474609 3.67158203 0.04474609 4.6875 0.0625 C4.515625 1.87890625 4.515625 1.87890625 3.6875 4.0625 C1.359375 5.58984375 1.359375 5.58984375 -1.5625 7 C-6.01294677 9.26851567 -8.97893983 11.40633723 -12.3125 15.0625 C-12.9725 15.0625 -13.6325 15.0625 -14.3125 15.0625 C-14.580625 15.59875 -14.84875 16.135 -15.125 16.6875 C-16.52083333 19.47916667 -17.91666667 22.27083333 -19.3125 25.0625 C-19.9725 25.0625 -20.6325 25.0625 -21.3125 25.0625 C-23.1024856 31.3871158 -23.85490047 37.5116015 -24.3125 44.0625 C-26.62567961 43.75507097 -28.93803352 43.44142298 -31.25 43.125 C-32.53777344 42.95097656 -33.82554688 42.77695312 -35.15234375 42.59765625 C-38.3125 42.0625 -38.3125 42.0625 -39.3125 41.0625 C-39.65494999 29.39473972 -34.6317397 19.51959942 -26.828125 11.1652832 C-19.45963322 3.82994964 -10.38413845 -0.13845518 0 0 Z " fill="#C11F5C" transform="translate(82.3125,6.9375)"/>
<path d="M0 0 C2.85772673 2.85772673 2.33417955 4.88276046 2.375 8.875 C2.30396875 21.47775816 -2.11000265 31.43118517 -10.5859375 40.7421875 C-18.40943209 48.10772143 -28.39959201 52.09914433 -39 52.3125 C-40.216875 52.34988281 -41.43375 52.38726562 -42.6875 52.42578125 C-46 52 -46 52 -48.5 50.35546875 C-50 48 -50 48 -49.75 44.75 C-49.5025 43.8425 -49.255 42.935 -49 42 C-47.81664063 41.75765625 -46.63328125 41.5153125 -45.4140625 41.265625 C-28.61142583 37.74292173 -14.7265506 33.24822863 -4.81640625 18.203125 C-1.59911658 12.49921218 -0.81424485 6.42824882 0 0 Z " fill="#D0CCDF" transform="translate(126,38)"/>
<path d="M0 0 C1 1 1 1 1.375 3.375 C1 6 1 6 -1.125 7.625 C-2.07375 8.07875 -3.0225 8.5325 -4 9 C-4.99 9.53625 -5.98 10.0725 -7 10.625 C-12.23462141 13.02420148 -17.12327669 13.13327503 -22.8125 13.0625 C-23.50537109 13.05798828 -24.19824219 13.05347656 -24.91210938 13.04882812 C-26.60811068 13.03713156 -28.30406703 13.01919924 -30 13 C-30 11.68 -30 10.36 -30 9 C-30.86625 8.7834375 -30.86625 8.7834375 -31.75 8.5625 C-33.83333333 8.04166667 -35.91666667 7.52083333 -38 7 C-37.39453125 5.03515625 -37.39453125 5.03515625 -36 3 C-33.19921875 2.49609375 -33.19921875 2.49609375 -29.6875 2.4375 C-24.61698441 2.23488718 -20.0950556 1.66554823 -15.1875 0.375 C-9.66344408 -1.01784641 -5.57959234 -1.11591847 0 0 Z " fill="#06D389" transform="translate(102,50)"/>
<path d="M0 0 C0.33 0 0.66 0 1 0 C1.55353075 16.70842825 1.55353075 16.70842825 -2 25 C-2.66 25 -3.32 25 -4 25 C-4.309375 26.0209375 -4.309375 26.0209375 -4.625 27.0625 C-6.42895027 30.91639375 -8.9010345 34.07787764 -12 37 C-12.66 37 -13.32 37 -14 37 C-14 37.66 -14 38.32 -14 39 C-14.66 39 -15.32 39 -16 39 C-15.690625 38.401875 -15.38125 37.80375 -15.0625 37.1875 C-13.89790296 34.91043228 -13.89790296 34.91043228 -13 32 C-13.99 32 -14.98 32 -16 32 C-16.94875 31.62875 -17.8975 31.2575 -18.875 30.875 C-22.64118182 29.82046909 -23.50534955 30.50229266 -27 32 C-29.69264592 32.18118739 -32.29676653 32.09163503 -35 32 C-35 31.67 -35 31.34 -35 31 C-34.40574219 30.85304688 -33.81148438 30.70609375 -33.19921875 30.5546875 C-24.28349632 28.14203477 -16.55400362 24.56818978 -10 18 C-9.34 18 -8.68 18 -8 18 C-8 17.34 -8 16.68 -8 16 C-7.01 15.34 -6.02 14.68 -5 14 C-3.80337533 11.73105664 -3.80337533 11.73105664 -2.875 9.125 C-2.54242188 8.26132812 -2.20984375 7.39765625 -1.8671875 6.5078125 C-1.12036334 4.34807776 -0.50735788 2.22616212 0 0 Z " fill="#0A9976" transform="translate(120,18)"/>
<path d="M0 0 C2.95633414 5.03500659 2.09707435 9.43672949 1 15 C-1.08497859 22.98682906 -3.31850056 31.35344966 -10.79296875 35.76953125 C-11.52128906 36.17558594 -12.24960938 36.58164062 -13 37 C-14.69364953 38.24165515 -16.38094047 39.49201996 -18.0625 40.75 C-23.41492445 44.47449812 -27.39398862 46 -34 46 C-34 46.66 -34 47.32 -34 48 C-42.58 48.33 -51.16 48.66 -60 49 C-59.67 48.01 -59.34 47.02 -59 46 C-60.216875 46.020625 -61.43375 46.04125 -62.6875 46.0625 C-65.91492629 46.05677761 -68.88606572 45.94361645 -72 45 C-72.33 44.34 -72.66 43.68 -73 43 C-75.64 43 -78.28 43 -81 43 C-81.33 42.01 -81.66 41.02 -82 40 C-84.54051087 38.91078215 -86.9315425 38.04754586 -89.5625 37.25 C-90.25408203 37.01667969 -90.94566406 36.78335938 -91.65820312 36.54296875 C-96.86212264 34.92310937 -100.64453144 35.01958089 -106 36 C-107.155 36.185625 -108.31 36.37125 -109.5 36.5625 C-110.325 36.706875 -111.15 36.85125 -112 37 C-108.61020693 33.45612542 -106.59771 32.8110682 -101.6875 32.6875 C-90.38190348 32.82145257 -79.96865172 37.65614502 -69.53491211 41.62524414 C-55.17820964 47.04689642 -38.18371587 47.15519745 -24 41 C-22.93652344 40.45988281 -21.87304688 39.91976562 -20.77734375 39.36328125 C-18 38 -18 38 -16 38 C-16 37.34 -16 36.68 -16 36 C-15.278125 35.46375 -14.55625 34.9275 -13.8125 34.375 C-10.68481787 31.7338462 -9.09207066 29.14154632 -7.11328125 25.609375 C-6.74589844 25.07828125 -6.37851563 24.5471875 -6 24 C-5.34 24 -4.68 24 -4 24 C-2.05338979 16.07451558 -1.00148167 8.08643179 0 0 Z " fill="#082646" transform="translate(122,19)"/>
<path d="M0 0 C9.15652921 2.00159332 18.30324343 2.30459444 27.64794922 2.50341797 C27.64794922 2.83341797 27.64794922 3.16341797 27.64794922 3.50341797 C3.43531045 5.98676553 3.43531045 5.98676553 -5.35205078 1.50341797 C-7.67900042 1.12810351 -10.01181763 0.78424595 -12.35205078 0.50341797 C-12.84705078 0.00841797 -12.84705078 0.00841797 -13.35205078 -0.49658203 C-15.21737388 -0.65857875 -15.21737388 -0.65857875 -17.41455078 -0.62158203 C-18.14802734 -0.62416016 -18.88150391 -0.62673828 -19.63720703 -0.62939453 C-23.24361696 -0.45296584 -26.77294292 0.02620359 -30.35205078 0.50341797 C-29.26666016 0.61298828 -28.18126953 0.72255859 -27.06298828 0.83544922 C-25.61760926 0.99500405 -24.17230027 1.15519408 -22.72705078 1.31591797 C-21.65777344 1.42129883 -21.65777344 1.42129883 -20.56689453 1.52880859 C-15.90755919 2.06313604 -12.51409885 3.21092021 -8.35205078 5.50341797 C-7.42392578 5.68904297 -6.49580078 5.87466797 -5.53955078 6.06591797 C-4.81767578 6.21029297 -4.09580078 6.35466797 -3.35205078 6.50341797 C-2.85705078 7.49341797 -2.85705078 7.49341797 -2.35205078 8.50341797 C-0.29829072 9.11707505 -0.29829072 9.11707505 2.08544922 9.50341797 C6.42877114 10.28423989 6.42877114 10.28423989 8.64794922 12.50341797 C11.00475097 13.11946447 13.38426842 13.65068181 15.77294922 14.12841797 C17.05427734 14.38880859 18.33560547 14.64919922 19.65576172 14.91748047 C20.64318359 15.11083984 21.63060547 15.30419922 22.64794922 15.50341797 C22.64794922 15.83341797 22.64794922 16.16341797 22.64794922 16.50341797 C11.04721334 16.86822098 0.36456784 12.1799394 -10.22241211 7.87817383 C-17.83228468 4.80630642 -25.10485545 3.37595329 -33.35205078 4.50341797 C-38.07452874 6.65371053 -41.47299428 9.18483322 -44.35205078 13.50341797 C-45.01205078 13.50341797 -45.67205078 13.50341797 -46.35205078 13.50341797 C-43.97504788 6.57049285 -39.88010887 2.25777978 -33.55517578 -1.32080078 C-22.87327447 -5.24184016 -10.73429282 -2.42278046 0 0 Z " fill="#237779" transform="translate(48.35205078125,48.49658203125)"/>
<path d="M0 0 C0.73734375 0.00064453 1.4746875 0.00128906 2.234375 0.00195312 C6.06492435 0.03284465 9.65176643 0.26772886 13.375 1.1875 C13.375 2.1775 13.375 3.1675 13.375 4.1875 C8.20001491 6.8708256 3.05002643 9.1572313 -2.42578125 11.16015625 C-4.6848447 12.06099263 -4.6848447 12.06099263 -6.23046875 13.80859375 C-7.625 15.1875 -7.625 15.1875 -10.625 15.1875 C-10.625 15.8475 -10.625 16.5075 -10.625 17.1875 C-12.5 19.3125 -12.5 19.3125 -14.625 21.1875 C-15.285 21.1875 -15.945 21.1875 -16.625 21.1875 C-16.625 22.8375 -16.625 24.4875 -16.625 26.1875 C-17.285 26.1875 -17.945 26.1875 -18.625 26.1875 C-18.625 26.8475 -18.625 27.5075 -18.625 28.1875 C-19.285 28.1875 -19.945 28.1875 -20.625 28.1875 C-20.67398438 28.76757812 -20.72296875 29.34765625 -20.7734375 29.9453125 C-21.22149405 34.62673092 -21.923021 38.76235459 -23.625 43.1875 C-23.955 43.1875 -24.285 43.1875 -24.625 43.1875 C-25.02868295 36.72857286 -24.2165262 32.12641422 -21.625 26.1875 C-20.965 26.1875 -20.305 26.1875 -19.625 26.1875 C-19.5425 25.465625 -19.46 24.74375 -19.375 24 C-18.07330748 19.11865304 -14.83644008 15.85474538 -10.625 13.1875 C-9.965 13.1875 -9.305 13.1875 -8.625 13.1875 C-8.295 12.1975 -7.965 11.2075 -7.625 10.1875 C-4.8579765 8.50627053 -1.9948268 7.1230844 0.90625 5.6875 C3.6731731 4.37057311 3.6731731 4.37057311 4.375 1.1875 C1.99888845 1.47166601 -0.37560496 1.76458901 -2.75 2.0625 C-3.41515625 2.14113281 -4.0803125 2.21976563 -4.765625 2.30078125 C-8.92878644 2.83138026 -12.69171292 3.72936554 -16.625 5.1875 C-16.295 4.1975 -15.965 3.2075 -15.625 2.1875 C-10.38172949 0.14845036 -5.57619855 -0.09359344 0 0 Z " fill="#390C46" transform="translate(82.625,5.8125)"/>
<path d="M0 0 C1.975519 0.98118904 3.94376921 1.97031942 5.89453125 3 C13.7804951 7.1116227 21.18917999 8.39455486 30 9 C29.01 9.33 28.02 9.66 27 10 C26.91113816 13.19902639 27.08941469 15.92677456 28 19 C23.80530429 18.40075776 19.99000166 17.42500059 16 16 C16 15.34 16 14.68 16 14 C15.278125 13.731875 14.55625 13.46375 13.8125 13.1875 C7.80057174 10.64913029 3.74831148 7.34553012 0 2 C0 1.34 0 0.68 0 0 Z " fill="#6B6590" transform="translate(50,70)"/>
<path d="M0 0 C-0.171875 1.81640625 -0.171875 1.81640625 -1 4 C-3.328125 5.52734375 -3.328125 5.52734375 -6.25 6.9375 C-10.68371472 9.20042193 -13.72850971 11.292311 -17 15 C-17.33 15 -17.66 15 -18 15 C-18 12.36 -18 9.72 -18 7 C-20.31 7 -22.62 7 -25 7 C-23.17796794 3.35593588 -18.65173462 2.4316818 -15 1 C-10.14623701 -0.49346554 -5.03383707 -0.08796997 0 0 Z " fill="#891D5D" transform="translate(87,7)"/>
<path d="M0 0 C-0.33 0.66 -0.66 1.32 -1 2 C0.95216435 3.95216435 2.53199953 4.84826645 5 6 C4.01 6.495 4.01 6.495 3 7 C4.98 7.66 6.96 8.32 9 9 C5.37671004 11.26455623 2.21846774 11.33031284 -2 11.375 C-3.216875 11.40335938 -4.43375 11.43171875 -5.6875 11.4609375 C-9 11 -9 11 -11.453125 9.1796875 C-13 7 -13 7 -12.75 3.75 C-12.5025 2.8425 -12.255 1.935 -12 1 C-10.56496445 0.63597631 -9.12683494 0.28413409 -7.6875 -0.0625 C-6.88699219 -0.25972656 -6.08648437 -0.45695312 -5.26171875 -0.66015625 C-3 -1 -3 -1 0 0 Z " fill="#8D89AD" transform="translate(89,79)"/>
<path d="M0 0 C0.33 0 0.66 0 1 0 C1.1799928 5.21979128 0.97094808 9.07262981 -1 14 C-0.34 14 0.32 14 1 14 C1.33 13.01 1.66 12.02 2 11 C5.0625 9.3125 5.0625 9.3125 8 8 C8.99 9.485 8.99 9.485 10 11 C10.33 11 10.66 11 11 11 C11 14.3 11 17.6 11 21 C8.68682039 20.69257097 6.37446648 20.37892298 4.0625 20.0625 C2.77472656 19.88847656 1.48695312 19.71445312 0.16015625 19.53515625 C-3 19 -3 19 -4 18 C-3.94926595 11.49335861 -2.5335077 5.94823548 0 0 Z " fill="#C81C56" transform="translate(47,30)"/>
<path d="M0 0 C0.33 0.33 0.66 0.66 1 1 C2.55644353 1.3224271 4.12059745 1.60799418 5.6875 1.875 C9.87975849 2.66894278 13.27701007 3.84458478 17 6 C17 6.33 17 6.66 17 7 C15.35 7 13.7 7 12 7 C12 7.66 12 8.32 12 9 C14.31 9.66 16.62 10.32 19 11 C19 11.33 19 11.66 19 12 C16.36 11.67 13.72 11.34 11 11 C10.67 10.01 10.34 9.02 10 8 C8.9275 7.87625 7.855 7.7525 6.75 7.625 C3 7 3 7 1.3125 6.03125 C-2.2405194 4.4467954 -5.90524329 4.2639389 -9.75 3.875 C-10.93916016 3.74544922 -10.93916016 3.74544922 -12.15234375 3.61328125 C-14.10083141 3.40199946 -16.05032976 3.20007533 -18 3 C-17.67 2.34 -17.34 1.68 -17 1 C-11.40259454 0.00046331 -5.68343216 -0.4228374 0 0 Z " fill="#09A47B" transform="translate(35,47)"/>
<path d="M0 0 C3.14067446 3.14067446 2.37060983 6.61159487 2.37890625 10.88891602 C2.24264669 17.37285821 0.49151553 23.02703643 -2 29 C-3.32 29 -4.64 29 -6 29 C-7.33333333 27.66666667 -8.66666667 26.33333333 -10 25 C-9.60167969 24.45472656 -9.20335938 23.90945312 -8.79296875 23.34765625 C-3.58388415 15.93326576 -0.95571195 8.98369229 0 0 Z " fill="#A09FBA" transform="translate(126,38)"/>
<path d="M0 0 C-0.22917968 1.60727327 -0.48420802 3.21087416 -0.75 4.8125 C-0.88921875 5.70582031 -1.0284375 6.59914063 -1.171875 7.51953125 C-2.168841 10.50572658 -3.3582435 11.38380344 -6 13 C-6.66 10.69 -7.32 8.38 -8 6 C-11.48809191 6.77030122 -11.48809191 6.77030122 -15 8 C-15.33 8.99 -15.66 9.98 -16 11 C-16.99 11.66 -17.98 12.32 -19 13 C-19.33 13.99 -19.66 14.98 -20 16 C-20.66 16 -21.32 16 -22 16 C-20.58794973 11.70983633 -18.50383651 9.03782149 -15.4375 5.75 C-14.22900391 4.44289063 -14.22900391 4.44289063 -12.99609375 3.109375 C-9.61905865 -0.45931179 -4.67840663 -2.33920331 0 0 Z " fill="#A2225F" transform="translate(70,14)"/>
<path d="M0 0 C0 0.66 0 1.32 0 2 C1.65 1.67 3.3 1.34 5 1 C5.66 1.99 6.32 2.98 7 4 C4.84475231 9.23417297 2.93246399 11.41174692 -2.25 13.8125 C-4.15366395 14.57496883 -6.06995353 15.30702399 -8 16 C-8.66128906 16.2475 -9.32257813 16.495 -10.00390625 16.75 C-18.44591378 19.37559197 -28.7621475 19.13822952 -37 16 C-37 15.67 -37 15.34 -37 15 C-36.03344482 15.02356567 -36.03344482 15.02356567 -35.04736328 15.04760742 C-32.07333471 15.11070901 -29.09944771 15.14922586 -26.125 15.1875 C-25.11179687 15.21263672 -24.09859375 15.23777344 -23.0546875 15.26367188 C-16.36528369 15.32799307 -10.15439874 14.82411856 -4 12 C-3.4755127 11.47043701 -2.95102539 10.94087402 -2.41064453 10.39526367 C-1 9 -1 9 2 9 C1.505 6.525 1.505 6.525 1 4 C-1.64 3.67 -4.28 3.34 -7 3 C-7 2.34 -7 1.68 -7 1 C-4 0 -4 0 0 0 Z " fill="#26B392" transform="translate(101,47)"/>
<path d="M0 0 C0.66 0.33 1.32 0.66 2 1 C1.35494404 4.48330216 0.01782732 7.09432866 -2 10 C-2.66 10 -3.32 10 -4 10 C-4 10.66 -4 11.32 -4 12 C-13.32502752 21.3491232 -26.91499339 27.02534161 -40.03125 27.1953125 C-42.18758729 27.1821641 -44.3438833 27.15852813 -46.5 27.125 C-47.60859375 27.11597656 -48.7171875 27.10695313 -49.859375 27.09765625 C-52.57314592 27.07426167 -55.28645545 27.04148175 -58 27 C-58 26.67 -58 26.34 -58 26 C-57.38068604 25.98018066 -56.76137207 25.96036133 -56.12329102 25.93994141 C-53.26932611 25.84364769 -50.41599143 25.73439903 -47.5625 25.625 C-46.58861328 25.5940625 -45.61472656 25.563125 -44.61132812 25.53125 C-38.50041915 25.28599613 -32.9292205 24.50836426 -27 23 C-27 22.34 -27 21.68 -27 21 C-26.26394531 20.82984375 -25.52789062 20.6596875 -24.76953125 20.484375 C-19.28269316 19.12172565 -15.15414659 18.02826336 -11 14 C-7.25 11 -7.25 11 -5 11 C-5 10.34 -5 9.68 -5 9 C-4.01 8.34 -3.02 7.68 -2 7 C-0.7811879 3.44327821 -0.7811879 3.44327821 0 0 Z " fill="#062542" transform="translate(116,24)"/>
<path d="M0 0 C1.32 1.65 2.64 3.3 4 5 C2.6062718 9.43458973 0.39417765 11.87378374 -3 15 C-4.23697917 13.50260417 -5.47395833 12.00520833 -6.7109375 10.5078125 C-7.75250992 9.28948839 -8.86660097 8.13339903 -10 7 C-8.90081184 6.01524786 -7.7954398 5.03739527 -6.6875 4.0625 C-6.07261719 3.51722656 -5.45773438 2.97195312 -4.82421875 2.41015625 C-3 1 -3 1 0 0 Z " fill="#D1CEDF" transform="translate(118,63)"/>
<path d="M0 0 C0.33 0 0.66 0 1 0 C1.55353075 16.70842825 1.55353075 16.70842825 -2 25 C-2.66 25 -3.32 25 -4 25 C-4.33 25.66 -4.66 26.32 -5 27 C-6.24546405 24.50907189 -5.7767578 23.58919267 -5 21 C-4.34 21 -3.68 21 -3 21 C-3 20.01 -3 19.02 -3 18 C-4.32 18 -5.64 18 -7 18 C-7 18.66 -7 19.32 -7 20 C-8.98 20.66 -10.96 21.32 -13 22 C-11.625 20 -11.625 20 -10 18 C-9.34 18 -8.68 18 -8 18 C-8 17.34 -8 16.68 -8 16 C-7.01 15.34 -6.02 14.68 -5 14 C-3.80337533 11.73105664 -3.80337533 11.73105664 -2.875 9.125 C-2.54242188 8.26132812 -2.20984375 7.39765625 -1.8671875 6.5078125 C-1.12036334 4.34807776 -0.50735788 2.22616212 0 0 Z " fill="#1F6370" transform="translate(120,18)"/>
<path d="M0 0 C0.99 0 1.98 0 3 0 C4.01384537 4.6186289 4.21517655 8.39968876 3 13 C0.5 14.8125 0.5 14.8125 -2 16 C-2.33 16.66 -2.66 17.32 -3 18 C-3.66 18 -4.32 18 -5 18 C-5.042721 16.33388095 -5.04063832 14.66617115 -5 13 C-4.67 12.67 -4.34 12.34 -4 12 C-3.76924918 10.65252916 -3.58846937 9.29622435 -3.4375 7.9375 C-3.293125 6.638125 -3.14875 5.33875 -3 4 C-2.34 4 -1.68 4 -1 4 C-0.67 2.68 -0.34 1.36 0 0 Z " fill="#DB1E5C" transform="translate(51,26)"/>
<path d="M0 0 C-5.75 4 -5.75 4 -8 4 C-8.2475 4.53625 -8.495 5.0725 -8.75 5.625 C-10.29696975 8.56424252 -12.13014369 11.25754408 -14 14 C-13.34 14 -12.68 14 -12 14 C-11.7525 13.38125 -11.505 12.7625 -11.25 12.125 C-9.79371361 9.64931313 -8.62187494 9.04874998 -6 8 C-6 10 -6 12 -6 14 C-6.99 14 -7.98 14 -9 14 C-9 14.66 -9 15.32 -9 16 C-10.98 15.67 -12.96 15.34 -15 15 C-15.33 12.36 -15.66 9.72 -16 7 C-14.35 7 -12.7 7 -11 7 C-10.67 5.35 -10.34 3.7 -10 2 C-8.68 2 -7.36 2 -6 2 C-6 1.34 -6 0.68 -6 0 C-3.50907189 -1.24546405 -2.58919267 -0.7767578 0 0 Z " fill="#151D50" transform="translate(16,48)"/>
<path d="M0 0 C1.975519 0.98118904 3.94376921 1.97031942 5.89453125 3 C10.20407663 5.24693201 14.28435316 6.82108829 19 8 C18.01 8.99 17.02 9.98 16 11 C16.99 11.99 17.98 12.98 19 14 C18.67 14.66 18.34 15.32 18 16 C17.34 16 16.68 16 16 16 C16 15.34 16 14.68 16 14 C15.278125 13.731875 14.55625 13.46375 13.8125 13.1875 C7.80057174 10.64913029 3.74831148 7.34553012 0 2 C0 1.34 0 0.68 0 0 Z " fill="#544C7E" transform="translate(50,70)"/>
<path d="M0 0 C1.2684375 0.433125 1.2684375 0.433125 2.5625 0.875 C4.95591887 1.65830072 7.37656535 2.36106632 9.8125 3 C11.3903125 3.495 11.3903125 3.495 13 4 C13.33 4.66 13.66 5.32 14 6 C16.05376006 6.61365708 16.05376006 6.61365708 18.4375 7 C22.78082192 7.78082192 22.78082192 7.78082192 25 10 C27.35680175 10.6160465 29.73631921 11.14726384 32.125 11.625 C33.40632813 11.88539062 34.68765625 12.14578125 36.0078125 12.4140625 C37.48894531 12.70410156 37.48894531 12.70410156 39 13 C39 13.33 39 13.66 39 14 C28.59895893 14.34101774 18.93545225 10.45039438 9.25 7 C8.55849854 6.7632959 7.86699707 6.5265918 7.15454102 6.28271484 C4.18842236 5.18800071 2.32777034 4.49341771 0.546875 1.8125 C0.36640625 1.214375 0.1859375 0.61625 0 0 Z " fill="#24887F" transform="translate(32,51)"/>
<path d="M0 0 C0 0.33 0 0.66 0 1 C-6.74870331 2.7453543 -13.08651566 3.29547286 -20.05859375 3.4609375 C-23.12293766 3.66456353 -23.12293766 3.66456353 -24.41015625 6.0390625 C-24.60480469 6.68617187 -24.79945312 7.33328125 -25 8 C-27.64 8 -30.28 8 -33 8 C-32.34 7.34 -31.68 6.68 -31 6 C-32.98 5.34 -34.96 4.68 -37 4 C-37 3.67 -37 3.34 -37 3 C-36.30438965 2.94465088 -35.6087793 2.88930176 -34.89208984 2.83227539 C-31.71950822 2.57833145 -28.54725817 2.32045179 -25.375 2.0625 C-24.28058594 1.97548828 -23.18617187 1.88847656 -22.05859375 1.79882812 C-20.46337891 1.66831055 -20.46337891 1.66831055 -18.8359375 1.53515625 C-17.86188965 1.456604 -16.8878418 1.37805176 -15.88427734 1.29711914 C-13.87376619 1.0900096 -11.87014074 0.80839212 -9.87744141 0.47045898 C-6.55064451 -0.0734692 -3.36502197 -0.06730044 0 0 Z " fill="#17BE8C" transform="translate(89,50)"/>
<path d="M0 0 C4.82862436 0.48286244 9.54585733 1.09142231 14.3125 2 C23.12234626 3.53513576 32.08039188 3.665074 41 4 C41 4.33 41 4.66 41 5 C16.78736123 7.48334757 16.78736123 7.48334757 8 3 C5.66742506 2.66140041 3.33425788 2.3267961 1 2 C0.67 1.34 0.34 0.68 0 0 Z " fill="#308B7A" transform="translate(35,47)"/>
<path d="M0 0 C0.73734375 0.00064453 1.4746875 0.00128906 2.234375 0.00195312 C6.06492435 0.03284465 9.65176643 0.26772886 13.375 1.1875 C13.375 2.1775 13.375 3.1675 13.375 4.1875 C5.75 6.3125 5.75 6.3125 2.375 5.1875 C3.035 3.8675 3.695 2.5475 4.375 1.1875 C1.99888845 1.47166601 -0.37560496 1.76458901 -2.75 2.0625 C-3.41515625 2.14113281 -4.0803125 2.21976563 -4.765625 2.30078125 C-8.92878644 2.83138026 -12.69171292 3.72936554 -16.625 5.1875 C-16.295 4.1975 -15.965 3.2075 -15.625 2.1875 C-10.38172949 0.14845036 -5.57619855 -0.09359344 0 0 Z " fill="#411350" transform="translate(82.625,5.8125)"/>
<path d="M0 0 C2 2 2 2 2.23046875 5.37109375 C2.22647796 6.7266323 2.21172505 8.08217206 2.1875 9.4375 C2.18685547 10.11876953 2.18621094 10.80003906 2.18554688 11.50195312 C2.15827338 14.59597947 1.98489776 17.04530673 1 20 C-0.98 19.67 -2.96 19.34 -5 19 C-4.54625 18.0925 -4.0925 17.185 -3.625 16.25 C-1.3741358 11.07621262 -0.77456492 5.54952983 0 0 Z " fill="#77729E" transform="translate(126,38)"/>
<path d="M0 0 C0.66 0.33 1.32 0.66 2 1 C2.33 1.99 2.66 2.98 3 4 C4.65 4.33 6.3 4.66 8 5 C7.67 6.32 7.34 7.64 7 9 C7.66 9.33 8.32 9.66 9 10 C4.375 12.125 4.375 12.125 1 11 C0.25486277 8.90006779 0 7.22568901 0 5 C-1.32 4.34 -2.64 3.68 -4 3 C-2.68 2.01 -1.36 1.02 0 0 Z " fill="#CCC9D9" transform="translate(98,75)"/>
<path d="M0 0 C0.928125 0.33 1.85625 0.66 2.8125 1 C5.92029291 2.14967004 5.92029291 2.14967004 9 2 C9 2.66 9 3.32 9 4 C11.64 4.66 14.28 5.32 17 6 C17 6.33 17 6.66 17 7 C14.75106046 7.10823773 12.50062425 7.18569645 10.25 7.25 C8.37054688 7.31960937 8.37054688 7.31960937 6.453125 7.390625 C3 7 3 7 0.546875 4.984375 C0.03640625 4.32953125 -0.4740625 3.6746875 -1 3 C-0.67 2.01 -0.34 1.02 0 0 Z " fill="#847EA5" transform="translate(77,83)"/>
<path d="M0 0 C0 0.66 0 1.32 0 2 C1.65 1.67 3.3 1.34 5 1 C5.66 1.99 6.32 2.98 7 4 C3.375 10.875 3.375 10.875 0 12 C-0.66 11.34 -1.32 10.68 -2 10 C-0.68 9.67 0.64 9.34 2 9 C1.67 7.35 1.34 5.7 1 4 C-1.64 3.67 -4.28 3.34 -7 3 C-7 2.34 -7 1.68 -7 1 C-4 0 -4 0 0 0 Z " fill="#11B184" transform="translate(101,47)"/>
<path d="M0 0 C0.33 0 0.66 0 1 0 C1 3.3 1 6.6 1 10 C-1.31317961 9.69257097 -3.62553352 9.37892298 -5.9375 9.0625 C-7.86916016 8.80146484 -7.86916016 8.80146484 -9.83984375 8.53515625 C-13 8 -13 8 -14 7 C-14.04080783 5.00041636 -14.04254356 2.99954746 -14 1 C-13.67 1 -13.34 1 -13 1 C-12.67 2.65 -12.34 4.3 -12 6 C-9.69 6.33 -7.38 6.66 -5 7 C-5 6.34 -5 5.68 -5 5 C-4.01 5 -3.02 5 -2 5 C-1.34 3.35 -0.68 1.7 0 0 Z " fill="#832653" transform="translate(57,41)"/>
<path d="M0 0 C0.33 0 0.66 0 1 0 C1.05434116 2.5419589 1.0938339 5.08273682 1.125 7.625 C1.14175781 8.33785156 1.15851563 9.05070312 1.17578125 9.78515625 C1.21684602 14.2612164 0.69086567 17.77949278 -1 22 C-1.93423645 18.98968256 -2.04449911 18.13349732 -1 15 C-1.66 15 -2.32 15 -3 15 C-3.6875 13.4375 -3.6875 13.4375 -4 11 C-3.07175817 8.6372026 -2.06902939 6.30252483 -1 4 C-0.62691369 2.67723944 -0.26953585 1.34767923 0 0 Z " fill="#234967" transform="translate(120,18)"/>
<path d="M0 0 C0.66 0.33 1.32 0.66 2 1 C1.65228989 3.82438211 1.26668961 4.78654393 -0.99609375 6.59765625 C-1.80175781 7.08105469 -2.60742188 7.56445312 -3.4375 8.0625 C-6.55991097 9.95198465 -7.92957454 10.89436181 -10 14 C-10.66 14 -11.32 14 -12 14 C-9.68982119 7.26197846 -6.01612141 3.69171087 0 0 Z " fill="#236478" transform="translate(14,48)"/>
<path d="M0 0 C3.82097239 0.53069061 6.06171403 1.49701566 9 4 C8.01 4.495 8.01 4.495 7 5 C8.98 5.66 10.96 6.32 13 7 C13 7.33 13 7.66 13 8 C4.42857143 8.28571429 4.42857143 8.28571429 1 6 C1 5.34 1 4.68 1 4 C0.34 3.67 -0.32 3.34 -1 3 C-0.67 2.01 -0.34 1.02 0 0 Z " fill="#9B97B3" transform="translate(85,81)"/>
<path d="M0 0 C1.32 1.65 2.64 3.3 4 5 C2.92598892 7.91517292 2.22189824 9.77810176 0 12 C-0.66 11.67 -1.32 11.34 -2 11 C-3.27536232 5.55072464 -3.27536232 5.55072464 -2 3 C-2.66 2.67 -3.32 2.34 -4 2 C-2.68 1.34 -1.36 0.68 0 0 Z " fill="#B8B3CA" transform="translate(118,63)"/>
<path d="M0 0 C-0.3125 1.875 -0.3125 1.875 -1 4 C-4 6 -4 6 -7 6 C-7 4.68 -7 3.36 -7 2 C-9.64 2 -12.28 2 -15 2 C-15 1.67 -15 1.34 -15 1 C-10.03926578 -0.32286246 -5.08888488 -0.08893197 0 0 Z " fill="#5D1D57" transform="translate(87,7)"/>
<path d="M0 0 C1.32 0 2.64 0 4 0 C4.3125 2.3125 4.3125 2.3125 4 5 C1.75 6.5625 1.75 6.5625 -1 8 C-2.36984198 9.29579647 -3.7151049 10.61992749 -5 12 C-5.33 11.01 -5.66 10.02 -6 9 C-4.38405168 6.95880212 -2.7143618 4.95927063 -1 3 C-0.67 2.01 -0.34 1.02 0 0 Z " fill="#762160" transform="translate(76,9)"/>
<path d="M0 0 C0.33 0.66 0.66 1.32 1 2 C0.236875 2.144375 -0.52625 2.28875 -1.3125 2.4375 C-4.08172908 2.9632594 -4.08172908 2.9632594 -7 4 C-8.89952346 3.91478259 -10.79663573 3.76270916 -12.6875 3.5625 C-13.68136719 3.46066406 -14.67523437 3.35882813 -15.69921875 3.25390625 C-16.45847656 3.17011719 -17.21773437 3.08632813 -18 3 C-17.67 2.34 -17.34 1.68 -17 1 C-11.31648386 -0.0149136 -5.76082132 -0.12001711 0 0 Z " fill="#18947E" transform="translate(35,47)"/>
<path d="M0 0 C0.66 0.33 1.32 0.66 2 1 C1.49339844 2.16015625 1.49339844 2.16015625 0.9765625 3.34375 C-1.52615344 9.18824271 -3.68362277 14.77712584 -5 21 C-5.33 21 -5.66 21 -6 21 C-6.49958979 13.00656336 -5.42933187 6.2049507 0 0 Z " fill="#3A0840" transform="translate(48,25)"/>
<path d="M0 0 C0.66 0.33 1.32 0.66 2 1 C-2.23695822 5.81538256 -9.25757459 9.43607288 -15.56640625 10.38671875 C-17.75 10.375 -17.75 10.375 -21 10 C-21 9.67 -21 9.34 -21 9 C-20.40574219 8.85304688 -19.81148438 8.70609375 -19.19921875 8.5546875 C-12.97395267 6.87008984 -7.78598434 4.41209293 -2.25 1.109375 C-1.5075 0.74328125 -0.765 0.3771875 0 0 Z " fill="#219285" transform="translate(106,40)"/>
<path d="M0 0 C0.33 0.66 0.66 1.32 1 2 C3.52733235 2.65555119 3.52733235 2.65555119 6 3 C6 5.31 6 7.62 6 10 C3.5625 8.8125 3.5625 8.8125 1 7 C0.3125 4.375 0.3125 4.375 0 2 C-0.66 1.67 -1.32 1.34 -2 1 C-1.34 0.67 -0.68 0.34 0 0 Z " fill="#C8205C" transform="translate(54,24)"/>
<path d="M0 0 C0.99 0 1.98 0 3 0 C3.33 0.66 3.66 1.32 4 2 C4.99 2.66 5.98 3.32 7 4 C6.34 5.32 5.68 6.64 5 8 C3.35 8 1.7 8 0 8 C0 6.35 0 4.7 0 3 C-0.66 2.67 -1.32 2.34 -2 2 C-1.34 2 -0.68 2 0 2 C0 1.34 0 0.68 0 0 Z " fill="#BAB7CB" transform="translate(95,80)"/>
<path d="M0 0 C1.65 0 3.3 0 5 0 C4.42507812 0.42023437 3.85015625 0.84046875 3.2578125 1.2734375 C0.30590549 3.53077816 -2.42670188 6.00048433 -5.1953125 8.4765625 C-7 10 -7 10 -9 11 C-9 9.68 -9 8.36 -9 7 C-8.01 7 -7.02 7 -6 7 C-5.67 5.68 -5.34 4.36 -5 3 C-3.35 2.67 -1.7 2.34 0 2 C0 1.34 0 0.68 0 0 Z " fill="#3B0A43" transform="translate(61,11)"/>
<path d="M0 0 C-5.75 4 -5.75 4 -8 4 C-8.268125 4.598125 -8.53625 5.19625 -8.8125 5.8125 C-9.98493467 7.97224808 -11.19369282 9.35790256 -13 11 C-13 9.68 -13 8.36 -13 7 C-12.34 7 -11.68 7 -11 7 C-10.67 5.35 -10.34 3.7 -10 2 C-8.68 2 -7.36 2 -6 2 C-6 1.34 -6 0.68 -6 0 C-3.50907189 -1.24546405 -2.58919267 -0.7767578 0 0 Z " fill="#0C244D" transform="translate(16,48)"/>
<path d="M0 0 C1.32 0 2.64 0 4 0 C4 0.99 4 1.98 4 3 C3.34 3 2.68 3 2 3 C2 5.31 2 7.62 2 10 C1.01 10.495 1.01 10.495 0 11 C-0.33 8.69 -0.66 6.38 -1 4 C-1.99 3.67 -2.98 3.34 -4 3 C-2.68 2.67 -1.36 2.34 0 2 C0 1.34 0 0.68 0 0 Z " fill="#127E73" transform="translate(113,36)"/>
<path d="M0 0 C3.11650396 1.50053894 6.13149298 3.06181958 9 5 C9.33 5.99 9.66 6.98 10 8 C9.34 8.66 8.68 9.32 8 10 C6.33333333 8.33333333 4.66666667 6.66666667 3 5 C2.401875 4.443125 1.80375 3.88625 1.1875 3.3125 C0 2 0 2 0 0 Z " fill="#433B70" transform="translate(50,70)"/>
<path d="M0 0 C3.71599191 -0.20086443 4.77208445 -0.1519437 8 2 C8 3.32 8 4.64 8 6 C5.33333333 5.33333333 2.66666667 4.66666667 0 4 C0 2.68 0 1.36 0 0 Z " fill="#05C282" transform="translate(64,57)"/>
<path d="M0 0 C0.99 0.33 1.98 0.66 3 1 C3 1.66 3 2.32 3 3 C1.7934375 3.4021875 1.7934375 3.4021875 0.5625 3.8125 C-0.283125 4.204375 -1.12875 4.59625 -2 5 C-2.33 5.99 -2.66 6.98 -3 8 C-3.99 8.66 -4.98 9.32 -6 10 C-6.33 10.99 -6.66 11.98 -7 13 C-7.66 13 -8.32 13 -9 13 C-7.47987323 7.59510481 -3.72614782 4.01507372 0 0 Z " fill="#AE276C" transform="translate(57,17)"/>
<path d="M0 0 C-0.99 0.495 -0.99 0.495 -2 1 C-2.33 1.99 -2.66 2.98 -3 4 C-8.28 3.34 -13.56 2.68 -19 2 C-19 1.67 -19 1.34 -19 1 C-16.77100213 0.83109082 -14.54179338 0.66496313 -12.3125 0.5 C-10.45044922 0.36078125 -10.45044922 0.36078125 -8.55078125 0.21875 C-5.68500671 0.04220063 -2.86900043 -0.04388528 0 0 Z " fill="#140C41" transform="translate(99,89)"/>
<path d="M0 0 C0.99 0.66 1.98 1.32 3 2 C2.67 4.31 2.34 6.62 2 9 C0 7 -2 5 -4 3 C-2.68 2.01 -1.36 1.02 0 0 Z " fill="#8D84AD" transform="translate(123,56)"/>
<path d="M0 0 C0.66 0.33 1.32 0.66 2 1 C2 2.65 2 4.3 2 6 C0.35 6.66 -1.3 7.32 -3 8 C-3 7.34 -3 6.68 -3 6 C-3.66 6 -4.32 6 -5 6 C-4.67 5.01 -4.34 4.02 -4 3 C-1.9375 2.3125 -1.9375 2.3125 0 2 C0 1.34 0 0.68 0 0 Z " fill="#07C584" transform="translate(101,50)"/>
<path d="M0 0 C1.65 0 3.3 0 5 0 C5 2.31 5 4.62 5 7 C4.01 7 3.02 7 2 7 C0 4 0 4 0 0 Z " fill="#B11755" transform="translate(63,15)"/>
<path d="M0 0 C-8.261959 4.59225513 -8.261959 4.59225513 -13 4 C-12.67 3.01 -12.34 2.02 -12 1 C-10.29296875 0.234375 -10.29296875 0.234375 -8.1875 -0.25 C-7.50042969 -0.42015625 -6.81335938 -0.5903125 -6.10546875 -0.765625 C-3.80500179 -1.02170666 -2.19370273 -0.69015367 0 0 Z " fill="#2C1048" transform="translate(92,12)"/>
<path d="M0 0 C2 2 2 2 2.1953125 5.4765625 C2.18201493 6.85950968 2.15816232 8.24238654 2.125 9.625 C2.11597656 10.33140625 2.10695312 11.0378125 2.09765625 11.765625 C2.07407603 13.51056098 2.03820461 15.25532295 2 17 C1.67 17 1.34 17 1 17 C-0.46619907 10.97767819 -1.32528788 6.09632423 0 0 Z " fill="#584F85" transform="translate(126,38)"/>
<path d="M0 0 C1.73003446 5.95756226 0.08554599 11.29950762 -2 17 C-2.33 17 -2.66 17 -3 17 C-3.40368295 10.54107286 -2.5915262 5.93891422 0 0 Z " fill="#450D42" transform="translate(61,32)"/>
<path d="M0 0 C0.33 1.98 0.66 3.96 1 6 C-1.97 5.67 -4.94 5.34 -8 5 C-3.375 0 -3.375 0 0 0 Z " fill="#CBC4DA" transform="translate(116,66)"/>
<path d="M0 0 C1.35439668 2.70879335 1.06501451 5.00933268 1 8 C-0.65 7.67 -2.3 7.34 -4 7 C-4 5.68 -4 4.36 -4 3 C-2 1.25 -2 1.25 0 0 Z " fill="#1B143F" transform="translate(115,78)"/>
<path d="M0 0 C0.33 0 0.66 0 1 0 C1 2.64 1 5.28 1 8 C0.01 8.33 -0.98 8.66 -2 9 C-2 11.64 -2 14.28 -2 17 C-2.33 17 -2.66 17 -3 17 C-3.40368295 10.54107286 -2.5915262 5.93891422 0 0 Z " fill="#B62867" transform="translate(47,30)"/>
<path d="M0 0 C1.44010481 0.25662245 2.8770687 0.53090821 4.3125 0.8125 C5.11300781 0.96332031 5.91351563 1.11414062 6.73828125 1.26953125 C9.23445587 2.07572236 10.32422106 3.02052002 12 5 C10.56163249 4.88541307 9.12429034 4.75790884 7.6875 4.625 C6.88699219 4.55539063 6.08648437 4.48578125 5.26171875 4.4140625 C3 4 3 4 0 2 C0 1.34 0 0.68 0 0 Z " fill="#0FAD80" transform="translate(40,49)"/>
<path d="M0 0 C0.66 0.33 1.32 0.66 2 1 C0.38405168 3.04119788 -1.2856382 5.04072937 -3 7 C-3.66 7 -4.32 7 -5 7 C-5 7.66 -5 8.32 -5 9 C-5.66 9 -6.32 9 -7 9 C-5.44499019 5.18315774 -2.96404505 2.80804268 0 0 Z " fill="#269182" transform="translate(111,48)"/>
<path d="M0 0 C-0.33 1.32 -0.66 2.64 -1 4 C-1.99 3.67 -2.98 3.34 -4 3 C-4 3.66 -4 4.32 -4 5 C-6.31 5 -8.62 5 -11 5 C-11 4.67 -11 4.34 -11 4 C-9.35 4 -7.7 4 -6 4 C-6 3.01 -6 2.02 -6 1 C-3 0 -3 0 0 0 Z " fill="#B41A51" transform="translate(56,43)"/>
<path d="M0 0 C1.98 0 3.96 0 6 0 C6 0.66 6 1.32 6 2 C2.17010894 3.80230168 -0.78121808 4.19622241 -5 4 C-4.0409375 3.8453125 -4.0409375 3.8453125 -3.0625 3.6875 C-2.381875 3.460625 -1.70125 3.23375 -1 3 C-0.67 2.01 -0.34 1.02 0 0 Z " fill="#171340" transform="translate(91,74)"/>
<path d="M0 0 C0.99 0.33 1.98 0.66 3 1 C2.34 2.65 1.68 4.3 1 6 C0.01 6 -0.98 6 -2 6 C-2.66 5.34 -3.32 4.68 -4 4 C-2.68 2.68 -1.36 1.36 0 0 Z " fill="#261A50" transform="translate(111,62)"/>
<path d="M0 0 C0 0.66 0 1.32 0 2 C-0.66 2 -1.32 2 -2 2 C-2 2.66 -2 3.32 -2 4 C-4.97 3.505 -4.97 3.505 -8 3 C-7.67 2.01 -7.34 1.02 -7 0 C-4.3333581 -1.33332095 -2.83319697 -0.67102033 0 0 Z " fill="#181045" transform="translate(104,70)"/>
<path d="M0 0 C0.66 0.33 1.32 0.66 2 1 C1.35494404 4.48330216 0.01782732 7.09432866 -2 10 C-2.66 10 -3.32 10 -4 10 C-4.33 10.66 -4.66 11.32 -5 12 C-5 11.01 -5 10.02 -5 9 C-4.01 8.34 -3.02 7.68 -2 7 C-0.7811879 3.44327821 -0.7811879 3.44327821 0 0 Z " fill="#142C53" transform="translate(116,24)"/>
<path d="M0 0 C-2.61941217 1.74627478 -4.03824877 2.38722388 -7 3 C-6.67 3.66 -6.34 4.32 -6 5 C-8.4375 4.625 -8.4375 4.625 -11 4 C-11.33 3.34 -11.66 2.68 -12 2 C-7.8803623 0.70756464 -4.33168317 -0.26252625 0 0 Z " fill="#121747" transform="translate(24,53)"/>
<path d="M0 0 C0.33 0.66 0.66 1.32 1 2 C0.67 2.66 0.34 3.32 0 4 C0.99 4 1.98 4 3 4 C3 5.32 3 6.64 3 8 C1.68 7.67 0.36 7.34 -1 7 C-1.625 4.625 -1.625 4.625 -2 2 C-1.34 1.34 -0.68 0.68 0 0 Z " fill="#F1F0F7" transform="translate(108,71)"/>
<path d="M0 0 C0 0.66 0 1.32 0 2 C-1.65002828 3.35386936 -3.3174387 4.68678142 -5 6 C-5.33 6.66 -5.66 7.32 -6 8 C-6.66 8 -7.32 8 -8 8 C-5.18918919 0 -5.18918919 0 0 0 Z " fill="#334F79" transform="translate(10,54)"/>
<path d="M0 0 C0.66 0.66 1.32 1.32 2 2 C0.3125 3.625 0.3125 3.625 -2 5 C-4.75 4.1875 -4.75 4.1875 -7 3 C-6.67 2.34 -6.34 1.68 -6 1 C-3.0625 0.25 -3.0625 0.25 0 0 Z " fill="#07AB7A" transform="translate(105,45)"/>
<path d="M0 0 C1.32 0.33 2.64 0.66 4 1 C3.67 2.65 3.34 4.3 3 6 C2.34 6 1.68 6 1 6 C0.67 6.66 0.34 7.32 0 8 C0 5.36 0 2.72 0 0 Z " fill="#A22366" transform="translate(60,26)"/>
<path d="M0 0 C1.32 0 2.64 0 4 0 C4 1.65 4 3.3 4 5 C2.02 5 0.04 5 -2 5 C-1.34 3.35 -0.68 1.7 0 0 Z " fill="#7C1C5A" transform="translate(76,9)"/>
<path d="M0 0 C3.96 0 7.92 0 12 0 C12 0.99 12 1.98 12 3 C10.68 3 9.36 3 8 3 C8 2.34 8 1.68 8 1 C5.36 1 2.72 1 0 1 C0 0.67 0 0.34 0 0 Z " fill="#6C1C56" transform="translate(72,8)"/>
<path d="M0 0 C1.32 0.66 2.64 1.32 4 2 C4 2.99 4 3.98 4 5 C2.68 5 1.36 5 0 5 C-0.33 4.01 -0.66 3.02 -1 2 C-0.67 1.34 -0.34 0.68 0 0 Z " fill="#7C759D" transform="translate(77,83)"/>
<path d="M0 0 C1.65 0.99 3.3 1.98 5 3 C4.67 4.98 4.34 6.96 4 9 C2 6 2 6 1 3 C0.34 2.34 -0.32 1.68 -1 1 C-0.67 0.67 -0.34 0.34 0 0 Z " fill="#BA2866" transform="translate(55,31)"/>
<path d="M0 0 C0 0.99 0 1.98 0 3 C-2.70879335 4.35439668 -5.00933268 4.06501451 -8 4 C-4.5 0 -4.5 0 0 0 Z " fill="#381758" transform="translate(96,7)"/>
<path d="M0 0 C-4.625 2.125 -4.625 2.125 -8 1 C-8.33 0.34 -8.66 -0.32 -9 -1 C-5.22102349 -2.0497157 -3.35080929 -2.10976881 0 0 Z " fill="#C5C1DD" transform="translate(107,85)"/>
<path d="M0 0 C0 0.66 0 1.32 0 2 C0.66 2.33 1.32 2.66 2 3 C-0.97 3 -3.94 3 -7 3 C-7 2.34 -7 1.68 -7 1 C-4 0 -4 0 0 0 Z " fill="#0BB988" transform="translate(101,47)"/>
<path d="M0 0 C1.875 0.25 1.875 0.25 4 1 C5.25 3.0625 5.25 3.0625 6 5 C4.02 4.34 2.04 3.68 0 3 C0 2.01 0 1.02 0 0 Z " fill="#8781A3" transform="translate(77,80)"/>
<path d="M0 0 C0.33 0 0.66 0 1 0 C1 1.98 1 3.96 1 6 C0.34 6 -0.32 6 -1 6 C-1.33 6.66 -1.66 7.32 -2 8 C-3.24546405 5.50907189 -2.7767578 4.58919267 -2 2 C-1.34 2 -0.68 2 0 2 C0 1.34 0 0.68 0 0 Z " fill="#226D76" transform="translate(117,37)"/>
<path d="M0 0 C0 0.66 0 1.32 0 2 C-2.70879335 3.35439668 -5.00933268 3.06501451 -8 3 C-6.23110084 -0.53779831 -3.70375662 0 0 0 Z " fill="#8D2665" transform="translate(70,11)"/>
</svg>
