<?xml version="1.0" encoding="UTF-8"?>
<svg version="1.1" xmlns="http://www.w3.org/2000/svg" width="2000" height="393">
<path d="M0 0 C1.37671875 -0.01933594 1.37671875 -0.01933594 2.78125 -0.0390625 C7.09189294 1.01382442 9.23838171 3.66806752 11.60302734 7.3359375 C12.76398327 9.34623263 13.85623583 11.38325799 14.9375 13.4375 C15.81525206 15.05992503 16.69560028 16.68094738 17.578125 18.30078125 C18.04798828 19.16396973 18.51785156 20.0271582 19.00195312 20.91650391 C21.64798359 25.70057528 24.42069415 30.41008183 27.1875 35.125 C32.1323559 43.56728878 37.05228889 52.02304048 41.9375 60.5 C42.55971436 61.57958984 43.18192871 62.65917969 43.82299805 63.77148438 C45.08511517 65.9618252 46.34707785 68.15225502 47.60888672 70.34277344 C50.73680148 75.77159942 53.86858448 81.19819281 57 86.625 C58.25001879 88.79165583 59.50001878 90.9583225 60.75 93.125 C61.36875 94.1975 61.9875 95.27 62.625 96.375 C78.5625 124 78.5625 124 94.5 151.625 C97.1908148 148.39233025 99.43884808 145.19722803 101.4609375 141.51171875 C102.28053955 140.02998169 102.28053955 140.02998169 103.11669922 138.51831055 C103.69693848 137.46039307 104.27717773 136.40247559 104.875 135.3125 C109.61560963 126.75592938 114.4226912 118.24837472 119.375 109.8125 C124.451689 101.15647009 129.46774584 92.46777147 134.4375 83.75 C141.45653522 71.44044275 148.52471515 59.15994943 155.61474609 46.89111328 C157.56557806 43.51138912 159.51183506 40.1290644 161.45703125 36.74609375 C172.68789804 17.22127907 172.68789804 17.22127907 177.8125 8.625 C178.16747559 8.02598877 178.52245117 7.42697754 178.88818359 6.80981445 C180.2847 4.48636641 181.57355349 2.55144651 183.5 0.625 C186.1796875 0.2890625 186.1796875 0.2890625 189.375 0.25 C190.94894531 0.20746094 190.94894531 0.20746094 192.5546875 0.1640625 C196.25552256 0.74323828 197.05999655 1.843698 199.5 4.625 C200.60550407 6.31011012 201.65034203 8.0359729 202.64453125 9.7890625 C203.52443726 11.32844482 203.52443726 11.32844482 204.42211914 12.89892578 C205.35785767 14.55770752 205.35785767 14.55770752 206.3125 16.25 C206.97644453 17.41559378 207.64108941 18.58078888 208.30639648 19.74560547 C209.68813926 22.1660872 211.0668567 24.58825342 212.44335938 27.01171875 C215.62377689 32.6060799 218.84425991 38.17734101 222.0625 43.75 C222.99425049 45.36600098 222.99425049 45.36600098 223.94482422 47.01464844 C228.08472898 54.19077078 232.25433194 61.34903176 236.4375 68.5 C241.85921178 77.76999777 247.20204915 87.08331752 252.51922607 96.41345215 C257.72045129 105.5378284 262.98027878 114.62632774 268.28344727 123.69189453 C274.43766742 134.21584625 280.52369996 144.77880137 286.60888672 155.34277344 C289.73680148 160.77159942 292.86858448 166.19819281 296 171.625 C297.25001879 173.79165583 298.50001878 175.9583225 299.75 178.125 C300.678125 179.73375 300.678125 179.73375 301.625 181.375 C328.5 227.95833333 355.375 274.54166667 382.25 321.125 C382.86931396 322.1984668 383.48862793 323.27193359 384.12670898 324.37792969 C385.37104998 326.53480903 386.61535364 328.69170992 387.85961914 330.84863281 C391.73298604 337.56294252 395.60735829 344.27666977 399.48413086 350.98901367 C400.76954564 353.21716235 402.05296702 355.44646241 403.33422852 357.67700195 C405.92361596 362.18301492 408.51641653 366.68169214 411.21875 371.12109375 C411.60297119 371.76143555 411.98719238 372.40177734 412.38305664 373.06152344 C413.33683493 374.64533864 414.3061931 376.21974593 415.27734375 377.79296875 C416.84186894 381.41686896 417.06150883 383.71184932 416.5 387.625 C414.88271209 390.36029234 413.99263556 391.81365952 411.5 393.625 C408.00834254 394.51282879 404.59726562 394.4268327 401.01013851 394.37446022 C399.93682713 394.38258167 398.86351576 394.39070312 397.75767979 394.39907068 C394.13610408 394.4190727 390.51605862 394.39604779 386.89451599 394.3734436 C384.28204626 394.37892103 381.66958092 394.38702195 379.05712658 394.39753091 C373.36435539 394.41614546 367.67193701 394.41238512 361.97916985 394.39406586 C353.51407647 394.36689989 345.04925485 394.37398563 336.58414191 394.38798306 C321.46743968 394.41185931 306.35090402 394.40164923 291.23421095 394.37742651 C278.00617976 394.35637383 264.77820537 394.34727301 251.55015755 394.35001755 C250.23520758 394.35026964 250.23520758 394.35026964 248.89369296 394.35052682 C245.33537683 394.35123129 241.77706073 394.35199931 238.21874463 394.35285798 C204.82386767 394.36079211 171.4290912 394.33533301 138.03424299 394.29380485 C108.34742896 394.25706141 78.66071128 394.24544072 48.97387695 394.25634766 C47.06762143 394.25704052 45.1613659 394.25773272 43.25511038 394.25842424 C42.31270572 394.25876623 41.37030107 394.25910822 40.39933871 394.25946057 C35.65566541 394.26116759 30.91199209 394.26281516 26.16831875 394.26439857 C25.23251916 394.26471274 24.29671956 394.2650269 23.33256241 394.26535058 C-1.45467573 394.27332549 -26.24190456 394.2623866 -51.02913707 394.24537599 C-53.69533811 394.24356187 -56.36153915 394.24175056 -59.02774019 394.23994553 C-60.79651696 394.2387433 -62.56529372 394.23752607 -64.33407047 394.23629371 C-76.67938709 394.22784162 -89.02468549 394.22669834 -101.37000407 394.2305047 C-117.27639032 394.23538443 -133.18267885 394.22729722 -149.08903832 394.19608469 C-157.50661708 394.17994915 -165.92403307 394.1748068 -174.34162163 394.18536941 C-180.61464009 394.19199798 -186.88744548 394.17784036 -193.16042339 394.15531926 C-195.70742802 394.14943083 -198.25445885 394.15037637 -200.801457 394.15860541 C-204.24663863 394.16873125 -207.69086553 394.1545634 -211.13597965 394.13395119 C-212.13959302 394.14274416 -213.1432064 394.15153713 -214.1772323 394.16059655 C-220.84380349 394.08390679 -220.84380349 394.08390679 -224.08134502 391.81975305 C-226.23009585 388.49549345 -226.89615266 385.50561027 -226.5 381.625 C-223.62132852 374.30504116 -219.18421491 367.5011999 -215.1875 360.75 C-209.91826579 351.78422773 -204.71105813 342.78549099 -199.5625 333.75 C-198.21127478 331.38001587 -196.85969032 329.01023694 -195.5078125 326.640625 C-195.17394531 326.05541077 -194.84007812 325.47019653 -194.49609375 324.86724854 C-189.15198425 315.50566195 -183.75204314 306.1761549 -178.35888672 296.84277344 C-175.23675395 291.43829355 -172.11858796 286.03152588 -169 280.625 C-167.75001878 278.4583225 -166.50001879 276.29165583 -165.25 274.125 C-164.321875 272.51625 -164.321875 272.51625 -163.375 270.875 C-97.75 157.125 -97.75 157.125 -95.87524414 153.87548828 C-94.6243552 151.70723736 -93.37354148 149.53894303 -92.12280273 147.37060547 C-89.01201665 141.97782085 -85.89995762 136.58577907 -82.78515625 131.1953125 C-75.96497363 119.38870516 -69.1767674 107.56473 -62.42263794 95.72027588 C-57.26583392 86.68028292 -52.04456231 77.67974679 -46.78662109 68.69824219 C-42.67442403 61.66370107 -38.61184228 54.60172752 -34.57461548 47.5239563 C-33.56906102 45.76149964 -32.56239428 43.99968283 -31.55541992 42.23803711 C-28.48183319 36.85924865 -25.4140527 31.47743193 -22.36732483 26.08337402 C-21.34271006 24.27187978 -20.31452276 22.4624673 -19.28491211 20.65380859 C-18.00318615 18.40130888 -16.72760114 16.14529976 -15.45922852 13.88525391 C-7.4713539 -0.10493475 -7.4713539 -0.10493475 0 0 Z M-0.5 31.625 C-0.87584229 32.27645996 -1.25168457 32.92791992 -1.63891602 33.59912109 C-47.50927734 113.1077474 -93.37963867 192.6163737 -139.25 272.125 C-139.86883057 273.19766113 -140.48766113 274.27032227 -141.12524414 275.37548828 C-142.37435518 277.54057071 -143.62354129 279.70560982 -144.87280273 281.87060547 C-148.01202309 287.31115706 -151.14990563 292.75247216 -154.28515625 298.1953125 C-160.30747524 308.64706539 -166.34715391 319.08772412 -172.4375 329.5 C-177.40101796 337.99448167 -182.33182677 346.5073371 -187.22537231 355.04229736 C-187.94538394 356.2975022 -188.66629912 357.55218921 -189.38815308 358.80633545 C-190.39299404 360.55292493 -191.39385121 362.30180452 -192.39453125 364.05078125 C-192.97050049 365.05536377 -193.54646973 366.05994629 -194.13989258 367.0949707 C-195.59816613 369.6350452 -195.59816613 369.6350452 -196.5 372.625 C-175.12529249 372.92884615 -153.75094157 373.15800399 -132.37451172 373.29855824 C-122.44864665 373.36555919 -112.52412423 373.4568781 -102.59912109 373.60571289 C-93.94712012 373.73539582 -85.29609142 373.81918051 -76.64314556 373.84815043 C-72.06192833 373.86508371 -67.48349213 373.90478645 -62.90316772 373.99949074 C-58.58811391 374.08798431 -54.27697467 374.11490883 -49.96109962 374.09539986 C-48.38071178 374.0989661 -46.80018839 374.12469925 -45.22058678 374.17467117 C-40.41702709 374.31913528 -36.09607965 374.23098438 -31.5 372.625 C-27.73938622 368.67674166 -25.75365111 364.59747929 -23.5 359.625 C-22.26876946 357.45334089 -21.01999729 355.2914364 -19.74609375 353.14453125 C-18.47454154 350.91000298 -17.20507618 348.67428614 -15.9375 346.4375 C-14.53234523 343.96682403 -13.12548727 341.49711894 -11.71875 339.02734375 C-11.36582382 338.40724426 -11.01289764 337.78714478 -10.64927673 337.14825439 C-7.10215944 330.91861915 -3.52320336 324.7074978 0.0625 318.5 C0.98397827 316.90442261 0.98397827 316.90442261 1.92407227 315.27661133 C3.16292223 313.13190413 4.40193541 310.9872912 5.64111328 308.84277344 C8.76324605 303.43829355 11.88141204 298.03152588 15 292.625 C16.24998122 290.4583225 17.49998121 288.29165583 18.75 286.125 C19.36875 285.0525 19.9875 283.98 20.625 282.875 C56.25 221.125 56.25 221.125 58.12890625 217.86962891 C59.36750447 215.72179874 60.60450752 213.57304782 61.83984375 211.42333984 C64.77149121 206.32627096 67.71900809 201.24042535 70.7232666 196.18585205 C72.14654384 193.78902638 73.5607998 191.38693792 74.97436523 188.984375 C75.97998889 187.28383931 76.99866177 185.59104201 78.01757812 183.8984375 C78.62021484 182.87234375 79.22285156 181.84625 79.84375 180.7890625 C80.38193359 179.88623535 80.92011719 178.9834082 81.47460938 178.05322266 C82.66716297 175.75322612 82.66716297 175.75322612 82.33276367 173.61572266 C81.31236872 171.17646717 80.13047719 168.91422813 78.83203125 166.609375 C78.27588135 165.6181665 77.71973145 164.62695801 77.14672852 163.60571289 C76.54143311 162.53957764 75.9361377 161.47344238 75.3125 160.375 C74.37071899 158.70522095 74.37071899 158.70522095 73.40991211 157.00170898 C68.04697604 147.52239329 62.5700557 138.11071542 57.0625 128.71484375 C53.3678669 122.40929581 49.71147319 116.08205564 46.0625 109.75 C45.43996338 108.66984619 44.81742676 107.58969238 44.17602539 106.47680664 C42.91423174 104.28703666 41.65259466 102.09717645 40.39111328 99.90722656 C36.64430021 93.40423729 32.8928437 86.90392422 29.140625 80.40405273 C25.92263426 74.82864765 22.70942912 69.25055089 19.50390625 63.66796875 C10.41678975 47.39365374 10.41678975 47.39365374 0.5 31.625 C0.17 31.625 -0.16 31.625 -0.5 31.625 Z M189.5 31.625 C188.58026569 33.04387494 187.71374392 34.49722321 186.8671875 35.9609375 C186.31619385 36.90952637 185.7652002 37.85811523 185.19750977 38.83544922 C184.29536743 40.40190186 184.29536743 40.40190186 183.375 42 C182.74972412 43.07910645 182.12444824 44.15821289 181.48022461 45.27001953 C179.81499327 48.14597006 178.15309319 51.02378657 176.4932251 53.90283203 C174.917947 56.63423046 173.33958115 59.36384388 171.76171875 62.09375 C168.63428838 67.50785032 165.51198701 72.92489159 162.39111328 78.34277344 C159.26319852 83.77159942 156.13141552 89.19819281 153 94.625 C151.74998121 96.79165583 150.49998122 98.9583225 149.25 101.125 C141.75 114.125 141.75 114.125 139.87329102 117.37792969 C138.62895002 119.53480903 137.38464636 121.69170992 136.14038086 123.84863281 C132.26693807 130.56307407 128.39273717 137.27707563 124.51538086 143.98925781 C123.23089566 146.21619128 121.94907975 148.4446669 120.67016602 150.67480469 C118.0708985 155.20406933 115.46642014 159.71990267 112.7109375 164.15625 C112.31769287 164.80110352 111.92444824 165.44595703 111.51928711 166.11035156 C110.53682562 167.71297663 109.53323105 169.30259842 108.52734375 170.890625 C107.26360204 173.56889655 107.26360204 173.56889655 107.9296875 176.3125 C110.2340416 181.17342606 112.9326401 185.75749403 115.6875 190.375 C116.96419778 192.53867549 118.24021671 194.70275166 119.515625 196.8671875 C120.17498047 197.98319336 120.83433594 199.09919922 121.51367188 200.24902344 C124.68925356 205.6462633 127.8137656 211.07264 130.9375 216.5 C132.19658348 218.68491376 133.45569823 220.86980949 134.71484375 223.0546875 C135.33987793 224.13975586 135.96491211 225.22482422 136.60888672 226.34277344 C139.73680146 231.77159938 142.86853731 237.19822007 146 242.625 C149.76363919 249.14733275 153.52644622 255.67013762 157.28515625 262.1953125 C163.30747329 272.64706199 169.34669337 283.08799548 175.4375 293.5 C180.51275362 302.1776265 185.52231393 310.8912091 190.5 319.625 C195.60755023 328.58490461 200.74257892 337.52783887 205.9375 346.4375 C206.46794922 347.34822266 206.99839844 348.25894531 207.54492188 349.19726562 C208.57261393 350.95593071 209.61623432 352.70541304 210.67776585 354.44386196 C212.00847891 356.7669344 213.13670935 358.97989352 214.23030758 361.40599918 C217.96485271 369.2918639 217.96485271 369.2918639 224.95300484 373.98623466 C229.26197908 374.47606782 233.34503539 374.486074 237.66821289 374.32788086 C239.29513149 374.32364407 240.92207871 374.32603593 242.54898071 374.33451843 C246.94547867 374.33880647 251.33578289 374.25093045 255.73084569 374.14590907 C260.33093647 374.05184511 264.93118515 374.04330609 269.53208923 374.02552795 C278.23485627 373.97898792 286.93478153 373.85602196 295.63629955 373.70528561 C305.54643681 373.5373562 315.45671317 373.45508614 325.36792004 373.37985408 C345.74686351 373.2232542 366.12325245 372.95958887 386.5 372.625 C385.33139604 369.66721486 384.15369481 366.82422484 382.609375 364.04296875 C382.23723877 363.37136719 381.86510254 362.69976562 381.48168945 362.0078125 C381.07523193 361.28335937 380.66877441 360.55890625 380.25 359.8125 C379.81453857 359.03261719 379.37907715 358.25273437 378.93041992 357.44921875 C374.12754585 348.89146158 369.16206012 340.42882282 364.203125 331.9609375 C360.46365411 325.57218008 356.75874966 319.16383924 353.0625 312.75 C352.44028564 311.67041016 351.81807129 310.59082031 351.17700195 309.47851562 C349.91488483 307.2881748 348.65292215 305.09774498 347.39111328 302.90722656 C344.26319852 297.47840058 341.13141552 292.05180719 338 286.625 C336.74998121 284.45834417 335.49998122 282.2916775 334.25 280.125 C333.63125 279.0525 333.0125 277.98 332.375 276.875 C236.75 111.125 236.75 111.125 234.87475586 107.87451172 C233.62564482 105.70942929 232.37645871 103.54439018 231.12719727 101.37939453 C227.98797691 95.93884294 224.85009437 90.49752784 221.71484375 85.0546875 C215.47872075 74.23135833 209.22808398 63.41678649 202.9375 52.625 C202.37796631 51.6644873 201.81843262 50.70397461 201.24194336 49.71435547 C199.66629267 47.01493524 198.08438717 44.31930016 196.5 41.625 C195.93941895 40.6659375 195.37883789 39.706875 194.80126953 38.71875 C194.25970215 37.8009375 193.71813477 36.883125 193.16015625 35.9375 C192.67297119 35.10863281 192.18578613 34.27976563 191.68383789 33.42578125 C191.29317139 32.83152344 190.90250488 32.23726562 190.5 31.625 C190.17 31.625 189.84 31.625 189.5 31.625 Z M94.5 195.625 C94.17950684 196.19605469 93.85901367 196.76710937 93.52880859 197.35546875 C86.76667374 209.39192528 79.92357766 221.37493062 72.94482422 233.28710938 C68.41084063 241.03686973 63.94444303 248.82373011 59.5 256.625 C53.98753141 266.29990784 48.41575301 275.93782363 42.7890625 285.546875 C38.30833615 293.21074178 33.8951831 300.91192839 29.5 308.625 C24.49923323 317.39904264 19.46879174 326.15448602 14.375 334.875 C13.81538574 335.8335791 13.25577148 336.7921582 12.67919922 337.77978516 C9.63569049 342.98733294 6.579783 348.18738875 3.515625 353.3828125 C2.86480957 354.48979492 2.21399414 355.59677734 1.54345703 356.73730469 C0.28770718 358.87294238 -0.97159786 361.00649458 -2.23486328 363.13769531 C-3.07380127 364.5661377 -3.07380127 364.5661377 -3.9296875 366.0234375 C-4.42710449 366.86567871 -4.92452148 367.70791992 -5.43701172 368.57568359 C-6.65348227 370.53612882 -6.65348227 370.53612882 -6.5 372.625 C60.49 372.625 127.48 372.625 196.5 372.625 C195.07181199 368.34043596 193.98701477 365.4339992 191.76953125 361.703125 C191.22176025 360.77387207 190.67398926 359.84461914 190.10961914 358.88720703 C189.51656982 357.89317871 188.92352051 356.89915039 188.3125 355.875 C187.03580222 353.71132451 185.75978329 351.54724834 184.484375 349.3828125 C183.82501953 348.26680664 183.16566406 347.15080078 182.48632812 346.00097656 C179.31074644 340.6037367 176.1862344 335.17736 173.0625 329.75 C171.80341652 327.56508624 170.54430177 325.38019051 169.28515625 323.1953125 C168.66012207 322.11024414 168.03508789 321.02517578 167.39111328 319.90722656 C164.26319852 314.47840058 161.13141552 309.05180719 158 303.625 C156.74998121 301.45834417 155.49998122 299.2916775 154.25 297.125 C153.321875 295.51625 153.321875 295.51625 152.375 293.875 C131.75 258.125 131.75 258.125 129.8737793 254.87280273 C128.6279423 252.71340605 127.38201182 250.55406331 126.13598633 248.39477539 C122.94651047 242.86732403 119.75883115 237.33884879 116.57421875 231.80859375 C112.88908793 225.41042677 109.19741347 219.01607637 105.5 212.625 C104.96874512 211.7057373 104.43749023 210.78647461 103.89013672 209.83935547 C102.47269666 207.39038719 101.05004585 204.94454816 99.625 202.5 C99.21403076 201.78900146 98.80306152 201.07800293 98.37963867 200.34545898 C97.44826737 198.75493219 96.47882574 197.18677084 95.5 195.625 C95.17 195.625 94.84 195.625 94.5 195.625 Z " fill="#81FFD9" transform="translate(1580.5,-0.625)"/>
<path d="M0 0 C5.61 0 11.22 0 17 0 C32.19786605 27.29464982 45.4186122 55.41938254 58 84 C60.44948976 80.9788882 62.02786855 77.98842508 63.57421875 74.42578125 C64.06881592 73.29954346 64.56341309 72.17330566 65.07299805 71.01293945 C65.33511078 70.41148102 65.59722351 69.81002258 65.86727905 69.19033813 C76.16326106 45.61841193 87.14649764 22.29279316 100 0 C105.61 0 111.22 0 117 0 C119.22478186 20.29270728 120.98612078 40.58375864 122.46551514 60.94244385 C122.67974192 63.87414513 122.89870107 66.80548541 123.11763477 69.73683834 C126.20610421 111.12997599 126.20610421 111.12997599 126 127 C120.06 127 114.12 127 108 127 C107.06782622 119.53564209 106.6512644 112.09869673 106.31640625 104.5859375 C106.22397603 102.6179079 106.13153989 100.64987856 106.03879452 98.68186378 C105.81385167 93.8890308 105.59509209 89.09591435 105.37768555 84.30273438 C104.61298138 67.4950964 103.63109534 50.74813272 102 34 C94.1600946 49.35660117 86.50423452 64.77014916 79.4375 80.5 C79.15485291 81.12850861 78.87220581 81.75701721 78.58099365 82.40457153 C76.10974407 87.9106716 73.66375417 93.42676476 71.30126953 98.98046875 C71.02589859 99.62769897 70.75052765 100.2749292 70.46681213 100.94177246 C69.70283439 102.74312114 68.94320655 104.54631287 68.18383789 106.34960938 C67 109 67 109 66 110 C63.46950598 110.07313567 60.96695163 110.09247527 58.4375 110.0625 C57.37112305 110.05573242 57.37112305 110.05573242 56.28320312 110.04882812 C54.52209987 110.03700864 52.76103964 110.01907263 51 110 C47.04206887 102.31071178 43.49393344 94.47136859 40 86.5625 C32.12069726 68.82228207 23.72465038 51.34072519 15 34 C13.10048159 57.18249928 11.57983595 80.34599666 10.64697266 103.58886719 C10.59171417 104.93426323 10.59171417 104.93426323 10.53533936 106.30683899 C10.4676808 107.96897831 10.40284152 109.63123625 10.34161377 111.29362488 C10.1285993 116.56763877 9.63075291 121.75902264 9 127 C3.06 127 -2.88 127 -9 127 C-9.1786475 114.86137265 -8.51283108 102.80230942 -7.8125 90.6875 C-7.71754242 89.02179962 -7.71754242 89.02179962 -7.6206665 87.32244873 C-6.53726331 68.55979947 -5.0629446 49.84240288 -3.375 31.125 C-3.26499664 29.9021933 -3.15499329 28.6793866 -3.04165649 27.41952515 C-2.72725347 23.94855444 -2.40811079 20.47806995 -2.0859375 17.0078125 C-1.99123672 15.97885361 -1.89653595 14.94989471 -1.79896545 13.88975525 C-1.70852463 12.93500809 -1.6180838 11.98026093 -1.52490234 10.99658203 C-1.44734711 10.17191437 -1.36979187 9.3472467 -1.28988647 8.49758911 C-0.95957603 5.65171719 -0.47099928 2.82599569 0 0 Z " fill="#FEFFFF" transform="translate(1198,204)"/>
<path d="M0 0 C15 0 15 0 19.875 4.3125 C21.28227968 6.18449704 22.65714348 8.08126463 24 10 C25.44721527 11.75920552 26.9057547 13.50915125 28.375 15.25 C37.85422807 26.96350019 47.04364279 38.88241054 56 51 C56.78528076 52.05960937 56.78528076 52.05960937 57.58642578 53.140625 C66.21900536 64.82231467 74.06566119 76.79332491 82 89 C82.33 59.63 82.66 30.26 83 0 C89.27 0 95.54 0 102 0 C102 41.91 102 83.82 102 127 C96.39 127 90.78 127 85 127 C79.5483099 119.47804784 79.5483099 119.47804784 77.77734375 115.51171875 C74.52893285 108.76136853 70.31862549 102.68289426 66.125 96.5 C65.33060268 95.31831087 64.53673736 94.13626393 63.7434082 92.95385742 C57.63714362 83.86795141 51.42351059 74.8647796 45 66 C44.44892578 65.2378418 43.89785156 64.47568359 43.33007812 63.69042969 C41.55935426 61.24754142 39.78129546 58.81018872 38 56.375 C37.47889648 55.65957031 36.95779297 54.94414062 36.42089844 54.20703125 C30.82742792 46.61322428 24.90864493 39.38580616 19 32 C18.67 63.35 18.34 94.7 18 127 C12.06 127 6.12 127 0 127 C0 85.09 0 43.18 0 0 Z " fill="#FEFFFF" transform="translate(467,204)"/>
<path d="M0 0 C15 0 15 0 18.703125 2.3515625 C20.02539062 3.90966797 20.02539062 3.90966797 21.25 5.625 C21.72630859 6.21039551 22.20261719 6.79579102 22.69335938 7.39892578 C24.17295224 9.2357123 25.58526105 11.11302552 27 13 C27.9173012 14.15468998 28.83910584 15.30581829 29.765625 16.453125 C31.6129928 18.75360832 33.43042658 21.07337054 35.2265625 23.4140625 C37.56134988 26.45144027 39.9591828 29.43156618 42.37695312 32.40307617 C57.22504398 50.70910735 69.90656749 70.35985124 83 90 C83.33 60.3 83.66 30.6 84 0 C89.94 0 95.88 0 102 0 C102 41.91 102 83.82 102 127 C96.72 127 91.44 127 86 127 C82.34782312 123.24119022 80.72935924 121.01336303 78.5 116.5 C77.26745902 114.28658526 76.03033807 112.07571576 74.7890625 109.8671875 C74.17063477 108.72733398 73.55220703 107.58748047 72.91503906 106.41308594 C69.85429292 100.95805902 66.38040057 95.80141429 62.875 90.625 C62.20339844 89.62364014 61.53179688 88.62228027 60.83984375 87.59057617 C47.72682538 68.10796664 33.4129011 49.53087284 19 31 C18.67 62.68 18.34 94.36 18 127 C12.06 127 6.12 127 0 127 C0 85.09 0 43.18 0 0 Z " fill="#FEFFFF" transform="translate(599,204)"/>
<path d="M0 0 C8.71505859 9.24825838 10.41771471 19.5599559 10.1796875 31.81640625 C9.75283489 41.47917768 6.01193548 48.07905577 -0.63671875 54.98046875 C-4.82938311 58.69836569 -9.33544171 62.15234375 -15.0859375 62.15234375 C-14.48007813 62.98894531 -13.87421875 63.82554687 -13.25 64.6875 C17.9140625 107.89622133 17.9140625 107.89622133 17.9140625 116.15234375 C10.9840625 116.15234375 4.0540625 116.15234375 -3.0859375 116.15234375 C-4.5709375 113.42984375 -6.0559375 110.70734375 -7.5859375 107.90234375 C-14.68226181 95.07375357 -23.00268747 83.40745245 -31.88427734 71.77124023 C-33.00083052 70.26700128 -34.04679202 68.71106197 -35.0859375 67.15234375 C-37.69790041 66.6422181 -37.69790041 66.6422181 -40.75 66.640625 C-41.7601416 66.60751221 -42.7702832 66.57439941 -43.81103516 66.5402832 C-45.09800293 66.51538818 -46.3849707 66.49049316 -47.7109375 66.46484375 C-51.7946875 66.36171875 -55.8784375 66.25859375 -60.0859375 66.15234375 C-60.0859375 82.65234375 -60.0859375 99.15234375 -60.0859375 116.15234375 C-66.3559375 116.15234375 -72.6259375 116.15234375 -79.0859375 116.15234375 C-79.0859375 74.90234375 -79.0859375 33.65234375 -79.0859375 -8.84765625 C-57.57497561 -17.45204101 -18.01189314 -15.95435478 0 0 Z M-60.0859375 4.15234375 C-60.0859375 19.66234375 -60.0859375 35.17234375 -60.0859375 51.15234375 C-36.52477937 52.34458618 -36.52477937 52.34458618 -15.0859375 44.15234375 C-10.52161095 39.52491591 -9.24786653 34.26256148 -8.95703125 27.890625 C-9.27393354 21.15885205 -11.61991424 15.59493982 -16.21484375 10.65625 C-23.01293791 5.1922286 -31.9056308 4.01283728 -40.359375 4.0546875 C-41.40013184 4.05718506 -42.44088867 4.05968262 -43.51318359 4.06225586 C-44.81594238 4.07135986 -46.11870117 4.08046387 -47.4609375 4.08984375 C-51.6271875 4.11046875 -55.7934375 4.13109375 -60.0859375 4.15234375 Z " fill="#FEFFFF" transform="translate(96.0859375,72.84765625)"/>
<path d="M0 0 C6.27 0 12.54 0 19 0 C19 17.16 19 34.32 19 52 C39.13 52 59.26 52 80 52 C80 34.84 80 17.68 80 0 C85.94 0 91.88 0 98 0 C98 41.91 98 83.82 98 127 C92.06 127 86.12 127 80 127 C80 107.86 80 88.72 80 69 C59.87 69 39.74 69 19 69 C19 88.14 19 107.28 19 127 C12.73 127 6.46 127 0 127 C0 85.09 0 43.18 0 0 Z " fill="#FFFFFF" transform="translate(376,62)"/>
<path d="M0 0 C6.27 0 12.54 0 19 0 C19 17.49 19 34.98 19 53 C39.13 53 59.26 53 80 53 C80 35.51 80 18.02 80 0 C85.94 0 91.88 0 98 0 C98 41.91 98 83.82 98 127 C92.06 127 86.12 127 80 127 C80 107.86 80 88.72 80 69 C59.87 69 39.74 69 19 69 C19 88.14 19 107.28 19 127 C12.73 127 6.46 127 0 127 C0 85.09 0 43.18 0 0 Z " fill="#FFFFFF" transform="translate(943,204)"/>
<path d="M0 0 C5.94 0 11.88 0 18 0 C33.95559493 31.98627501 46.54790552 65.53355753 59 99 C59.26655396 99.71631592 59.53310791 100.43263184 59.80773926 101.1706543 C61.38681183 105.42086363 62.9499455 109.67660071 64.5 113.9375 C64.86786621 114.94321045 65.23573242 115.9489209 65.61474609 116.98510742 C66.09935303 118.3363269 66.09935303 118.3363269 66.59375 119.71484375 C66.86896484 120.47917725 67.14417969 121.24351074 67.42773438 122.03100586 C68 124 68 124 68 127 C61.4 127 54.8 127 48 127 C46.53615149 123.1686928 45.07878047 119.33512639 43.625 115.5 C43.2125 114.42234375 42.8 113.3446875 42.375 112.234375 C41.77558594 110.64882812 41.77558594 110.64882812 41.1640625 109.03125 C40.79748535 108.06767578 40.4309082 107.10410156 40.05322266 106.11132812 C38.82162752 102.47306935 37.93159425 98.72637701 37 95 C18.19 95 -0.62 95 -20 95 C-20.99 98.63 -21.98 102.26 -23 106 C-24.17086166 109.37709226 -25.36242165 112.72148229 -26.625 116.0625 C-27.09292969 117.32223633 -27.09292969 117.32223633 -27.5703125 118.60742188 C-29.82874504 124.65749008 -29.82874504 124.65749008 -31 127 C-37.27 127 -43.54 127 -50 127 C-47.74959083 116.87315876 -47.74959083 116.87315876 -46.52636719 113.58642578 C-46.25082001 112.83782791 -45.97527283 112.08923004 -45.69137573 111.31794739 C-45.39619049 110.53497787 -45.10100525 109.75200836 -44.796875 108.9453125 C-44.48275665 108.09881638 -44.16863831 107.25232025 -43.84500122 106.38017273 C-42.82014081 103.62585058 -41.78580092 100.8752249 -40.75 98.125 C-40.39407776 97.17515228 -40.03815552 96.22530457 -39.67144775 95.24667358 C-27.62412702 63.10243025 -15.36629209 30.73258418 0 0 Z M8 22 C1.97690123 35.89309336 -3.81628499 49.84308987 -9.1875 64 C-9.4311026 64.63900238 -9.6747052 65.27800476 -9.9256897 65.93637085 C-12.74861717 72.30060861 -12.74861717 72.30060861 -14 79 C0.85 79 15.7 79 31 79 C29.05122579 72.50408598 27.06800202 66.29109305 24.56640625 60.02734375 C24.24719711 59.21938858 23.92798798 58.41143341 23.59910583 57.57899475 C22.9295899 55.88677108 22.25810757 54.19532415 21.5847168 52.50463867 C20.56419596 49.94175915 19.55015483 47.37638919 18.53710938 44.81054688 C17.88058692 43.15349579 17.22369813 41.49658979 16.56640625 39.83984375 C16.11933067 38.7097715 16.11933067 38.7097715 15.66322327 37.55686951 C13.57089067 32.31150415 11.32647656 27.14560147 9 22 C8.67 22 8.34 22 8 22 Z " fill="#FEFFFF" transform="translate(173,62)"/>
<path d="M0 0 C5.94 0 11.88 0 18 0 C33.43815553 33.00571181 46.73168449 66.6931298 59.5 100.8125 C59.92744507 101.95160828 60.35489014 103.09071655 60.79528809 104.26434326 C62.00474007 107.49311574 63.20687107 110.72450542 64.40625 113.95703125 C64.77103455 114.93010727 65.13581909 115.90318329 65.51165771 116.90574646 C65.84103333 117.79899124 66.17040894 118.69223602 66.50976562 119.61254883 C66.94367615 120.78059807 66.94367615 120.78059807 67.38635254 121.97224426 C68 124 68 124 68 127 C61.4 127 54.8 127 48 127 C45.00670872 120.04499968 42.23052186 113.0675604 39.6875 105.9375 C39.42114746 105.19959229 39.15479492 104.46168457 38.88037109 103.70141602 C37.81570064 100.67832515 37 98.22939001 37 95 C18.19 95 -0.62 95 -20 95 C-20.99 98.3 -21.98 101.6 -23 105 C-23.6599962 106.93696817 -24.33715255 108.86831677 -25.04296875 110.7890625 C-25.39423828 111.74941406 -25.74550781 112.70976562 -26.10742188 113.69921875 C-26.46384766 114.66472656 -26.82027344 115.63023437 -27.1875 116.625 C-27.73954102 118.13126953 -27.73954102 118.13126953 -28.30273438 119.66796875 C-29.19922181 122.11293448 -30.09923898 124.5566055 -31 127 C-37.6 127 -44.2 127 -51 127 C-39.13634426 92.72721676 -26.38777005 58.85994091 -12 25.5625 C-11.48453613 24.36753906 -10.96907227 23.17257813 -10.43798828 21.94140625 C-7.18975016 14.49994957 -3.68596373 7.23480083 0 0 Z M8 22 C1.73888423 35.63499342 -4.04458162 49.34648831 -9.1875 63.4375 C-9.4311026 64.10219299 -9.6747052 64.76688599 -9.9256897 65.45172119 C-12.74567568 72.06484087 -12.74567568 72.06484087 -14 79 C0.85 79 15.7 79 31 79 C26.77637557 66.93250162 22.55197784 55.01190751 17.75 43.1875 C17.22877195 41.89273695 16.70793917 40.59781472 16.1875 39.30273438 C13.85311599 33.50753329 11.47403446 27.7369506 9 22 C8.67 22 8.34 22 8 22 Z " fill="#FEFFFF" transform="translate(541,62)"/>
<path d="M0 0 C5.94 0 11.88 0 18 0 C23.23811523 10.29363821 28.15836472 20.60237483 32.625 31.25 C32.91891632 31.94697998 33.21283264 32.64395996 33.51565552 33.36206055 C43.83815163 57.86677169 53.23508589 82.72120791 62.375 107.6875 C62.87784012 109.06083496 62.87784012 109.06083496 63.39083862 110.46191406 C64.3333526 113.04012029 65.27293656 115.61936758 66.2109375 118.19921875 C66.4945665 118.97653854 66.7781955 119.75385834 67.07041931 120.55473328 C69 125.88267428 69 125.88267428 69 127 C62.07 127 55.14 127 48 127 C42.555 111.655 42.555 111.655 37 96 C18.19 95.67 -0.62 95.34 -20 95 C-20.66 97.97 -21.32 100.94 -22 104 C-22.59364506 105.89941894 -23.22511083 107.78784974 -23.91015625 109.65625 C-24.26013672 110.6153125 -24.61011719 111.574375 -24.97070312 112.5625 C-25.33099609 113.531875 -25.69128906 114.50125 -26.0625 115.5 C-26.42666016 116.5003125 -26.79082031 117.500625 -27.16601562 118.53125 C-29.85925752 125.85925752 -29.85925752 125.85925752 -31 127 C-32.41570123 127.08651611 -33.835595 127.10704904 -35.25390625 127.09765625 C-36.10791016 127.09443359 -36.96191406 127.09121094 -37.84179688 127.08789062 C-38.73962891 127.07951172 -39.63746094 127.07113281 -40.5625 127.0625 C-41.46419922 127.05798828 -42.36589844 127.05347656 -43.29492188 127.04882812 C-45.53001314 127.03700225 -47.76497437 127.0205222 -50 127 C-49.23474888 122.09185904 -47.51792066 117.58771396 -45.82421875 112.94140625 C-45.50308105 112.05306595 -45.18194336 111.16472565 -44.85107422 110.24946594 C-43.80127852 107.35206694 -42.74508872 104.45706291 -41.6875 101.5625 C-41.14653183 100.07813446 -41.14653183 100.07813446 -40.59463501 98.56378174 C-34.39363062 81.56734166 -27.92842777 64.71443848 -21 48 C-20.53255371 46.86981445 -20.06510742 45.73962891 -19.58349609 44.57519531 C-13.35920964 29.57593172 -6.80974112 14.74212936 0 0 Z M8 23 C1.97173359 36.286461 -3.52497545 49.71003117 -8.625 63.375 C-8.89429321 64.09534424 -9.16358643 64.81568848 -9.44104004 65.55786133 C-12.47515271 72.17251572 -12.47515271 72.17251572 -14 79 C0.85 79 15.7 79 31 79 C28.46231711 70.53201098 28.46231711 70.53201098 25.546875 62.2421875 C25.09562256 61.04625977 24.64437012 59.85033203 24.17944336 58.61816406 C23.70346467 57.37025096 23.22697519 56.12253256 22.75 54.875 C22.50766632 54.23880737 22.26533264 53.60261475 22.01565552 52.94714355 C19.11109717 45.33149674 16.17072017 37.73325436 12.9375 30.25 C12.66325195 29.60788574 12.38900391 28.96577148 12.10644531 28.30419922 C10.76468944 25.02565433 10.76468944 25.02565433 8 23 Z " fill="#FEFFFF" transform="translate(758,62)"/>
<path d="M0 0 C5.61 0 11.22 0 17 0 C35.06099087 34.70543344 48.45635314 71.80018196 62 108.4375 C62.30767303 109.26789795 62.61534607 110.0982959 62.93234253 110.95385742 C63.79223912 113.27898573 64.64717966 115.60586202 65.5 117.93359375 C65.75540054 118.62424423 66.01080109 119.31489471 66.27394104 120.026474 C68 124.76842629 68 124.76842629 68 127 C61.07 127 54.14 127 47 127 C41.555 111.655 41.555 111.655 36 96 C17.52 95.67 -0.96 95.34 -20 95 C-20.99 98.63 -21.98 102.26 -23 106 C-23.64375996 107.90233042 -24.31564163 109.79599568 -25.04296875 111.66796875 C-25.39423828 112.57998047 -25.74550781 113.49199219 -26.10742188 114.43164062 C-26.46384766 115.34107422 -26.82027344 116.25050781 -27.1875 117.1875 C-27.55552734 118.13947266 -27.92355469 119.09144531 -28.30273438 120.07226562 C-29.19698746 122.38338724 -30.09779063 124.69197271 -31 127 C-37.6 127 -44.2 127 -51 127 C-36.46095377 83.9886549 -20.32397224 40.64794448 0 0 Z M8 23 C3.10663641 33.15199873 -1.24995768 43.40396953 -5.25 53.9375 C-5.77034384 55.29510959 -6.29117632 56.652532 -6.8125 58.00976562 C-7.79372037 60.56691022 -8.76869647 63.12614261 -9.74023438 65.68701172 C-10.49278666 67.66610755 -11.2521236 69.64267507 -12.02539062 71.61376953 C-13.17837798 74.57251869 -14 76.7922945 -14 80 C0.85 80 15.7 80 31 80 C26.77637557 67.93250162 22.55197784 56.01190751 17.75 44.1875 C17.22877195 42.89273695 16.70793917 41.59781472 16.1875 40.30273438 C13.85311599 34.50753329 11.47403446 28.7369506 9 23 C8.67 23 8.34 23 8 23 Z " fill="#FEFFFF" transform="translate(768,204)"/>
<path d="M0 0 C5.61 0 11.22 0 17 0 C34.71528854 34.4085412 48.18908454 70.65489045 61.5 106.9375 C61.83150055 107.83938049 62.1630011 108.74126099 62.50454712 109.67047119 C63.43424426 112.20461233 64.3588705 114.74053124 65.28125 117.27734375 C65.55853439 118.03364578 65.83581879 118.78994781 66.12150574 119.56916809 C68 124.76800881 68 124.76800881 68 127 C61.4 127 54.8 127 48 127 C45.00670872 120.04499968 42.23052186 113.0675604 39.6875 105.9375 C39.42114746 105.19959229 39.15479492 104.46168457 38.88037109 103.70141602 C37.81570064 100.67832515 37 98.22939001 37 95 C18.19 95 -0.62 95 -20 95 C-20.99 98.63 -21.98 102.26 -23 106 C-23.57137032 107.81275239 -24.1605276 109.6203292 -24.7890625 111.4140625 C-25.09070312 112.27644531 -25.39234375 113.13882813 -25.703125 114.02734375 C-26.00734375 114.88457031 -26.3115625 115.74179687 -26.625 116.625 C-26.93695312 117.52089844 -27.24890625 118.41679687 -27.5703125 119.33984375 C-29.86883416 125.86883416 -29.86883416 125.86883416 -31 127 C-32.4887186 127.08669432 -33.981445 127.10703494 -35.47265625 127.09765625 C-36.37177734 127.09443359 -37.27089844 127.09121094 -38.19726562 127.08789062 C-39.61555664 127.07532227 -39.61555664 127.07532227 -41.0625 127.0625 C-42.01189453 127.05798828 -42.96128906 127.05347656 -43.93945312 127.04882812 C-46.29303065 127.0370011 -48.64648477 127.02052025 -51 127 C-48.87052301 121.18150652 -46.74094771 115.36305425 -44.60449219 109.54711914 C-44.34974121 108.85360855 -44.09499023 108.16009796 -43.83251953 107.4455719 C-43.31074624 106.02517881 -42.78893589 104.60479934 -42.26708984 103.18443298 C-40.69121794 98.89226044 -39.12692175 94.59608149 -37.5703125 90.296875 C-26.40728771 59.60032274 -13.77793367 29.60790002 0 0 Z M8 23 C1.93489898 35.616037 -3.20173202 48.50812006 -8.0625 61.625 C-8.35748383 62.41814606 -8.65246765 63.21129211 -8.95639038 64.0284729 C-9.79982734 66.30114444 -10.63761595 68.57579394 -11.47265625 70.8515625 C-11.7284848 71.54345169 -11.98431335 72.23534088 -12.24789429 72.94819641 C-13.55968146 76.3849968 -13.55968146 76.3849968 -14 80 C0.85 80 15.7 80 31 80 C29.05122579 73.50408598 27.06800202 67.29109305 24.56640625 61.02734375 C24.24719711 60.21938858 23.92798798 59.41143341 23.59910583 58.57899475 C22.9295899 56.88677108 22.25810757 55.19532415 21.5847168 53.50463867 C20.56419596 50.94175915 19.55015483 48.37638919 18.53710938 45.81054688 C17.88058692 44.15349579 17.22369813 42.49658979 16.56640625 40.83984375 C16.11933067 39.7097715 16.11933067 39.7097715 15.66322327 38.55686951 C13.57089067 33.31150415 11.32647656 28.14560147 9 23 C8.67 23 8.34 23 8 23 Z " fill="#FEFFFF" transform="translate(1108,204)"/>
<path d="M0 0 C5.61 0 11.22 0 17 0 C32.06138642 28.94148763 43.47826245 59.52782992 55 90 C55.50481903 91.33499542 55.50481903 91.33499542 56.01983643 92.69696045 C58.21268578 98.50185965 60.39244241 104.31154527 62.5625 110.125 C62.84448242 110.87832611 63.12646484 111.63165222 63.41699219 112.4078064 C64.19970117 114.50227657 64.97772042 116.59841757 65.75390625 118.6953125 C66.19033447 119.87109863 66.6267627 121.04688477 67.07641602 122.25830078 C68 125 68 125 68 127 C61.07 127 54.14 127 47 127 C41.555 111.655 41.555 111.655 36 96 C17.52 95.67 -0.96 95.34 -20 95 C-20.99 98.3 -21.98 101.6 -23 105 C-23.6599962 106.93696817 -24.33715255 108.86831677 -25.04296875 110.7890625 C-25.39423828 111.74941406 -25.74550781 112.70976562 -26.10742188 113.69921875 C-26.46384766 114.66472656 -26.82027344 115.63023437 -27.1875 116.625 C-27.73954102 118.13126953 -27.73954102 118.13126953 -28.30273438 119.66796875 C-29.19922181 122.11293448 -30.09923898 124.5566055 -31 127 C-37.6 127 -44.2 127 -51 127 C-36.36182015 83.96375125 -20.35061737 40.70123473 0 0 Z M8 23 C2.9425279 32.47545419 -0.92768923 42.20936182 -4.6875 52.25 C-5.26048785 53.76584431 -5.83405282 55.28147061 -6.40820312 56.796875 C-7.70170389 60.21513164 -8.9924765 63.63434248 -10.2684021 67.0592041 C-10.78497811 68.4295861 -11.31296903 69.79569123 -11.84902954 71.15856934 C-13.52438856 75.45112721 -13.52438856 75.45112721 -14 80 C0.85 80 15.7 80 31 80 C26.77637557 67.93250162 22.55197784 56.01190751 17.75 44.1875 C17.22877195 42.89273695 16.70793917 41.59781472 16.1875 40.30273438 C13.85311599 34.50753329 11.47403446 28.7369506 9 23 C8.67 23 8.34 23 8 23 Z " fill="#FEFFFF" transform="translate(143,204)"/>
<path d="M0 0 C5.94 0 11.88 0 18 0 C33.91356685 33.86914007 47.61083921 68.54923605 60.625 103.625 C61.00106384 104.63565521 61.37712769 105.64631042 61.7645874 106.68759155 C62.82047766 109.53172441 63.8688487 112.3784912 64.9140625 115.2265625 C65.22873474 116.07435776 65.54340698 116.92215302 65.86761475 117.79563904 C66.15058411 118.57286819 66.43355347 119.35009735 66.72509766 120.15087891 C66.97280914 120.82567291 67.22052063 121.50046692 67.47573853 122.19570923 C68 124 68 124 68 127 C61.4 127 54.8 127 48 127 C37 99.07692308 37 99.07692308 37 95 C18.19 95 -0.62 95 -20 95 C-20.66 97.97 -21.32 100.94 -22 104 C-22.59364506 105.89941894 -23.22511083 107.78784974 -23.91015625 109.65625 C-24.26013672 110.6153125 -24.61011719 111.574375 -24.97070312 112.5625 C-25.33099609 113.531875 -25.69128906 114.50125 -26.0625 115.5 C-26.42666016 116.5003125 -26.79082031 117.500625 -27.16601562 118.53125 C-29.85925752 125.85925752 -29.85925752 125.85925752 -31 127 C-32.41570123 127.08651611 -33.835595 127.10704904 -35.25390625 127.09765625 C-36.10791016 127.09443359 -36.96191406 127.09121094 -37.84179688 127.08789062 C-38.73962891 127.07951172 -39.63746094 127.07113281 -40.5625 127.0625 C-41.46419922 127.05798828 -42.36589844 127.05347656 -43.29492188 127.04882812 C-45.53001634 127.03700223 -47.76496493 127.01968245 -50 127 C-48.13913405 119.77408688 -45.96143236 112.77805503 -43.33203125 105.796875 C-42.98026825 104.85280289 -42.62850525 103.90873077 -42.26608276 102.93605042 C-41.12118511 99.87162935 -39.96776774 96.81052556 -38.8125 93.75 C-38.21666611 92.16631119 -38.21666611 92.16631119 -37.60879517 90.55062866 C-26.07364214 59.92545335 -13.64555714 29.74451069 0 0 Z M8 23 C1.72829389 37.2469388 -4.35181523 51.52135399 -9.75 66.125 C-10.17974121 67.28555908 -10.60948242 68.44611816 -11.05224609 69.6418457 C-13.14243716 74.69534006 -13.14243716 74.69534006 -14 80 C0.85 80 15.7 80 31 80 C28.54534281 71.81780937 25.84682645 63.96347347 22.8125 56 C22.45241348 55.05104355 22.45241348 55.05104355 22.08505249 54.08291626 C18.08411464 43.55517329 13.76784889 33.20510923 9 23 C8.67 23 8.34 23 8 23 Z " fill="#FEFFFF" transform="translate(382,204)"/>
<path d="M0 0 C-0.65690619 3.78239671 -1.720131 7.21841526 -3.0625 10.8125 C-3.42472656 11.78832031 -3.78695312 12.76414062 -4.16015625 13.76953125 C-4.57587891 14.87361328 -4.57587891 14.87361328 -5 16 C-8.56488711 15.38140599 -11.70716025 14.40362373 -15.0625 13.0625 C-28.15342476 8.22378453 -41.76878689 7.21351464 -55 12 C-67.22756122 17.80728501 -72.50410297 26.64857132 -77.0546875 39.01953125 C-81.88592114 54.25189187 -80.31863072 73.13285286 -73.5625 87.4375 C-68.43476992 96.92153173 -61.06853791 102.32111115 -51 106 C-46.44005319 107.19564609 -41.99170342 107.14845465 -37.3125 107.125 C-36.56033203 107.12886719 -35.80816406 107.13273437 -35.03320312 107.13671875 C-29.24014712 107.12685823 -23.82751186 106.58275119 -18 106 C-18 90.49 -18 74.98 -18 59 C-11.73 59 -5.46 59 1 59 C1 78.8 1 98.6 1 119 C-12.54511814 122.01002625 -24.18472189 124.1874872 -37.75 124.25 C-39.40515625 124.2809375 -39.40515625 124.2809375 -41.09375 124.3125 C-56.70456887 124.38579023 -71.28872509 119.71930887 -82.875 109.0625 C-97.8896035 92.96277029 -100.73634334 71.77458052 -100.13623047 50.61035156 C-99.60281408 40.38940522 -96.91185307 30.96714321 -92 22 C-91.49597656 21.07445313 -90.99195313 20.14890625 -90.47265625 19.1953125 C-82.49682975 5.64579078 -70.36471151 -2.30507573 -55.5625 -6.9375 C-37.18482742 -10.86855296 -16.73221532 -8.51821871 0 0 Z " fill="#FEFFFF" transform="translate(349,67)"/>
<path d="M0 0 C-1.98 5.28 -3.96 10.56 -6 16 C-9.00353414 14.99882195 -12.00715345 13.99753169 -15 12.96484375 C-15.99 12.62582031 -16.98 12.28679687 -18 11.9375 C-18.99 11.59589844 -19.98 11.25429687 -21 10.90234375 C-33.19964617 7.23291893 -46.34683388 7.88590672 -58 13 C-61.00138305 14.71296039 -63.49715387 16.62344427 -66 19 C-66.81210938 19.76957031 -66.81210938 19.76957031 -67.640625 20.5546875 C-76.96438622 30.39643545 -79.96334371 44.76449868 -80.375 57.9375 C-79.91283962 72.24521502 -76.73732918 87.75073123 -66 98 C-55.54460111 105.82705462 -43.86981827 108.07714783 -31 107 C-25.06 106.01 -25.06 106.01 -19 105 C-18.67 89.49 -18.34 73.98 -18 58 C-12.06 58 -6.12 58 0 58 C0 78.13 0 98.26 0 119 C-52.28945623 129.45789125 -52.28945623 129.45789125 -75 115 C-88.57164772 104.66062419 -96.50725346 91.54926178 -99.62280273 74.8137207 C-101.61955297 59.91886866 -101.66688108 43.0701066 -96 29 C-95.57589844 27.94167969 -95.15179688 26.88335937 -94.71484375 25.79296875 C-91.35551722 18.35379161 -86.78399552 12.7047627 -81 7 C-80.3503125 6.34 -79.700625 5.68 -79.03125 5 C-59.48462447 -13.58531607 -22.46411373 -13.10406635 0 0 Z " fill="#FEFFFF" transform="translate(319,210)"/>
<path d="M0 0 C6.93 0 13.86 0 21 0 C22.08796875 3.08214844 23.1759375 6.16429688 24.296875 9.33984375 C28.85019313 22.23167455 33.42069988 35.11737747 38 48 C38.47191772 49.32874146 38.47191772 49.32874146 38.95336914 50.68432617 C45.11435916 68.02454566 51.43529815 85.20865423 59 102 C71.32734999 72.73799511 81.81240208 42.85031533 91.95068359 12.77026367 C92.34781052 11.59667801 92.34781052 11.59667801 92.75296021 10.39938354 C93.25004627 8.92972654 93.74469471 7.45924211 94.23654175 5.98782349 C95.88772143 1.11227857 95.88772143 1.11227857 97 0 C98.4887186 -0.08669432 99.981445 -0.10703494 101.47265625 -0.09765625 C102.37177734 -0.09443359 103.27089844 -0.09121094 104.19726562 -0.08789062 C105.61555664 -0.07532227 105.61555664 -0.07532227 107.0625 -0.0625 C108.4865918 -0.05573242 108.4865918 -0.05573242 109.93945312 -0.04882812 C112.29303065 -0.0370011 114.64648477 -0.02052025 117 0 C114.1970103 9.85599989 110.75365606 19.47793521 107.3125 29.125 C106.98630676 30.03995239 106.66011353 30.95490479 106.32403564 31.89758301 C96.98739233 58.00946309 86.67985696 83.73009797 75.6875 109.1875 C75.4163739 109.81660278 75.1452478 110.44570557 74.86590576 111.09387207 C69.42522859 123.67797312 69.42522859 123.67797312 67 127 C65.09887695 127.56762695 65.09887695 127.56762695 62.98828125 127.48828125 C62.23095703 127.47216797 61.47363281 127.45605469 60.69335938 127.43945312 C59.90767578 127.39755859 59.12199219 127.35566406 58.3125 127.3125 C57.51521484 127.28994141 56.71792969 127.26738281 55.89648438 127.24414062 C53.93018666 127.18526944 51.96485509 127.09558755 50 127 C45.0685888 117.52731006 40.81286472 107.84333331 36.6875 98 C36.34739899 97.19086151 36.00729797 96.38172302 35.65689087 95.54806519 C24.50130422 68.9593748 14.09340383 42.04444269 4.4375 14.875 C4.20308197 14.2166214 3.96866394 13.5582428 3.72714233 12.87991333 C0 2.37545061 0 2.37545061 0 0 Z " fill="#FEFFFF" transform="translate(600,62)"/>
<path d="M0 0 C32.34 0 64.68 0 98 0 C98 5.61 98 11.22 98 17 C84.8 17 71.6 17 58 17 C58 53.3 58 89.6 58 127 C51.73 127 45.46 127 39 127 C39 90.7 39 54.4 39 17 C26.13 17 13.26 17 0 17 C0 11.39 0 5.78 0 0 Z " fill="#FFFFFF" transform="translate(828,204)"/>
<path d="M0 0 C6.27 0 12.54 0 19 0 C19.06803697 12.01428134 19.12296609 24.02843269 19.15543652 36.04286385 C19.17102822 41.62288756 19.19214665 47.20277153 19.22631836 52.78271484 C19.25914493 58.17736033 19.27690174 63.57187222 19.28463173 68.96660995 C19.2901337 71.01488215 19.30087651 73.06314784 19.31719017 75.11136246 C19.56803814 107.94021866 19.56803814 107.94021866 8.875 119.6875 C0.0656801 127.94977434 -11.03231653 130.39007822 -22.75 130.3125 C-23.62962402 130.30758545 -24.50924805 130.3026709 -25.41552734 130.29760742 C-35.83038243 130.11084112 -46.30262224 128.11588516 -55 122 C-56.484375 120.26171875 -56.484375 120.26171875 -57 118 C-55.98613427 115.5453777 -54.97276745 113.50453746 -53.625 111.25 C-53.28210937 110.64800781 -52.93921875 110.04601562 -52.5859375 109.42578125 C-51.73822182 107.94227881 -50.87094495 106.46998513 -50 105 C-46.9534055 106.17864796 -44.0616274 107.4509966 -41.1875 109 C-32.59220568 113.31374322 -24.0646063 114.27903999 -14.75 111.75 C-9.14221841 109.87204523 -5.99735139 107.95908308 -3.25 102.5625 C-1.13375894 96.53121298 -0.83699851 91.13447772 -0.79467773 84.8034668 C-0.78477814 83.88590103 -0.77487854 82.96833527 -0.76467896 82.02296448 C-0.73316099 78.99840857 -0.70834493 75.97383697 -0.68359375 72.94921875 C-0.66301585 70.84885761 -0.64201915 68.74850053 -0.62062073 66.64814758 C-0.56548648 61.1260813 -0.5160391 55.60397817 -0.46777344 50.08184814 C-0.41749524 44.44450612 -0.36184217 38.80721745 -0.30664062 33.16992188 C-0.19916481 22.11332518 -0.09819322 11.05668304 0 0 Z " fill="#FFFFFF" transform="translate(60,204)"/>
</svg>
