<?xml version="1.0" encoding="UTF-8"?>
<svg version="1.1" xmlns="http://www.w3.org/2000/svg" width="230" height="219">
<path d="M0 0 C75.9 0 151.8 0 230 0 C230 72.27 230 144.54 230 219 C154.1 219 78.2 219 0 219 C0 146.73 0 74.46 0 0 Z " fill="#FEFDFE" transform="translate(0,0)"/>
<path d="M0 0 C3.83536835 2.23211527 6.09869255 3.83826058 7.85546875 8.01171875 C8.82742187 7.9653125 9.799375 7.91890625 10.80078125 7.87109375 C43.02878858 6.8300707 74.23918994 18.15272399 98.0078125 39.85546875 C107.33589701 48.64505777 114.55141102 58.49597821 119.79296875 70.19921875 C120.21703003 71.1423291 120.21703003 71.1423291 120.6496582 72.10449219 C124.86187831 82.09801347 125.13593282 92.04797682 125.05078125 102.76953125 C125.04704231 104.16771236 125.04419951 105.56589612 125.04220581 106.96408081 C125.03463858 110.61038692 125.01505121 114.25652889 124.99279785 117.902771 C124.97218884 121.63698101 124.96317219 125.37121803 124.953125 129.10546875 C124.93179736 136.4076262 124.89774707 143.70964931 124.85546875 151.01171875 C115.89189118 151.10519588 106.92848634 151.17587171 97.96452427 151.21896744 C93.80030933 151.23967141 89.63643253 151.26766594 85.47241211 151.31347656 C81.43934337 151.35755902 77.40659579 151.38098431 73.37330437 151.39122772 C71.84941502 151.39850909 70.32553934 151.41272006 68.80179024 151.43463898 C54.10131002 151.63731772 40.312233 149.22761968 26.85546875 143.01171875 C26.85546875 140.01171875 26.85546875 140.01171875 28.796875 137.93359375 C35.87934245 132.064962 35.87934245 132.064962 40.29296875 131.82421875 C42.18760067 132.45576272 44.08056113 133.09372266 45.95703125 133.77734375 C58.25903908 137.76085105 74.38980719 138.22736326 86.45703125 133.265625 C96.84263947 127.83601549 105.07089609 119.19438259 108.85546875 108.01171875 C112.86601984 93.54308569 109.08705106 80.74933546 102.25 68.0234375 C88.08471312 44.23517663 63.82803258 31.81578184 37.85546875 25.01171875 C28.33746128 22.75147593 18.59396482 22.45018184 8.85546875 22.01171875 C8.56285156 22.62789062 8.27023438 23.2440625 7.96875 23.87890625 C6.18819022 27.29008394 3.95966317 29.39827741 0.60546875 31.26171875 C-4.64563235 32.69383723 -9.07363584 32.87950022 -13.89453125 30.32421875 C-17.52664314 27.73983144 -20.16985669 25.36718226 -21.89453125 21.19921875 C-22.65697166 14.52786518 -22.66816519 10.38320474 -18.76171875 4.77734375 C-13.97124538 -0.4528349 -6.70808109 -3.09133792 0 0 Z " fill="#774BBC" transform="translate(105.14453125,67.98828125)"/>
<path d="M0 0 C13.90763955 -0.68829657 27.45142531 5.13046759 37.99609375 13.9296875 C48.73176695 24.05298719 56.49626501 38.01307318 60.30859375 52.2421875 C60.61410156 53.32886719 60.61410156 53.32886719 60.92578125 54.4375 C62.36093833 60.0798299 62.52662758 65.440065 62.30859375 71.2421875 C56.64453125 70.65625 56.64453125 70.65625 54.30859375 70.2421875 C52.75398438 69.97535156 52.75398438 69.97535156 51.16796875 69.703125 C48.30859375 68.2421875 48.30859375 68.2421875 46.98828125 64.6796875 C46.69671533 63.20494338 46.42970642 61.7251944 46.18359375 60.2421875 C45.86993701 58.68641107 45.5509444 57.13170064 45.2265625 55.578125 C45.07364746 54.82756836 44.92073242 54.07701172 44.76318359 53.30371094 C41.91646121 40.39408484 33.34459996 27.04633748 22.16796875 19.8671875 C20.2316715 18.86208664 18.35192535 18.0049786 16.30859375 17.2421875 C15.365 16.88769531 14.42140625 16.53320312 13.44921875 16.16796875 C1.3855167 12.61187747 -10.75365829 16.54491293 -21.56640625 22.0546875 C-34.83839106 29.81428499 -42.42066317 43.77989845 -46.69140625 58.2421875 C-53.50483096 84.62408987 -49.75751447 113.61301035 -36.57421875 137.4921875 C-35.69140625 139.2421875 -35.69140625 139.2421875 -35.69140625 141.2421875 C-34.53640625 141.1390625 -33.38140625 141.0359375 -32.19140625 140.9296875 C-27.01108299 140.94805744 -23.54171644 142.8689069 -19.69140625 146.2421875 C-16.40768321 150.04245124 -15.00167859 154.12032891 -15.31640625 159.1953125 C-16.35582306 164.86879593 -18.68984141 168.9217042 -23.44140625 172.2421875 C-27.7817948 174.63020796 -30.78953749 174.8746867 -35.69140625 174.2421875 C-41.13020491 172.39299595 -44.4650235 168.86631912 -47.69140625 164.2421875 C-49.11514482 159.9709718 -49.412943 155.32212763 -47.92578125 151.03515625 C-47.55095111 146.56843044 -49.78905206 143.32255157 -51.81640625 139.4296875 C-65.87241189 111.05123742 -68.87241792 79.83925318 -59.44140625 49.4296875 C-52.19340705 29.21726116 -39.98561443 14.3333971 -20.72753906 4.8371582 C-13.88336625 1.65789311 -7.46260537 0.67152617 0 0 Z " fill="#764BBC" transform="translate(110.69140625,-0.2421875)"/>
<path d="M0 0 C2 1 2 1 3.23828125 3.80859375 C4.39804828 7.72649764 5.10833603 10.90489806 5 15 C2.72716904 18.11428145 0.19567566 20.04151007 -2.86328125 22.37890625 C-10.79579345 28.57822384 -17.15558153 40.27710527 -19 50 C-20.50355406 64.37109988 -18.28219731 76.54298834 -9 88 C-1.08847403 96.72653241 10.4577864 100.44019678 21.89453125 101.2890625 C49.03653056 102.48547916 73.01272157 89.45066664 93 72 C93.69867188 71.39800781 94.39734375 70.79601562 95.1171875 70.17578125 C101.52095549 64.24779522 110.68722506 53.87316012 112 45 C110.68134288 42.35774595 110.68134288 42.35774595 109 40 C107.09841258 36.19682515 107.94476885 31.99938437 109 28 C111.78703009 23.56708601 115.08312799 19.97441644 120 18 C126.23580741 17.37641926 130.92411304 18.15791073 136 22 C139.44074998 25.69068339 141.29312526 29.44327704 141.625 34.5 C141.29441396 39.53708733 139.45904543 43.34282309 136 47 C132.93032071 49.08362552 129.77923816 51 126 51 C125.59587891 52.06734375 125.59587891 52.06734375 125.18359375 53.15625 C120.71729016 63.88717084 113.70219086 72.47818825 106 81 C105.34257812 81.74121094 104.68515625 82.48242188 104.0078125 83.24609375 C90.42903536 97.7281801 71.8271612 106.61807498 53 112 C52.32855957 112.19609863 51.65711914 112.39219727 50.96533203 112.59423828 C31.29347573 118.22463385 11.49858235 117.6383387 -7 108 C-20.84245959 99.67594377 -27.44281342 89.07498399 -32 74 C-35.78684518 56.12793798 -31.86259197 38.04547762 -22.19775391 22.74316406 C-16.19323833 14.00442757 -7.9915791 6.86478378 0 0 Z " fill="#774BBC" transform="translate(33,102)"/>
<path d="M0 0 C0.33 0 0.66 0 1 0 C1 15.51 1 31.02 1 47 C-16.49 47 -33.98 47 -52 47 C-48.57552151 45.28776076 -46.28177396 44.55888263 -42.625 43.8125 C-28.14524028 40.23659827 -14.2262794 31.69852012 -5.953125 18.94921875 C-3.03492435 12.98125922 -1.19371813 6.517701 0 0 Z " fill="#FCFCFD" transform="translate(229,172)"/>
</svg>
