<?xml version="1.0" encoding="UTF-8"?>
<svg version="1.1" xmlns="http://www.w3.org/2000/svg" width="139" height="133">
<path d="M0 0 C45.87 0 91.74 0 139 0 C139 43.89 139 87.78 139 133 C93.13 133 47.26 133 0 133 C0 89.11 0 45.22 0 0 Z " fill="#171717" transform="translate(0,0)"/>
<path d="M0 0 C0.71349609 0.56267578 0.71349609 0.56267578 1.44140625 1.13671875 C0.12140625 2.45671875 -1.19859375 3.77671875 -2.55859375 5.13671875 C-3.49960938 4.64300781 -4.440625 4.14929687 -5.41015625 3.640625 C-6.66774735 2.99305943 -7.92557239 2.34594804 -9.18359375 1.69921875 C-9.80105469 1.37373047 -10.41851562 1.04824219 -11.0546875 0.71289062 C-21.14610966 -4.43904595 -34.98058264 -4.3702721 -45.99609375 -2.1796875 C-48.6768007 -1.26200231 -51.06937174 -0.21301143 -53.55859375 1.13671875 C-54.73421875 1.77287109 -54.73421875 1.77287109 -55.93359375 2.421875 C-65.13260245 8.00032791 -71.7123668 15.69473275 -74.55859375 26.13671875 C-75.29383531 29.87976668 -75.24878767 31.93714849 -73.3359375 35.26171875 C-72.17658573 36.92811562 -70.96707838 38.56019573 -69.72265625 40.1640625 C-68.0460279 42.46715667 -66.72703027 44.58757834 -65.39453125 47.078125 C-65.00765137 47.75875 -64.62077148 48.439375 -64.22216797 49.140625 C-63.46592803 50.47856356 -62.74851234 51.83946657 -62.07861328 53.22265625 C-60.85167675 55.5208577 -60.85167675 55.5208577 -57.55859375 58.13671875 C-52.60859375 58.46671875 -47.65859375 58.79671875 -42.55859375 59.13671875 C-42.55859375 43.95671875 -42.55859375 28.77671875 -42.55859375 13.13671875 C-45.85859375 13.13671875 -49.15859375 13.13671875 -52.55859375 13.13671875 C-52.55859375 25.01671875 -52.55859375 36.89671875 -52.55859375 49.13671875 C-66.35249513 31.89434202 -66.35249513 31.89434202 -65.87109375 26.69921875 C-62.64742504 17.94926083 -56.35645482 11.73673101 -47.99609375 7.69921875 C-43.74640376 5.77922649 -41.79656004 6.13671875 -36.55859375 6.13671875 C-36.55859375 28.24671875 -36.55859375 50.35671875 -36.55859375 73.13671875 C-33.25859375 73.13671875 -29.95859375 73.13671875 -26.55859375 73.13671875 C-26.55859375 51.02671875 -26.55859375 28.91671875 -26.55859375 6.13671875 C-16.43359375 7.26171875 -16.43359375 7.26171875 -11.99609375 9.69921875 C-11.14917969 10.15425781 -10.30226563 10.60929687 -9.4296875 11.078125 C-8.81222656 11.42746094 -8.19476563 11.77679688 -7.55859375 12.13671875 C-7.55859375 12.46671875 -7.55859375 12.79671875 -7.55859375 13.13671875 C-11.84859375 13.13671875 -16.13859375 13.13671875 -20.55859375 13.13671875 C-20.55859375 28.31671875 -20.55859375 43.49671875 -20.55859375 59.13671875 C-17.25859375 59.13671875 -13.95859375 59.13671875 -10.55859375 59.13671875 C-10.55859375 53.85671875 -10.55859375 48.57671875 -10.55859375 43.13671875 C-3.29859375 43.13671875 3.96140625 43.13671875 11.44140625 43.13671875 C11.44140625 39.83671875 11.44140625 36.53671875 11.44140625 33.13671875 C4.18140625 33.13671875 -3.07859375 33.13671875 -10.55859375 33.13671875 C-10.55859375 29.83671875 -10.55859375 26.53671875 -10.55859375 23.13671875 C-3.62859375 23.13671875 3.30140625 23.13671875 10.44140625 23.13671875 C9.61640625 21.54859375 8.79140625 19.96046875 7.94140625 18.32421875 C5.44140625 13.51171875 5.44140625 13.51171875 5.44140625 10.13671875 C6.76140625 10.13671875 8.08140625 10.13671875 9.44140625 10.13671875 C16.52691939 23.50561147 20.0438236 34.66606462 15.87890625 49.82421875 C13.72972188 56.0977182 10.65516951 61.04959003 6.44140625 66.13671875 C5.94125 66.77222656 5.44109375 67.40773438 4.92578125 68.0625 C-1.75137321 75.66703702 -13.81588879 81.44961004 -23.82275391 82.33764648 C-26.3430466 82.44066464 -28.84877807 82.46583949 -31.37109375 82.44921875 C-32.26111084 82.4435791 -33.15112793 82.43793945 -34.06811523 82.43212891 C-40.33830678 82.3159823 -45.81037276 81.8084271 -51.55859375 79.13671875 C-52.45578125 78.73453125 -53.35296875 78.33234375 -54.27734375 77.91796875 C-65.6357589 72.30117005 -74.19950226 63.28515352 -78.58984375 51.328125 C-82.46658488 37.81337467 -81.39569322 25.14373155 -74.74609375 12.76171875 C-72.44905923 10.00527733 -70.02584465 7.78173451 -67.2421875 5.53125 C-65.57246404 4.1482076 -64.07276711 2.68703948 -62.55859375 1.13671875 C-46.24997794 -15.48211529 -17.67695939 -12.92403845 0 0 Z " fill="#020303" transform="translate(100.55859375,31.86328125)"/>
<path d="M0 0 C45.87 0 91.74 0 139 0 C139 43.89 139 87.78 139 133 C120.52 133 102.04 133 83 133 C83 132.67 83 132.34 83 132 C83.85980469 131.79246094 84.71960938 131.58492187 85.60546875 131.37109375 C99.19163818 127.83009648 110.04024658 122.08314859 120 112 C120.63550781 111.38640625 121.27101563 110.7728125 121.92578125 110.140625 C134.02864261 97.58155823 137.52164799 81.01002892 137.41992188 64.14892578 C136.96987224 47.2749494 129.5573975 33.59759746 117.890625 21.6953125 C104.23777905 8.96495615 86.43676624 3.39108303 68.0625 3.5625 C66.92022949 3.57007324 65.77795898 3.57764648 64.60107422 3.58544922 C56.36831889 3.74659902 49.55050904 4.53172053 42 8 C40.98292969 8.43570312 39.96585938 8.87140625 38.91796875 9.3203125 C22.98999633 16.65319037 10.63117953 29.32427829 3.93359375 45.58984375 C2.64455892 49.3324038 1.63119442 53.08659458 1 57 C0.67 57 0.34 57 0 57 C0 38.19 0 19.38 0 0 Z " fill="#FAFAFA" transform="translate(0,0)"/>
<path d="M0 0 C5.54860923 4.53452463 9.99820387 9.47435624 13 16 C13 16.99 13 17.98 13 19 C6.07 19 -0.86 19 -8 19 C-8 22.3 -8 25.6 -8 29 C-0.74 29 6.52 29 14 29 C14 32.3 14 35.6 14 39 C6.74 39 -0.52 39 -8 39 C-8 44.28 -8 49.56 -8 55 C-11.3 55 -14.6 55 -18 55 C-18 39.82 -18 24.64 -18 9 C-14.37 8.67 -10.74 8.34 -7 8 C-8.134375 7.38125 -9.26875 6.7625 -10.4375 6.125 C-11.07558594 5.77695312 -11.71367188 5.42890625 -12.37109375 5.0703125 C-16.08427749 3.55855567 -20.08633688 2.86970292 -24 2 C-24 24.11 -24 46.22 -24 69 C-27.3 69 -30.6 69 -34 69 C-34 46.89 -34 24.78 -34 2 C-45.25117011 4.25023402 -53.46534254 7.28940763 -60 17 C-61.83055945 20.4947044 -62.52188837 23.08583726 -62 27 C-60.40187912 29.94259574 -58.46711783 32.60716104 -56.5 35.3125 C-54.685 37.849375 -52.87 40.38625 -51 43 C-50.67 31.78 -50.34 20.56 -50 9 C-46.7 9 -43.4 9 -40 9 C-40 24.18 -40 39.36 -40 55 C-44.95 55 -49.9 55 -55 55 C-58.61414018 51.13487786 -60.57419828 48.49633729 -63 44 C-64.25895283 42.01325497 -65.52935558 40.03370736 -66.8125 38.0625 C-67.35519531 37.18722656 -67.89789063 36.31195313 -68.45703125 35.41015625 C-69.9474429 32.99548771 -69.9474429 32.99548771 -71.671875 30.87890625 C-73.82263434 27.83621436 -73.41282307 25.65643293 -73 22 C-70.29009123 11.25069521 -62.72623963 2.89788265 -53.33984375 -2.75 C-52.56769531 -3.1625 -51.79554687 -3.575 -51 -4 C-50.23816406 -4.4125 -49.47632812 -4.825 -48.69140625 -5.25 C-33.30829468 -12.16160083 -13.86089896 -8.56060777 0 0 Z " fill="#A9AAAC" transform="translate(98,36)"/>
<path d="M0 0 C1.19689453 -0.01224609 2.39378906 -0.02449219 3.62695312 -0.03710938 C4.77228516 -0.03904297 5.91761719 -0.04097656 7.09765625 -0.04296875 C8.14574463 -0.04707764 9.19383301 -0.05118652 10.27368164 -0.05541992 C13.91529589 0.27666753 15.92790117 2.18110078 18.9375 4.1875 C18.03620361 4.16655273 17.13490723 4.14560547 16.20629883 4.12402344 C12.79733649 4.05502759 9.38913722 4.0053095 5.97973633 3.96777344 C4.51639958 3.94790551 3.05313951 3.92080118 1.59008789 3.88574219 C-8.44653839 3.65161163 -16.58104264 4.54165512 -26.0625 8.1875 C-23.11520463 9.34561388 -23.11520463 9.34561388 -20.0625 9.1875 C-20.0625 9.8475 -20.0625 10.5075 -20.0625 11.1875 C-21.0525 11.1875 -22.0425 11.1875 -23.0625 11.1875 C-22.5675 12.1775 -22.5675 12.1775 -22.0625 13.1875 C-21.0725 13.1875 -20.0825 13.1875 -19.0625 13.1875 C-19.0625 13.8475 -19.0625 14.5075 -19.0625 15.1875 C-20.0525 15.1875 -21.0425 15.1875 -22.0625 15.1875 C-22.0625 15.8475 -22.0625 16.5075 -22.0625 17.1875 C-21.340625 16.8575 -20.61875 16.5275 -19.875 16.1875 C-17.04552573 15.18146471 -15.03354534 15.01772598 -12.0625 15.1875 C-12.0625 14.5275 -12.0625 13.8675 -12.0625 13.1875 C-13.7125 13.1875 -15.3625 13.1875 -17.0625 13.1875 C-17.5575 10.7125 -17.5575 10.7125 -18.0625 8.1875 C-16.0825 7.8575 -14.1025 7.5275 -12.0625 7.1875 C-12.0625 7.8475 -12.0625 8.5075 -12.0625 9.1875 C-13.3825 9.1875 -14.7025 9.1875 -16.0625 9.1875 C-16.0625 9.8475 -16.0625 10.5075 -16.0625 11.1875 C-15.27875 11.125625 -14.495 11.06375 -13.6875 11 C-12.82125 11.061875 -11.955 11.12375 -11.0625 11.1875 C-10.4025 12.1775 -9.7425 13.1675 -9.0625 14.1875 C-8.7325 12.2075 -8.4025 10.2275 -8.0625 8.1875 C-9.0525 8.1875 -10.0425 8.1875 -11.0625 8.1875 C-11.0625 7.5275 -11.0625 6.8675 -11.0625 6.1875 C-7.4325 5.8575 -3.8025 5.5275 -0.0625 5.1875 C0.03515625 13.68359375 0.03515625 13.68359375 -0.0625 16.1875 C-0.5575 16.6825 -0.5575 16.6825 -1.0625 17.1875 C1.5775 17.1875 4.2175 17.1875 6.9375 17.1875 C5.9475 15.2075 4.9575 13.2275 3.9375 11.1875 C3.6075 12.5075 3.2775 13.8275 2.9375 15.1875 C2.2775 15.1875 1.6175 15.1875 0.9375 15.1875 C0.9375 11.8875 0.9375 8.5875 0.9375 5.1875 C1.9275 5.1875 2.9175 5.1875 3.9375 5.1875 C4.9275 7.1675 4.9275 7.1675 5.9375 9.1875 C6.2675 8.1975 6.5975 7.2075 6.9375 6.1875 C7.9275 6.1875 8.9175 6.1875 9.9375 6.1875 C10.4325 7.1775 10.4325 7.1775 10.9375 8.1875 C11.2675 7.8575 11.5975 7.5275 11.9375 7.1875 C13.93708364 7.14669217 15.93795254 7.14495644 17.9375 7.1875 C17.9375 7.8475 17.9375 8.5075 17.9375 9.1875 C16.2875 9.5175 14.6375 9.8475 12.9375 10.1875 C12.9375 11.5075 12.9375 12.8275 12.9375 14.1875 C13.9275 14.5175 14.9175 14.8475 15.9375 15.1875 C15.9375 14.1975 15.9375 13.2075 15.9375 12.1875 C14.9475 11.6925 14.9475 11.6925 13.9375 11.1875 C15.2575 11.1875 16.5775 11.1875 17.9375 11.1875 C17.9375 12.8375 17.9375 14.4875 17.9375 16.1875 C16.2875 16.5175 14.6375 16.8475 12.9375 17.1875 C12.9375 17.8475 12.9375 18.5075 12.9375 19.1875 C13.63617188 19.38085938 14.33484375 19.57421875 15.0546875 19.7734375 C15.96476562 20.03382812 16.87484375 20.29421875 17.8125 20.5625 C19.16988281 20.94535156 19.16988281 20.94535156 20.5546875 21.3359375 C22.9375 22.1875 22.9375 22.1875 24.9375 24.1875 C21.6776652 23.59947376 18.72766407 22.76576636 15.625 21.625 C3.4996633 17.95667906 -10.31683478 19.58175929 -21.6875 24.875 C-22.47125 25.308125 -23.255 25.74125 -24.0625 26.1875 C-24.7225 26.1875 -25.3825 26.1875 -26.0625 26.1875 C-26.330625 26.826875 -26.59875 27.46625 -26.875 28.125 C-28.0625 30.1875 -28.0625 30.1875 -31.0625 31.1875 C-32.84505008 32.94631906 -32.84505008 32.94631906 -34.5625 35.0625 C-37.88991117 39.01744924 -37.88991117 39.01744924 -39.65625 40.7578125 C-41.29849482 42.33781934 -41.29849482 42.33781934 -43.0625 45.1875 C-43.7225 45.1875 -44.3825 45.1875 -45.0625 45.1875 C-45.289375 46.280625 -45.51625 47.37375 -45.75 48.5 C-47.0625 52.1875 -47.0625 52.1875 -49.4375 54.125 C-52.0625 55.1875 -52.0625 55.1875 -56.0625 55.1875 C-58.3125 54.1875 -58.3125 54.1875 -60.0625 53.1875 C-60.0625 54.1775 -60.0625 55.1675 -60.0625 56.1875 C-57.7525 56.5175 -55.4425 56.8475 -53.0625 57.1875 C-53.0625 57.8475 -53.0625 58.5075 -53.0625 59.1875 C-55.7025 59.1875 -58.3425 59.1875 -61.0625 59.1875 C-61.0625 59.8475 -61.0625 60.5075 -61.0625 61.1875 C-61.7225 61.1875 -62.3825 61.1875 -63.0625 61.1875 C-62.1875 53.4375 -62.1875 53.4375 -61.0625 51.1875 C-57.1025 51.6825 -57.1025 51.6825 -53.0625 52.1875 C-53.0625 50.8675 -53.0625 49.5475 -53.0625 48.1875 C-55.0425 47.8575 -57.0225 47.5275 -59.0625 47.1875 C-59.0625 46.5275 -59.0625 45.8675 -59.0625 45.1875 C-57.0825 45.1875 -55.1025 45.1875 -53.0625 45.1875 C-54.3825 43.8675 -55.7025 42.5475 -57.0625 41.1875 C-56.7325 40.1975 -56.4025 39.2075 -56.0625 38.1875 C-53.4225 38.1875 -50.7825 38.1875 -48.0625 38.1875 C-49.3 37.259375 -49.3 37.259375 -50.5625 36.3125 C-51.3875 35.61125 -52.2125 34.91 -53.0625 34.1875 C-53.0625 33.5275 -53.0625 32.8675 -53.0625 32.1875 C-52.32 32.5175 -51.5775 32.8475 -50.8125 33.1875 C-47.92366688 34.41532871 -47.92366688 34.41532871 -44.0625 34.1875 C-43.8340451 31.94387427 -43.8340451 31.94387427 -46.0625 30.0625 C-46.7225 29.44375 -47.3825 28.825 -48.0625 28.1875 C-47.7325 27.5275 -47.4025 26.8675 -47.0625 26.1875 C-46.134375 26.868125 -45.20625 27.54875 -44.25 28.25 C-43.198125 28.889375 -42.14625 29.52875 -41.0625 30.1875 C-40.0725 29.8575 -39.0825 29.5275 -38.0625 29.1875 C-38.95585797 26.82964682 -38.95585797 26.82964682 -42.125 26.0625 C-43.094375 25.77375 -44.06375 25.485 -45.0625 25.1875 C-45.0625 24.5275 -45.0625 23.8675 -45.0625 23.1875 C-43.7425 23.1875 -42.4225 23.1875 -41.0625 23.1875 C-41.3925 21.8675 -41.7225 20.5475 -42.0625 19.1875 C-46.00389078 20.85501148 -48.8517812 23.41460649 -52.0625 26.1875 C-50.74090311 18.63551776 -44.61497903 14.73692613 -38.73828125 10.51953125 C-26.60852444 2.72039836 -14.17184299 0.00765632 0 0 Z " fill="#111111" transform="translate(68.0625,2.8125)"/>
<path d="M0 0 C9.42261441 0.61787635 17.71562163 3.52195764 26 8 C22.01508155 9.32830615 20.59951452 8.23204404 16.8125 6.5625 C15.72582031 6.08941406 14.63914063 5.61632812 13.51953125 5.12890625 C12.68808594 4.75636719 11.85664062 4.38382813 11 4 C12.05058594 4.49628906 13.10117188 4.99257812 14.18359375 5.50390625 C22.07157299 9.2923172 29.55266219 12.96659633 36 19 C36.74507813 19.69222656 37.49015625 20.38445313 38.2578125 21.09765625 C48.83499748 31.83618812 55.23168277 46.05935371 55.2734375 61.1328125 C55.26570313 62.07898438 55.25796875 63.02515625 55.25 64 C55.26160156 65.41925781 55.26160156 65.41925781 55.2734375 66.8671875 C55.25759044 72.58797561 54.63029609 77.51392426 53 83 C50.2160817 81.60804085 50.02101003 79.84424221 49 77 C49.99 76.01 50.98 75.02 52 74 C50.02 73.67 48.04 73.34 46 73 C49.75 71 49.75 71 52 71 C52.41809201 68.16848027 52.41809201 68.16848027 52 65 C49.62157423 62.59593616 49.62157423 62.59593616 47 61 C48.98 61 50.96 61 53 61 C53 60.34 53 59.68 53 59 C52.34 58.67 51.68 58.34 51 58 C51 56.02 51 54.04 51 52 C50.34 51.67 49.68 51.34 49 51 C49 51.66 49 52.32 49 53 C47.515 52.505 47.515 52.505 46 52 C47.32 49.69 48.64 47.38 50 45 C48.02 45 46.04 45 44 45 C44.33 42.03 44.66 39.06 45 36 C44.34 35.67 43.68 35.34 43 35 C40.98074133 35.76600582 40.98074133 35.76600582 38.875 36.9375 C38.15054688 37.31777344 37.42609375 37.69804688 36.6796875 38.08984375 C36.12539062 38.39019531 35.57109375 38.69054688 35 39 C36.13719419 35.58841744 37.04342944 34.88145399 40 33 C40.66 33 41.32 33 42 33 C41.67 32.34 41.34 31.68 41 31 C39.68 31.66 38.36 32.32 37 33 C37.33 30.69 37.66 28.38 38 26 C36.68 26.99 35.36 27.98 34 29 C33.34 28.67 32.68 28.34 32 28 C33.32 26.35 34.64 24.7 36 23 C35.071875 23.845625 34.14375 24.69125 33.1875 25.5625 C31.60546875 27.00390625 31.60546875 27.00390625 30 28 C28.515 27.505 28.515 27.505 27 27 C27.59927826 23.64404172 28.84622436 21.62198774 31 19 C29.68 19.66 28.36 20.32 27 21 C26.01 18.03 26.01 18.03 25 15 C22.58354218 14.83312552 22.58354218 14.83312552 20 15 C19.34 15.66 18.68 16.32 18 17 C18 19.64 18 22.28 18 25 C12.39 22.69 6.78 20.38 1 18 C1 17.34 1 16.68 1 16 C2.32 15.67 3.64 15.34 5 15 C5.33 13.35 5.66 11.7 6 10 C5.34 10.33 4.68 10.66 4 11 C4 11.99 4 12.98 4 14 C2.68 13.67 1.36 13.34 0 13 C0.33 11.35 0.66 9.7 1 8 C2.65 8 4.3 8 6 8 C6 7.34 6 6.68 6 6 C3.36 6.66 0.72 7.32 -2 8 C-2 7.01 -2 6.02 -2 5 C-2.99 5 -3.98 5 -5 5 C-5 6.65 -5 8.3 -5 10 C-8 6.25 -8 6.25 -8 4 C-8.99 4 -9.98 4 -11 4 C-11 7.3 -11 10.6 -11 14 C-10.34 14 -9.68 14 -9 14 C-9 12.35 -9 10.7 -9 9 C-6.65941363 11.12780579 -5.29299694 13.11562221 -4 16 C-5 17 -5 17 -7.50390625 17.09765625 C-8.51324219 17.08605469 -9.52257812 17.07445313 -10.5625 17.0625 C-11.57441406 17.05347656 -12.58632812 17.04445313 -13.62890625 17.03515625 C-14.80259766 17.01775391 -14.80259766 17.01775391 -16 17 C-15.01 16.34 -14.02 15.68 -13 15 C-12.41651248 12.3443272 -12.41651248 12.3443272 -12.3125 9.375 C-12.209375 7.60125 -12.10625 5.8275 -12 4 C-15.63 4.33 -19.26 4.66 -23 5 C-23 5.66 -23 6.32 -23 7 C-22.01 7 -21.02 7 -20 7 C-20 8.98 -20 10.96 -20 13 C-20.99 13.495 -20.99 13.495 -22 14 C-22.33 13.01 -22.66 12.02 -23 11 C-24.65 10.67 -26.3 10.34 -28 10 C-28 9.34 -28 8.68 -28 8 C-26.68 8 -25.36 8 -24 8 C-24 7.34 -24 6.68 -24 6 C-25.98 6.33 -27.96 6.66 -30 7 C-29.67 8.32 -29.34 9.64 -29 11 C-27.35 11.33 -25.7 11.66 -24 12 C-24 12.66 -24 13.32 -24 14 C-27.3 14.66 -30.6 15.32 -34 16 C-34 15.34 -34 14.68 -34 14 C-33.01 14 -32.02 14 -31 14 C-31 13.34 -31 12.68 -31 12 C-32.32 12.33 -33.64 12.66 -35 13 C-35 12.01 -35 11.02 -35 10 C-34.01 10 -33.02 10 -32 10 C-32 9.34 -32 8.68 -32 8 C-33.98 8.33 -35.96 8.66 -38 9 C-38 8.01 -38 7.02 -38 6 C-28.37242462 2.38264985 -19.92140275 1.48082299 -9.6875 1.75 C-8.34963671 1.77013534 -7.01174347 1.78837345 -5.67382812 1.8046875 C-2.44842571 1.85126371 0.7753745 1.91665149 4 2 C2.68 1.34 1.36 0.68 0 0 Z " fill="#0D0D0D" transform="translate(80,4)"/>
<path d="M0 0 C11.21007307 0.27281151 21.77075901 4.24666692 30 12 C31.02939188 13.31077463 32.03736854 14.63944186 33 16 C32.17242187 15.83628906 31.34484375 15.67257813 30.4921875 15.50390625 C26.67805811 14.9535453 22.96646499 14.88910945 19.125 14.9375 C18.43664062 14.94201172 17.74828125 14.94652344 17.0390625 14.95117188 C15.35933665 14.96283664 13.67965625 14.98076729 12 15 C15.11534613 17.07689742 15.93419317 17.25960579 19.4921875 17.34375 C20.79736328 17.38822266 20.79736328 17.38822266 22.12890625 17.43359375 C23.03511719 17.45550781 23.94132812 17.47742188 24.875 17.5 C36.29245405 17.77847449 36.29245405 17.77847449 40 20 C40.495 21.485 40.495 21.485 41 23 C34.07 23 27.14 23 20 23 C20 26.3 20 29.6 20 33 C27.26 33 34.52 33 42 33 C42 36.3 42 39.6 42 43 C34.74 43 27.48 43 20 43 C20 48.28 20 53.56 20 59 C16.7 59 13.4 59 10 59 C10 43.82 10 28.64 10 13 C15.445 12.505 15.445 12.505 21 12 C15.37529486 8.93197901 10.30596952 7.10938353 4 6 C4 5.34 4 4.68 4 4 C3.01 3.67 2.02 3.34 1 3 C0.67 2.01 0.34 1.02 0 0 Z " fill="#A1A2A4" transform="translate(70,32)"/>
<path d="M0 0 C0.33 0 0.66 0 1 0 C1.21914063 0.88300781 1.43828125 1.76601562 1.6640625 2.67578125 C5.11083473 15.7202729 10.37470268 25.341512 20 35 C20.60328125 35.62648437 21.2065625 36.25296875 21.828125 36.8984375 C30.1621931 44.90638989 41.7991273 50.46992052 53 53 C53 53.33 53 53.66 53 54 C35.51 54 18.02 54 0 54 C0 36.18 0 18.36 0 0 Z " fill="#FBFBFB" transform="translate(0,79)"/>
<path d="M0 0 C1.30324219 -0.01836914 1.30324219 -0.01836914 2.6328125 -0.03710938 C15.0584999 -0.06509516 26.31683611 3.95944897 35.3125 12.75 C42.25 19.99755587 42.25 19.99755587 42.25 25.1875 C41.32380859 24.70410156 41.32380859 24.70410156 40.37890625 24.2109375 C35.21085577 22.520514 29.86938775 22.82790208 24.46679688 22.796875 C17.80407893 22.61854203 17.80407893 22.61854203 14.62890625 20.1484375 C13.94634766 19.17777344 13.94634766 19.17777344 13.25 18.1875 C15.8125718 18.16039877 18.37485365 18.14061229 20.9375 18.125 C21.65873047 18.11662109 22.37996094 18.10824219 23.12304688 18.09960938 C26.96555382 18.08206368 30.51639526 18.25225779 34.25 19.1875 C25.52011574 10.92197129 15.63621308 5.1875 3.25 5.1875 C3.98196342 5.72350578 3.98196342 5.72350578 4.72871399 6.27033997 C6.97007615 9.09495672 6.61009717 11.28971801 6.59057617 14.86206055 C6.59123329 15.87221222 6.59123329 15.87221222 6.59190369 16.902771 C6.58981501 19.12688269 6.5664815 21.35023888 6.54296875 23.57421875 C6.53737305 25.11692391 6.53310283 26.6596344 6.53010559 28.2023468 C6.51865471 32.26147191 6.48918569 36.32027466 6.45599365 40.37927246 C6.42529787 44.52168415 6.41160132 48.66414797 6.39648438 52.80664062 C6.364316 60.93374164 6.31311698 69.06058071 6.25 77.1875 C4.25 77.1875 4.25 77.1875 2.64628601 75.61175537 C0.79026694 72.38930369 0.88910672 70.11067191 0.90942383 66.39941406 C0.90876671 65.38904335 0.90876671 65.38904335 0.90809631 64.35826111 C0.91018054 62.13958396 0.93349301 59.92166957 0.95703125 57.703125 C0.96262854 56.16184909 0.96689801 54.62056783 0.96989441 53.07928467 C0.98133282 49.02839344 1.01079111 44.97782639 1.04400635 40.92706299 C1.07472902 36.79126368 1.08840443 32.65541185 1.10351562 28.51953125 C1.135662 20.40870562 1.18684593 12.29814317 1.25 4.1875 C-1.6879382 4.83139063 -4.625351 5.47752779 -7.5625 6.125 C-8.81256836 6.39860352 -8.81256836 6.39860352 -10.08789062 6.67773438 C-10.89033203 6.85498047 -11.69277344 7.03222656 -12.51953125 7.21484375 C-13.25792236 7.37718506 -13.99631348 7.53952637 -14.75708008 7.70678711 C-16.93820645 8.20303608 -16.93820645 8.20303608 -19.75 9.1875 C-20.08 9.8475 -20.41 10.5075 -20.75 11.1875 C-22.07 10.5275 -23.39 9.8675 -24.75 9.1875 C-24.75 8.1975 -24.75 7.2075 -24.75 6.1875 C-23.00197854 5.37075204 -21.25149811 4.55926549 -19.5 3.75 C-18.52546875 3.29753906 -17.5509375 2.84507813 -16.546875 2.37890625 C-10.97968137 0.00740617 -5.97917177 0.004358 0 0 Z " fill="#C8CACB" transform="translate(67.75,27.8125)"/>
<path d="M0 0 C2.97 0 5.94 0 9 0 C9 14.52 9 29.04 9 44 C7.35 43.34 5.7 42.68 4 42 C2.68 42 1.36 42 0 42 C-4.81131476 38.0148706 -8.28720091 32.8221319 -11.875 27.75 C-12.78378906 26.53763672 -12.78378906 26.53763672 -13.7109375 25.30078125 C-16.63756857 21.14363485 -18.47699386 18.26683091 -17.94921875 13.08203125 C-17.34077807 9.89177995 -16.41912148 6.93285106 -15 4 C-13.68 4.66 -12.36 5.32 -11 6 C-11.33 6.66 -11.66 7.32 -12 8 C-12.66 8 -13.32 8 -14 8 C-12.98406663 15.06704771 -10.58160076 19.86329344 -6.375 25.5625 C-4.60125 28.016875 -2.8275 30.47125 -1 33 C-0.67 22.11 -0.34 11.22 0 0 Z " fill="#A3A4A6" transform="translate(48,46)"/>
<path d="M0 0 C5.48269096 1.0356194 10.04051533 2.35494151 15 5 C15.928125 5.2475 16.85625 5.495 17.8125 5.75 C31.78112716 11.227893 41.33215579 25.82188998 47.3203125 38.87890625 C53.11125244 54.40915426 51.41982131 73.39976207 44.74291992 88.29638672 C41.27960985 95.59320597 36.77807311 101.36957782 31 107 C30.00419922 108.04414063 30.00419922 108.04414063 28.98828125 109.109375 C24.51619094 113.5048009 19.67121817 116.48885219 14.125 119.3125 C13.17161743 119.80097412 13.17161743 119.80097412 12.19897461 120.29931641 C1.35954146 125.54248832 -8.74610107 126.41469665 -20.6875 126.1875 C-22.08266768 126.17241097 -23.47785134 126.15873009 -24.87304688 126.14648438 C-28.24911584 126.11143868 -31.62434276 126.06230508 -35 126 C-35 125.01 -35 124.02 -35 123 C-34.28046143 123.01571045 -33.56092285 123.0314209 -32.81958008 123.04760742 C-10.3813653 123.47327435 9.17997534 121.97408748 27.05078125 106.89453125 C34.19852702 99.94732344 39.12775675 92.15586488 43 83 C43.51240234 81.79537109 43.51240234 81.79537109 44.03515625 80.56640625 C48.60227774 67.28989028 47.64387687 49.70314606 42 37 C41.59910156 36.07445312 41.19820313 35.14890625 40.78515625 34.1953125 C32.26421377 16.7582534 17.37483268 7.92456835 0 1 C0 0.67 0 0.34 0 0 Z " fill="#353535" transform="translate(88,7)"/>
<path d="M0 0 C2.1385485 2.1385485 2.42655063 3.13275314 3 6 C3.99 5.67 4.98 5.34 6 5 C5.690625 5.5775 5.38125 6.155 5.0625 6.75 C4.07416636 8.84294184 3.4831387 10.74535275 3 13 C3.5775 12.71125 4.155 12.4225 4.75 12.125 C6.83333333 11.08333333 8.91666667 10.04166667 11 9 C10.34 10.32 9.68 11.64 9 13 C10.32 12.34 11.64 11.68 13 11 C13.5534764 13.07553648 14 14.84365964 14 17 C14.99 16.67 15.98 16.34 17 16 C17 16.99 17 17.98 17 19 C14 21.1875 14 21.1875 11 23 C13.71631546 22.09456151 16.34771188 21.07525194 19 20 C21 22 21 22 21.25 25 C21 28 21 28 19 30 C15.31504012 30.38789051 13.21223234 29.7223033 10 28 C10.20496094 28.60328125 10.40992187 29.2065625 10.62109375 29.828125 C10.89050781 30.62734375 11.15992187 31.4265625 11.4375 32.25 C11.70433594 33.03890625 11.97117187 33.8278125 12.24609375 34.640625 C16.19035949 46.98433746 14.70081152 60.1220566 10 72 C9.34 72 8.68 72 8 72 C8.30744141 71.00419922 8.30744141 71.00419922 8.62109375 69.98828125 C8.89050781 69.10527344 9.15992187 68.22226563 9.4375 67.3125 C9.70433594 66.44238281 9.97117187 65.57226562 10.24609375 64.67578125 C13.51930598 53.05842177 12.53327643 42.15883429 8 31 C7.00593749 29.32978519 6.00720557 27.66232209 5 26 C5 25.34 5 24.68 5 24 C3.68 24 2.36 24 1 24 C0.67 24.66 0.34 25.32 0 26 C-1.98 24.02 -3.96 22.04 -6 20 C-5.34 18.68 -4.68 17.36 -4 16 C-6.64 14.02 -9.28 12.04 -12 10 C-11.34 9.67 -10.68 9.34 -10 9 C-9.34 9.33 -8.68 9.66 -8 10 C-8.061875 8.906875 -8.12375 7.81375 -8.1875 6.6875 C-8 3 -8 3 -6.8125 1.0625 C-4.37896796 -0.36405327 -2.77457104 -0.35571424 0 0 Z " fill="#484848" transform="translate(105,18)"/>
<path d="M0 0 C0.99 0.33 1.98 0.66 3 1 C3 2.32 3 3.64 3 5 C1.68 5 0.36 5 -1 5 C-1 5.66 -1 6.32 -1 7 C1.97 7.495 1.97 7.495 5 8 C5.33 8.99 5.66 9.98 6 11 C4.02 11.99 4.02 11.99 2 13 C0.35 11.68 -1.3 10.36 -3 9 C-1.07423885 11.43929746 0.80090595 13.80090595 3 16 C0.375 17.25 0.375 17.25 -3 18 C-6.375 16.125 -6.375 16.125 -9 14 C-8.21625 14.78375 -7.4325 15.5675 -6.625 16.375 C-5.08333333 17.91666667 -3.54166667 19.45833333 -2 21 C-5.3 21 -8.6 21 -12 21 C-10.14470719 24.91731018 -10.14470719 24.91731018 -8 28 C-10.31 27.67 -12.62 27.34 -15 27 C-15 27.66 -15 28.32 -15 29 C-13.02 29.33 -11.04 29.66 -9 30 C-9 31.32 -9 32.64 -9 34 C-11.64 33.67 -14.28 33.34 -17 33 C-17.66 36.3 -18.32 39.6 -19 43 C-18.34 43.33 -17.68 43.66 -17 44 C-17.99 46.475 -17.99 46.475 -19 49 C-19.66 49 -20.32 49 -21 49 C-21 44.38 -21 39.76 -21 35 C-23.68029404 45.72117618 -21.85304622 57.26225896 -20 68 C-24.5271246 63.4728754 -24.2663201 56.09481463 -24.32958984 50.03271484 C-24.3239502 49.09379395 -24.31831055 48.15487305 -24.3125 47.1875 C-24.30686035 46.20990723 -24.3012207 45.23231445 -24.29541016 44.22509766 C-24.03779992 28.94957567 -18.43903403 15.32689002 -8 4 C-7.34 3.67 -6.68 3.34 -6 3 C-6 3.99 -6 4.98 -6 6 C-4.02 4.02 -2.04 2.04 0 0 Z M-17 41 C-16.01 41.495 -16.01 41.495 -15 42 C-15.99 42.495 -15.99 42.495 -17 43 C-17 42.34 -17 41.68 -17 41 Z " fill="#121212" transform="translate(24,21)"/>
<path d="M0 0 C1.011359 3.14645022 0.85361045 4.85335754 0 8 C-0.22117559 10.4138176 -0.40572242 12.83114597 -0.5625 15.25 C-0.64628906 16.51328125 -0.73007812 17.7765625 -0.81640625 19.078125 C-0.87699219 20.04234375 -0.93757812 21.0065625 -1 22 C-0.34 22 0.32 22 1 22 C1.33 20.35 1.66 18.7 2 17 C4.97 17 7.94 17 11 17 C10 20 10 20 8 21 C8.99 21.33 9.98 21.66 11 22 C11 23.65 11 25.3 11 27 C9.35 27.33 7.7 27.66 6 28 C6 28.33 6 28.66 6 29 C7.98 29.33 9.96 29.66 12 30 C12 31.32 12 32.64 12 34 C8.76823983 36.57071831 6.01017657 38.13694026 2 39 C4.28371235 45.66673793 7.19863016 51.12218105 11.4140625 56.7734375 C13 59 13 59 13.9609375 61.1640625 C15.28394157 63.50170128 16.58461983 63.92137603 19 65 C19.9075 65.86625 20.815 66.7325 21.75 67.625 C25.48157621 70.92569704 29.63240265 73.04702792 34.0625 75.25 C34.74731445 75.59111816 35.43212891 75.93223633 36.13769531 76.28369141 C40.01866461 78.16795728 43.86358536 79.73519927 48 81 C45.20444337 82.11285948 44.06527452 82.02208739 41.16015625 81.0390625 C40.13792969 80.57242188 39.11570313 80.10578125 38.0625 79.625 C33.84102326 77.70025489 33.84102326 77.70025489 29.3828125 76.51953125 C20.28985001 74.5369673 10.47658453 62.95958468 5.625 55.4921875 C2.10576636 49.69783178 -0.29129828 44.82715995 -1 38 C-1.34832607 36.33210289 -1.70220726 34.6653531 -2.0625 33 C-4.11696663 21.65374112 -3.43487026 10.97931745 0 0 Z " fill="#545454" transform="translate(4,48)"/>
<path d="M0 0 C4.44757839 1.43365164 7.51054576 3.86034586 10.875 7 C11.4016626 7.48984375 11.9283252 7.9796875 12.47094727 8.484375 C23.12901525 18.65895382 30.84572412 32.35336467 31.265625 47.3125 C31.27087662 49.20833321 31.26549682 51.10422285 31.25 53 C31.26160156 54.41925781 31.26160156 54.41925781 31.2734375 55.8671875 C31.25759044 61.58797561 30.63029609 66.51392426 29 72 C26.2160817 70.60804085 26.02101003 68.84424221 25 66 C25.99 65.01 26.98 64.02 28 63 C26.02 62.67 24.04 62.34 22 62 C25.75 60 25.75 60 28 60 C28.41809201 57.16848027 28.41809201 57.16848027 28 54 C25.62157423 51.59593616 25.62157423 51.59593616 23 50 C24.98 50 26.96 50 29 50 C29 49.34 29 48.68 29 48 C28.34 47.67 27.68 47.34 27 47 C27 45.02 27 43.04 27 41 C26.34 40.67 25.68 40.34 25 40 C25 40.66 25 41.32 25 42 C23.515 41.505 23.515 41.505 22 41 C23.32 38.69 24.64 36.38 26 34 C24.02 34 22.04 34 20 34 C20.33 31.03 20.66 28.06 21 25 C20.34 24.67 19.68 24.34 19 24 C16.98074133 24.76600582 16.98074133 24.76600582 14.875 25.9375 C14.15054688 26.31777344 13.42609375 26.69804688 12.6796875 27.08984375 C12.12539062 27.39019531 11.57109375 27.69054687 11 28 C12.13719419 24.58841744 13.04342944 23.88145399 16 22 C16.66 22 17.32 22 18 22 C17.67 21.34 17.34 20.68 17 20 C15.02 20.99 15.02 20.99 13 22 C13.33 19.69 13.66 17.38 14 15 C12.68 15.99 11.36 16.98 10 18 C9.34 17.67 8.68 17.34 8 17 C9.32 15.35 10.64 13.7 12 12 C11.071875 12.845625 10.14375 13.69125 9.1875 14.5625 C7.60546875 16.00390625 7.60546875 16.00390625 6 17 C5.01 16.67 4.02 16.34 3 16 C3.59927826 12.64404172 4.84622436 10.62198774 7 8 C5.02 8.99 5.02 8.99 3 10 C2.71125 9.030625 2.4225 8.06125 2.125 7.0625 C1.35785318 3.89335797 1.35785318 3.89335797 -1 3 C-0.67 2.01 -0.34 1.02 0 0 Z " fill="#0D0D0D" transform="translate(104,15)"/>
<path d="M0 0 C0.71349609 0.56267578 0.71349609 0.56267578 1.44140625 1.13671875 C0.12140625 2.45671875 -1.19859375 3.77671875 -2.55859375 5.13671875 C-3.97011719 4.39615234 -3.97011719 4.39615234 -5.41015625 3.640625 C-6.66774735 2.99305943 -7.92557239 2.34594804 -9.18359375 1.69921875 C-9.80105469 1.37373047 -10.41851562 1.04824219 -11.0546875 0.71289062 C-21.09322822 -4.41204858 -35.17066881 -4.50866255 -46.1015625 -2.07421875 C-48.68872578 -1.13927147 -51.10792853 -0.10870128 -53.55859375 1.13671875 C-54.54279297 1.59884766 -54.54279297 1.59884766 -55.546875 2.0703125 C-56.9027148 2.72173898 -58.23532741 3.42143965 -59.55859375 4.13671875 C-60.37109375 2.44921875 -60.37109375 2.44921875 -60.55859375 0.13671875 C-56.22020707 -6.06097651 -48.82765057 -7.99558677 -41.67578125 -9.44921875 C-26.33306845 -11.48722321 -12.72642185 -9.30458466 0 0 Z " fill="#0A0A0A" transform="translate(100.55859375,31.86328125)"/>
<path d="M0 0 C0 22.11 0 44.22 0 67 C-4 64 -4 64 -4.50120544 61.29893494 C-4.50137161 60.21020584 -4.50153778 59.12147675 -4.50170898 57.99975586 C-4.51108994 56.76515121 -4.52047089 55.53054657 -4.53013611 54.25852966 C-4.51965923 52.91062731 -4.5082904 51.56273164 -4.49609375 50.21484375 C-4.4962487 48.83386662 -4.49773702 47.45288904 -4.50050354 46.07191467 C-4.50188785 43.17917636 -4.48932361 40.28693369 -4.46655273 37.39428711 C-4.43814053 33.68267606 -4.44091175 29.97188695 -4.45364285 26.26021481 C-4.46059006 23.40947928 -4.45282235 20.55893451 -4.44038582 17.70822334 C-4.4358638 16.33946018 -4.43554107 14.97067659 -4.43945122 13.60191154 C-4.44235437 11.69152333 -4.42372904 9.7811387 -4.40405273 7.87084961 C-4.39864975 6.78291611 -4.39324677 5.6949826 -4.38768005 4.57408142 C-4.25974564 3.72463455 -4.13181122 2.87518768 -4 2 C-1 0 -1 0 0 0 Z " fill="#D8D9DA" transform="translate(73,37)"/>
<path d="M0 0 C0.495 0.99 0.495 0.99 1 2 C-0.32 3.32 -1.64 4.64 -3 6 C-3.495 4.515 -3.495 4.515 -4 3 C-4.99 3 -5.98 3 -7 3 C-7 4.65 -7 6.3 -7 8 C-10 4.25 -10 4.25 -10 2 C-10.99 2 -11.98 2 -13 2 C-13 5.3 -13 8.6 -13 12 C-12.34 12 -11.68 12 -11 12 C-11 10.35 -11 8.7 -11 7 C-8.65941363 9.12780579 -7.29299694 11.11562221 -6 14 C-7 15 -7 15 -9.50390625 15.09765625 C-11.01791016 15.08025391 -11.01791016 15.08025391 -12.5625 15.0625 C-13.57441406 15.05347656 -14.58632812 15.04445313 -15.62890625 15.03515625 C-16.80259766 15.01775391 -16.80259766 15.01775391 -18 15 C-17.01 14.34 -16.02 13.68 -15 13 C-14.41651248 10.3443272 -14.41651248 10.3443272 -14.3125 7.375 C-14.209375 5.60125 -14.10625 3.8275 -14 2 C-17.63 2.33 -21.26 2.66 -25 3 C-25 3.66 -25 4.32 -25 5 C-24.01 5 -23.02 5 -22 5 C-22 6.98 -22 8.96 -22 11 C-22.99 11.495 -22.99 11.495 -24 12 C-24.33 11.01 -24.66 10.02 -25 9 C-26.65 8.67 -28.3 8.34 -30 8 C-30 7.34 -30 6.68 -30 6 C-28.68 6 -27.36 6 -26 6 C-26 5.34 -26 4.68 -26 4 C-27.98 4.33 -29.96 4.66 -32 5 C-31.67 6.32 -31.34 7.64 -31 9 C-29.35 9.33 -27.7 9.66 -26 10 C-26 10.66 -26 11.32 -26 12 C-29.3 12.66 -32.6 13.32 -36 14 C-36 13.34 -36 12.68 -36 12 C-35.01 12 -34.02 12 -33 12 C-33 11.34 -33 10.68 -33 10 C-34.32 10.33 -35.64 10.66 -37 11 C-37 10.01 -37 9.02 -37 8 C-36.01 8 -35.02 8 -34 8 C-34 7.34 -34 6.68 -34 6 C-35.98 6.33 -37.96 6.66 -40 7 C-40 6.01 -40 5.02 -40 4 C-27.3767182 -1.83013427 -13.55819093 -0.37876111 0 0 Z " fill="#090909" transform="translate(82,6)"/>
<path d="M0 0 C3.3 0 6.6 0 10 0 C10 15.18 10 30.36 10 46 C5.05 46 0.1 46 -5 46 C-8.61414018 42.13487786 -10.57419828 39.49633729 -13 35 C-14.25895283 33.01325497 -15.52935558 31.03370736 -16.8125 29.0625 C-17.35519531 28.18722656 -17.89789063 27.31195313 -18.45703125 26.41015625 C-19.94050993 23.99435088 -19.94050993 23.99435088 -21.6875 21.91796875 C-23.66605667 19.02668505 -23.19624626 16.40160182 -23 13 C-22.67 13 -22.34 13 -22 13 C-22 14.65 -22 16.3 -22 18 C-20.87368164 18.09776733 -20.87368164 18.09776733 -19.72460938 18.19750977 C-16.1215034 19.25874716 -15.39081008 20.6956615 -13.40625 23.83984375 C-12.44912109 25.3103418 -12.44912109 25.3103418 -11.47265625 26.81054688 C-10.82167969 27.84244141 -10.17070313 28.87433594 -9.5 29.9375 C-8.20978764 31.97501358 -6.9081239 34.00533218 -5.59375 36.02734375 C-5.02333984 36.93218506 -4.45292969 37.83702637 -3.86523438 38.76928711 C-1.70441236 41.3535058 -0.22546608 42.11973214 3 43 C4.32 43 5.64 43 7 43 C7.495 43.495 7.495 43.495 8 44 C8.33 29.81 8.66 15.62 9 1 C6.03 1 3.06 1 0 1 C0 0.67 0 0.34 0 0 Z " fill="#797A7C" transform="translate(48,45)"/>
<path d="M0 0 C0.66 0.33 1.32 0.66 2 1 C1.57742724 2.4835001 1.13643678 3.96176424 0.6875 5.4375 C0.32205078 6.67306641 0.32205078 6.67306641 -0.05078125 7.93359375 C-0.36402344 8.61550781 -0.67726563 9.29742187 -1 10 C-1.99 10.33 -2.98 10.66 -4 11 C-4.433125 12.670625 -4.433125 12.670625 -4.875 14.375 C-6 18 -6 18 -8.375 19.9375 C-11 21 -11 21 -15 21 C-17.25 20 -17.25 20 -19 19 C-19 19.99 -19 20.98 -19 22 C-16.69 22.33 -14.38 22.66 -12 23 C-12 23.66 -12 24.32 -12 25 C-14.64 25 -17.28 25 -20 25 C-20 25.66 -20 26.32 -20 27 C-20.66 27 -21.32 27 -22 27 C-21.125 19.25 -21.125 19.25 -20 17 C-17.36 17.33 -14.72 17.66 -12 18 C-12 16.68 -12 15.36 -12 14 C-14.97 13.505 -14.97 13.505 -18 13 C-18 12.34 -18 11.68 -18 11 C-16.02 11 -14.04 11 -12 11 C-13.32 9.68 -14.64 8.36 -16 7 C-15.67 6.01 -15.34 5.02 -15 4 C-13.87851562 4.06960937 -13.87851562 4.06960937 -12.734375 4.140625 C-6.61876684 4.55844026 -6.61876684 4.55844026 -1.3125 2 C-0.879375 1.34 -0.44625 0.68 0 0 Z " fill="#161616" transform="translate(27,37)"/>
<path d="M0 0 C-0.90129639 -0.02094727 -1.80259277 -0.04189453 -2.73120117 -0.06347656 C-6.14016351 -0.13247241 -9.54836278 -0.1821905 -12.95776367 -0.21972656 C-14.42110042 -0.23959449 -15.88436049 -0.26669882 -17.34741211 -0.30175781 C-36.5390256 -0.7494524 -52.36938662 5.09340704 -66.39477539 18.44360352 C-67.60555794 19.61983341 -68.80421612 20.80852525 -70 22 C-70 18.32074738 -69.08230603 16.99760539 -67 14 C-60.62458279 7.72136332 -53.16901353 3.49952671 -45 0 C-44.09636719 -0.41507812 -43.19273438 -0.83015625 -42.26171875 -1.2578125 C-29.91463564 -6.03625062 -11.03612327 -7.35741552 0 0 Z " fill="#4C4C4C" transform="translate(87,7)"/>
<path d="M0 0 C11.21007307 0.27281151 21.77075901 4.24666692 30 12 C31.02939188 13.31077463 32.03736854 14.63944186 33 16 C30.03 15.505 30.03 15.505 27 15 C21.72 14.67 16.44 14.34 11 14 C11 28.85 11 43.7 11 59 C10.67 59 10.34 59 10 59 C10 43.82 10 28.64 10 13 C15.445 12.505 15.445 12.505 21 12 C15.37529486 8.93197901 10.30596952 7.10938353 4 6 C4 5.34 4 4.68 4 4 C3.01 3.67 2.02 3.34 1 3 C0.67 2.01 0.34 1.02 0 0 Z " fill="#626567" transform="translate(70,32)"/>
<path d="M0 0 C0 3 0 3 -1.3125 4.375 C-1.869375 4.91125 -2.42625 5.4475 -3 6 C-3.4125 6.763125 -3.825 7.52625 -4.25 8.3125 C-8.3804488 14.65568922 -14.19398389 17.83904268 -20.75 21.1875 C-21.71425903 21.68697144 -21.71425903 21.68697144 -22.69799805 22.1965332 C-33.56602401 27.54518816 -43.67760795 28.4159998 -55.6875 28.1875 C-57.08266768 28.17241097 -58.47785134 28.15873009 -59.87304688 28.14648438 C-63.24911584 28.11143868 -66.62434276 28.06230508 -70 28 C-70 27.01 -70 26.02 -70 25 C-68.92069214 25.02356567 -68.92069214 25.02356567 -67.81958008 25.04760742 C-44.62728334 25.48757975 -23.71322877 23.77303616 -6 7 C-3.87382413 4.73622194 -1.93679811 2.43341301 0 0 Z " fill="#545454" transform="translate(123,105)"/>
<path d="M0 0 C1.32 0.66 2.64 1.32 4 2 C3.67 2.66 3.34 3.32 3 4 C2.34 4 1.68 4 1 4 C2.17775896 11.40515948 4.62209602 16.10538203 9 22.125 C12.75424683 27.34021553 15.65507815 31.66205579 17 38 C10.40100053 35.93825777 7.87615046 30.92516212 4.125 25.4375 C3.42375 24.47263672 2.7225 23.50777344 2 22.51367188 C-3.56720782 14.43030444 -3.56720782 14.43030444 -3.01171875 8.9765625 C-2.36050966 5.8433662 -1.39693314 2.88699516 0 0 Z " fill="#D7D9DB" transform="translate(33,50)"/>
<path d="M0 0 C1.65 0.99 3.3 1.98 5 3 C5.68298728 7.08153201 5.22379753 10.83736593 5 15 C11.93 15 18.86 15 26 15 C26 17.64 26 20.28 26 23 C25.44731445 22.5155542 24.89462891 22.0311084 24.32519531 21.53198242 C21.59235976 19.73142141 20.0410415 19.58258842 16.796875 19.48828125 C15.8171875 19.45283203 14.8375 19.41738281 13.828125 19.38085938 C12.81234375 19.35830078 11.7965625 19.33574219 10.75 19.3125 C9.71875 19.27833984 8.6875 19.24417969 7.625 19.20898438 C5.08371301 19.12662785 2.54187399 19.06163407 0 19 C0 12.73 0 6.46 0 0 Z " fill="#DDDEE0" transform="translate(85,51)"/>
<path d="M0 0 C2.66666667 2.66666667 5.33333333 5.33333333 8 8 C4.7 8 1.4 8 -2 8 C-0.14470719 11.91731018 -0.14470719 11.91731018 2 15 C-0.31 14.67 -2.62 14.34 -5 14 C-5 14.66 -5 15.32 -5 16 C-3.02 16.33 -1.04 16.66 1 17 C1 18.32 1 19.64 1 21 C-1.64 20.67 -4.28 20.34 -7 20 C-7.66 23.3 -8.32 26.6 -9 30 C-8.34 30.33 -7.68 30.66 -7 31 C-7.99 33.475 -7.99 33.475 -9 36 C-9.66 36 -10.32 36 -11 36 C-11.49414987 23.29851826 -9.87653708 12.90182708 -3 2 C-2.01 1.34 -1.02 0.68 0 0 Z M-7 28 C-6.01 28.495 -6.01 28.495 -5 29 C-5.99 29.495 -5.99 29.495 -7 30 C-7 29.34 -7 28.68 -7 28 Z " fill="#101010" transform="translate(14,34)"/>
<path d="M0 0 C2.64 0 5.28 0 8 0 C8 14.52 8 29.04 8 44 C6.68 43.01 5.36 42.02 4 41 C3.61052113 38.12861907 3.46602163 35.62530307 3.49609375 32.75390625 C3.48667252 31.94638412 3.47725128 31.138862 3.46754456 30.30686951 C3.4388514 27.72515545 3.43581769 25.14436078 3.4375 22.5625 C3.43389284 19.98434378 3.42435765 17.40685834 3.39674377 14.82884216 C3.37995352 13.22513808 3.3770815 11.62121321 3.38975525 10.01747131 C3.34947492 5.74106784 3.09149163 3.09046948 0 0 Z " fill="#D9DADB" transform="translate(49,46)"/>
<path d="M0 0 C0.99 0.66 1.98 1.32 3 2 C3.99 1.67 4.98 1.34 6 1 C11.6341771 4.54388538 16.69438924 10.24022368 20 16 C20 16.99 20 17.98 20 19 C19.38253906 18.67773438 18.76507813 18.35546875 18.12890625 18.0234375 C12.96085577 16.333014 7.61938775 16.64040208 2.21679688 16.609375 C-4.44592107 16.43104203 -4.44592107 16.43104203 -7.62109375 13.9609375 C-8.07613281 13.31382813 -8.53117187 12.66671875 -9 12 C-6.4374282 11.97289877 -3.87514635 11.95311229 -1.3125 11.9375 C-0.2306543 11.92493164 -0.2306543 11.92493164 0.87304688 11.91210938 C4.71555382 11.89456368 8.26639526 12.06475779 12 13 C10.75160501 11.894019 9.50120766 10.79029799 8.25 9.6875 C7.55390625 9.07261719 6.8578125 8.45773438 6.140625 7.82421875 C4.0397126 5.96753151 4.0397126 5.96753151 1.734375 4.45703125 C1.16203125 3.97621094 0.5896875 3.49539062 0 3 C0 2.01 0 1.02 0 0 Z " fill="#DADCDE" transform="translate(90,34)"/>
<path d="M0 0 C3.3 0 6.6 0 10 0 C10 0.66 10 1.32 10 2 C9.01 2.33 8.02 2.66 7 3 C7.515625 3.37125 8.03125 3.7425 8.5625 4.125 C10 6 10 6 9.8125 9.0625 C9 12 9 12 7 14 C7.66 14.33 8.32 14.66 9 15 C8 18 8 18 6 20 C6.33 20.99 6.66 21.98 7 23 C2.545 22.01 2.545 22.01 -2 21 C-2 20.01 -2 19.02 -2 18 C-1.01 17.34 -0.02 16.68 1 16 C0.34 15.67 -0.32 15.34 -1 15 C-1 14.34 -1 13.68 -1 13 C-0.34 12.67 0.32 12.34 1 12 C0.67 11.67 0.34 11.34 0 11 C-0.04254356 9.00045254 -0.04080783 6.99958364 0 5 C0 4.34 0 3.68 0 3 C0 2.01 0 1.02 0 0 Z " fill="#B5B5B5" transform="translate(123,63)"/>
<path d="M0 0 C4.56521226 1.44607092 7.63172128 4.03067809 11.0625 7.25 C11.8369043 7.94802734 11.8369043 7.94802734 12.62695312 8.66015625 C16.00896474 11.78797846 18.68138274 14.97439113 21 19 C21 22 21 22 20 24 C17.93359375 25.0703125 17.93359375 25.0703125 15.4375 26.125 C14.61121094 26.47820313 13.78492187 26.83140625 12.93359375 27.1953125 C12.29550781 27.46085937 11.65742187 27.72640625 11 28 C12.13719419 24.58841744 13.04342944 23.88145399 16 22 C16.66 22 17.32 22 18 22 C17.67 21.34 17.34 20.68 17 20 C15.02 20.99 15.02 20.99 13 22 C13.33 19.69 13.66 17.38 14 15 C12.68 15.99 11.36 16.98 10 18 C9.34 17.67 8.68 17.34 8 17 C9.32 15.35 10.64 13.7 12 12 C11.071875 12.845625 10.14375 13.69125 9.1875 14.5625 C7.60546875 16.00390625 7.60546875 16.00390625 6 17 C5.01 16.67 4.02 16.34 3 16 C3.59927826 12.64404172 4.84622436 10.62198774 7 8 C5.02 8.99 5.02 8.99 3 10 C2.71125 9.030625 2.4225 8.06125 2.125 7.0625 C1.35785318 3.89335797 1.35785318 3.89335797 -1 3 C-0.67 2.01 -0.34 1.02 0 0 Z " fill="#151515" transform="translate(104,15)"/>
<path d="M0 0 C5.48269096 1.0356194 10.04051533 2.35494151 15 5 C15.928125 5.2475 16.85625 5.495 17.8125 5.75 C26.72685266 9.24582457 35.32314128 17.72771159 40.12890625 25.92578125 C41.23992951 28.57131196 42.1038746 31.27442615 43 34 C43.84738896 36.12771183 44.70174476 38.25266023 45.5625 40.375 C48.90206446 49.0578676 49.15296485 56.75412452 49 66 C48.67 66 48.34 66 48 66 C47.93530518 65.42668945 47.87061035 64.85337891 47.80395508 64.26269531 C45.52786868 44.78017725 40.76644014 27.09227362 25 14 C17.27422677 8.23632791 8.89634527 4.54555074 0 1 C0 0.67 0 0.34 0 0 Z " fill="#747474" transform="translate(88,7)"/>
<path d="M0 0 C0.66 0 1.32 0 2 0 C2 0.66 2 1.32 2 2 C2.66 2 3.32 2 4 2 C4.36351562 2.71285156 4.72703125 3.42570312 5.1015625 4.16015625 C8.23432009 10.12846109 11.51948861 14.9860944 16 20 C16 20.66 16 21.32 16 22 C16.60328125 22.27585937 17.2065625 22.55171875 17.828125 22.8359375 C20 24 20 24 22.75 26.625 C26.48157621 29.92569704 30.63240265 32.04702792 35.0625 34.25 C36.08972168 34.76167725 36.08972168 34.76167725 37.13769531 35.28369141 C41.01866461 37.16795728 44.86358536 38.73519927 49 40 C46.20444337 41.11285948 45.06527452 41.02208739 42.16015625 40.0390625 C41.13792969 39.57242188 40.11570313 39.10578125 39.0625 38.625 C34.84102326 36.70025489 34.84102326 36.70025489 30.3828125 35.51953125 C21.99396772 33.69048804 12.46390028 23.04542943 7.796875 16.24755859 C0.97308413 5.41194734 0.97308413 5.41194734 0 0 Z " fill="#3E3E3E" transform="translate(3,89)"/>
<path d="M0 0 C0.99 0 1.98 0 3 0 C3.66 1.32 4.32 2.64 5 4 C5.33 3.01 5.66 2.02 6 1 C6.99 1 7.98 1 9 1 C9.33 1.66 9.66 2.32 10 3 C10.33 2.67 10.66 2.34 11 2 C12.99958364 1.95919217 15.00045254 1.95745644 17 2 C17 2.66 17 3.32 17 4 C15.35 4.33 13.7 4.66 12 5 C12 6.32 12 7.64 12 9 C12.99 9.33 13.98 9.66 15 10 C15 9.01 15 8.02 15 7 C14.34 6.67 13.68 6.34 13 6 C14.32 6 15.64 6 17 6 C17 7.65 17 9.3 17 11 C15.35 11.33 13.7 11.66 12 12 C12 12.66 12 13.32 12 14 C12.69867188 14.19335938 13.39734375 14.38671875 14.1171875 14.5859375 C15.02726562 14.84632812 15.93734375 15.10671875 16.875 15.375 C17.77992187 15.63023438 18.68484375 15.88546875 19.6171875 16.1484375 C22 17 22 17 24 19 C20.48294042 18.34728444 17.10674923 17.48606976 13.6875 16.4375 C12.80449219 16.16808594 11.92148438 15.89867187 11.01171875 15.62109375 C10.34785156 15.41613281 9.68398437 15.21117187 9 15 C9 14.34 9 13.68 9 13 C8.01 12.67 7.02 12.34 6 12 C4.3125 8.9375 4.3125 8.9375 3 6 C2.67 7.32 2.34 8.64 2 10 C1.34 10 0.68 10 0 10 C0 6.7 0 3.4 0 0 Z " fill="#4C4D4D" transform="translate(69,8)"/>
<path d="M0 0 C0.33 0 0.66 0 1 0 C1 2.64 1 5.28 1 8 C1.66 8 2.32 8 3 8 C3.33 6.35 3.66 4.7 4 3 C6.97 3 9.94 3 13 3 C12 6 12 6 10 7 C10.99 7.33 11.98 7.66 13 8 C13 9.65 13 11.3 13 13 C12.37351562 13.02578125 11.74703125 13.0515625 11.1015625 13.078125 C10.28429688 13.13484375 9.46703125 13.1915625 8.625 13.25 C7.81289062 13.29640625 7.00078125 13.3428125 6.1640625 13.390625 C3.81161073 13.7922092 3.81161073 13.7922092 2.7109375 16.046875 C2.47632813 16.69140625 2.24171875 17.3359375 2 18 C1.67 18 1.34 18 1 18 C-0.0712828 11.97403427 -0.09945415 6.11090483 0 0 Z " fill="#515151" transform="translate(2,62)"/>
<path d="M0 0 C0.02687279 1.81242052 0.04633715 3.62495233 0.0625 5.4375 C0.07410156 6.44683594 0.08570312 7.45617187 0.09765625 8.49609375 C0 11 0 11 -1 12 C2.63 12.33 6.26 12.66 10 13 C10 13.33 10 13.66 10 14 C4.06 14 -1.88 14 -8 14 C-8 10.37 -8 6.74 -8 3 C-8.99 3 -9.98 3 -11 3 C-11 2.34 -11 1.68 -11 1 C-7.26562152 0.12132271 -3.83225427 -0.08912219 0 0 Z " fill="#5F5F5F" transform="translate(68,8)"/>
<path d="M0 0 C7.26 0 14.52 0 22 0 C22 3.3 22 6.6 22 10 C18.39504056 10.10770003 14.79327967 10.18717372 11.1875 10.25 C10.16333984 10.28351563 9.13917969 10.31703125 8.08398438 10.3515625 C7.10107422 10.36445312 6.11816406 10.37734375 5.10546875 10.390625 C4.19949951 10.41157227 3.29353027 10.43251953 2.36010742 10.45410156 C0 10 0 10 -1.8190918 7.97558594 C-2.2087915 7.32364258 -2.59849121 6.67169922 -3 6 C0.45826342 5.94210994 3.91640293 5.90644179 7.375 5.875 C8.35984375 5.85824219 9.3446875 5.84148437 10.359375 5.82421875 C11.77089844 5.81455078 11.77089844 5.81455078 13.2109375 5.8046875 C14.51490479 5.78897705 14.51490479 5.78897705 15.84521484 5.77294922 C18 6 18 6 20 8 C20.33 5.69 20.66 3.38 21 1 C14.07 1 7.14 1 0 1 C0 0.67 0 0.34 0 0 Z " fill="#7A7C7E" transform="translate(90,65)"/>
<path d="M0 0 C6.14830711 1.20555041 8.35248219 2.91558124 12 8 C9.03 7.505 9.03 7.505 6 7 C0.72 6.67 -4.56 6.34 -10 6 C-10 20.85 -10 35.7 -10 51 C-10.33 51 -10.66 51 -11 51 C-11 35.82 -11 20.64 -11 5 C-5.555 4.505 -5.555 4.505 0 4 C-0.33 3.34 -0.66 2.68 -1 2 C-0.67 1.34 -0.34 0.68 0 0 Z " fill="#5D6061" transform="translate(91,40)"/>
<path d="M0 0 C0.71220703 -0.01224609 1.42441406 -0.02449219 2.15820312 -0.03710938 C6.2481825 -0.04845992 9.59952426 0.13039391 13.1875 2.1875 C13.5175 3.1775 13.8475 4.1675 14.1875 5.1875 C10.7502834 5.30354679 7.31356914 5.37469508 3.875 5.4375 C2.41030273 5.48777344 2.41030273 5.48777344 0.91601562 5.5390625 C-0.02177734 5.55195312 -0.95957031 5.56484375 -1.92578125 5.578125 C-3.22189331 5.6095459 -3.22189331 5.6095459 -4.54418945 5.64160156 C-6.8125 5.1875 -6.8125 5.1875 -8.61791992 3.16308594 C-9.20923706 2.1851709 -9.20923706 2.1851709 -9.8125 1.1875 C-6.6995419 -0.36897905 -3.41338167 0.00303952 0 0 Z " fill="#868789" transform="translate(96.8125,49.8125)"/>
<path d="M0 0 C0.66 0 1.32 0 2 0 C1.690625 0.5775 1.38125 1.155 1.0625 1.75 C0.07416636 3.84294184 -0.5168613 5.74535275 -1 8 C-0.4225 7.71125 0.155 7.4225 0.75 7.125 C2.83333333 6.08333333 4.91666667 5.04166667 7 4 C6.34 5.32 5.68 6.64 5 8 C6.32 7.34 7.64 6.68 9 6 C9.5534764 8.07553648 10 9.84365964 10 12 C10.99 11.67 11.98 11.34 13 11 C13 11.99 13 12.98 13 14 C7.74285714 18 7.74285714 18 5 18 C5.33 16.02 5.66 14.04 6 12 C4.02 12.99 4.02 12.99 2 14 C-2.5990566 9.75471698 -2.5990566 9.75471698 -4.0625 7 C-3.96180291 3.77769322 -2.17290215 2.23498507 0 0 Z " fill="#BBBBBA" transform="translate(109,23)"/>
<path d="M0 0 C1.32 0 2.64 0 4 0 C4.33 21.78 4.66 43.56 5 66 C6.98 65.01 6.98 65.01 9 64 C9.66 65.32 10.32 66.64 11 68 C8.36 68 5.72 68 3 68 C3 45.89 3 23.78 3 1 C2.01 0.67 1.02 0.34 0 0 Z " fill="#737376" transform="translate(61,37)"/>
<path d="M0 0 C0 0.66 0 1.32 0 2 C-1.32 2 -2.64 2 -4 2 C-4 2.66 -4 3.32 -4 4 C-2.35 4 -0.7 4 1 4 C1.33 5.65 1.66 7.3 2 9 C0.2097939 9.67057887 -1.58221489 10.3363469 -3.375 11 C-4.37273438 11.37125 -5.37046875 11.7425 -6.3984375 12.125 C-9 13 -9 13 -11 13 C-11.99 10.03 -12.98 7.06 -14 4 C-11 2 -11 2 -8 2 C-8 2.66 -8 3.32 -8 4 C-8.99 4 -9.98 4 -11 4 C-10.67 4.66 -10.34 5.32 -10 6 C-9.01 6 -8.02 6 -7 6 C-7 6.66 -7 7.32 -7 8 C-7.99 8 -8.98 8 -10 8 C-10 8.66 -10 9.32 -10 10 C-9.278125 9.67 -8.55625 9.34 -7.8125 9 C-4.98302573 7.99396471 -2.97104534 7.83022598 0 8 C0 7.34 0 6.68 0 6 C-1.65 6 -3.3 6 -5 6 C-5.33 4.35 -5.66 2.7 -6 1 C-4 0 -4 0 0 0 Z " fill="#B7B7B7" transform="translate(56,10)"/>
<path d="M0 0 C1.65 0.99 3.3 1.98 5 3 C5.5234375 6.28515625 5.5234375 6.28515625 5.375 10.0625 C5.34148437 11.31160156 5.30796875 12.56070313 5.2734375 13.84765625 C5 17 5 17 4 19 C2.68 19 1.36 19 0 19 C0 12.73 0 6.46 0 0 Z " fill="#D4D5D6" transform="translate(85,51)"/>
<path d="M0 0 C-1.03898437 0.4846875 -2.07796875 0.969375 -3.1484375 1.46875 C-11.6229633 5.5091793 -18.90847502 9.76050668 -26 16 C-27.66116658 17.34017952 -29.32649296 18.67526238 -31 20 C-29.82418515 13.28105799 -25.13639705 9.95561612 -20 6 C-16.16918072 3.35256252 -12.62331802 1.72999758 -8 1 C-7.13375 0.62875 -6.2675 0.2575 -5.375 -0.125 C-3 -1 -3 -1 0 0 Z " fill="#606060" transform="translate(47,9)"/>
<path d="M0 0 C2.48046875 0.98828125 2.48046875 0.98828125 5 3 C5.37859559 5.94093052 5.47775614 8.27644958 5.3125 11.1875 C5.28994141 11.93708984 5.26738281 12.68667969 5.24414062 13.45898438 C5.18529157 15.3068447 5.09560938 17.15367667 5 19 C1.125 17.125 1.125 17.125 0 16 C-0.07319621 13.30345146 -0.09242537 10.63308542 -0.0625 7.9375 C-0.05798828 7.17888672 -0.05347656 6.42027344 -0.04882812 5.63867188 C-0.0370068 3.75908129 -0.01907078 1.87953101 0 0 Z " fill="#D5D6D7" transform="translate(85,71)"/>
<path d="M0 0 C0.33 0 0.66 0 1 0 C1.125 2.375 1.125 2.375 1 5 C0.34 5.66 -0.32 6.32 -1 7 C-0.34 7.33 0.32 7.66 1 8 C0 11 0 11 -2 13 C-1.67 13.99 -1.34 14.98 -1 16 C-5.455 15.01 -5.455 15.01 -10 14 C-10 13.01 -10 12.02 -10 11 C-9.01 10.34 -8.02 9.68 -7 9 C-7.66 8.67 -8.32 8.34 -9 8 C-9 7.34 -9 6.68 -9 6 C-8.01 6 -7.02 6 -6 6 C-6 5.34 -6 4.68 -6 4 C-4.35 3.67 -2.7 3.34 -1 3 C-0.67 2.01 -0.34 1.02 0 0 Z " fill="#C6C6C6" transform="translate(131,70)"/>
<path d="M0 0 C2.5 0.25 2.5 0.25 4.5 2.25 C4.86796448 5.12012296 4.87509409 6.65774618 3.3125 9.125 C1.5 10.25 1.5 10.25 -1.0625 10.0625 C-3.5 9.25 -3.5 9.25 -5.5 7.25 C-5.08994391 3.14943907 -4.53376372 0.45337637 0 0 Z " fill="#CCCCCC" transform="translate(102.5,17.75)"/>
<path d="M0 0 C5.75 0.75 5.75 0.75 8 3 C8.1875 5.5625 8.1875 5.5625 8 8 C7 9 7 9 4.0625 9.125 C1 9 1 9 -1 8 C-1 8.99 -1 9.98 -1 11 C1.31 11.33 3.62 11.66 6 12 C6 12.66 6 13.32 6 14 C3.36 14 0.72 14 -2 14 C-2 14.66 -2 15.32 -2 16 C-2.66 16 -3.32 16 -4 16 C-3.125 8.25 -3.125 8.25 -2 6 C0.64 6.33 3.28 6.66 6 7 C6 5.68 6 4.36 6 3 C3.03 2.505 3.03 2.505 0 2 C0 1.34 0 0.68 0 0 Z " fill="#C9C9C9" transform="translate(9,48)"/>
<path d="M0 0 C0.66 0.33 1.32 0.66 2 1 C-0.69155504 8.06533197 -5.97467387 10.98311591 -12 15 C-12.66 13.68 -13.32 12.36 -14 11 C-9.85989729 6.45924219 -5.17609824 3.28157862 0 0 Z " fill="#BABCBD" transform="translate(51,35)"/>
<path d="M0 0 C1 3 1 3 2 6 C1.34 6 0.68 6 0 6 C-0.33 6.66 -0.66 7.32 -1 8 C-3.31 7.67 -5.62 7.34 -8 7 C-8 7.66 -8 8.32 -8 9 C-9.98 9.33 -11.96 9.66 -14 10 C-14.33 8.35 -14.66 6.7 -15 5 C-14.01 4.67 -13.02 4.34 -12 4 C-11.34 3.34 -10.68 2.68 -10 2 C-7.525 2.99 -7.525 2.99 -5 4 C-4.67 3.34 -4.34 2.68 -4 2 C-1.9375 0.875 -1.9375 0.875 0 0 Z " fill="#6A6A6A" transform="translate(94,116)"/>
<path d="M0 0 C2.85675015 1.30629174 4.40578023 2.38733567 6.75 4.625 C10.48157621 7.92569704 14.63240265 10.04702792 19.0625 12.25 C20.08972168 12.76167725 20.08972168 12.76167725 21.13769531 13.28369141 C25.01866461 15.16795728 28.86358536 16.73519927 33 18 C30.20444337 19.11285948 29.06527452 19.02208739 26.16015625 18.0390625 C25.13792969 17.57242188 24.11570312 17.10578125 23.0625 16.625 C18.8583676 14.70262593 18.8583676 14.70262593 14.4140625 13.54296875 C11.40486461 12.86614269 9.72004772 11.5963706 7.3125 9.6875 C6.16201172 8.79611328 6.16201172 8.79611328 4.98828125 7.88671875 C2.99066337 5.99114029 2.05294829 4.51566464 1 2 C0.67 1.34 0.34 0.68 0 0 Z " fill="#6C6C6C" transform="translate(19,111)"/>
<path d="M0 0 C0.99 0.66 1.98 1.32 3 2 C3.3125 5 3.3125 5 3 8 C1 10 1 10 -1.4375 10.375 C-4 10 -4 10 -5.875 8.1875 C-6.24625 7.465625 -6.6175 6.74375 -7 6 C-6 3 -6 3 -2.9375 1.3125 C-1.968125 0.879375 -0.99875 0.44625 0 0 Z " fill="#C8C8C8" transform="translate(123,38)"/>
<path d="M0 0 C0 3 0 3 -1.3125 4.375 C-1.869375 4.91125 -2.42625 5.4475 -3 6 C-3.4125 6.763125 -3.825 7.52625 -4.25 8.3125 C-7.79447699 13.75580394 -13.04576683 17.93942753 -19.359375 19.6328125 C-20.54273437 19.87644531 -20.54273437 19.87644531 -21.75 20.125 C-22.54921875 20.29257813 -23.3484375 20.46015625 -24.171875 20.6328125 C-24.77515625 20.75398438 -25.3784375 20.87515625 -26 21 C-22.09489182 17.97698684 -17.94417353 15.42148201 -13.75390625 12.81640625 C-9.54292734 10.03895208 -5.90630756 7.14251147 -2.6875 3.25 C-1.91986328 2.32960938 -1.91986328 2.32960938 -1.13671875 1.390625 C-0.76160156 0.93171875 -0.38648437 0.4728125 0 0 Z " fill="#5B5B5B" transform="translate(123,105)"/>
<path d="M0 0 C0.89203125 0.00902344 1.7840625 0.01804688 2.703125 0.02734375 C3.37859375 0.03894531 4.0540625 0.05054688 4.75 0.0625 C2.9700328 3.21218174 1.84524556 4.02657502 -1.60546875 5.328125 C-2.87003906 5.65296875 -4.13460937 5.9778125 -5.4375 6.3125 C-7.34595703 6.81523438 -7.34595703 6.81523438 -9.29296875 7.328125 C-10.75669922 7.69164062 -10.75669922 7.69164062 -12.25 8.0625 C-11.5 3.3125 -11.5 3.3125 -9.25 1.0625 C-6.14977395 -0.00909988 -3.26015671 -0.0428968 0 0 Z " fill="#A2A3A5" transform="translate(63.25,32.9375)"/>
<path d="M0 0 C2.96068395 1.81461274 4.26253826 4.1964969 5.9375 7.1875 C5.9375 10.1875 5.9375 10.1875 4.9375 12.1875 C2.87109375 13.2578125 2.87109375 13.2578125 0.375 14.3125 C-0.45128906 14.66570313 -1.27757813 15.01890625 -2.12890625 15.3828125 C-2.76699219 15.64835937 -3.40507813 15.91390625 -4.0625 16.1875 C-2.92530581 12.77591744 -2.01907056 12.06895399 0.9375 10.1875 C1.5975 10.1875 2.2575 10.1875 2.9375 10.1875 C2.6075 9.5275 2.2775 8.8675 1.9375 8.1875 C-0.0425 9.1775 -0.0425 9.1775 -2.0625 10.1875 C-1.7325 7.8775 -1.4025 5.5675 -1.0625 3.1875 C-2.3825 4.1775 -3.7025 5.1675 -5.0625 6.1875 C-5.7225 5.8575 -6.3825 5.5275 -7.0625 5.1875 C-2.7251506 0.24774096 -2.7251506 0.24774096 0 0 Z " fill="#181818" transform="translate(119.0625,26.8125)"/>
<path d="M0 0 C0.33 0.66 0.66 1.32 1 2 C1.99 2 2.98 2 4 2 C3.01 6.29 2.02 10.58 1 15 C-0.32 15 -1.64 15 -3 15 C-3.3152595 9.01006953 -2.68219822 5.36439644 0 0 Z " fill="#B7B8BA" transform="translate(29,48)"/>
<path d="M0 0 C1.23556641 0.01740234 1.23556641 0.01740234 2.49609375 0.03515625 C3.32238281 0.04417969 4.14867187 0.05320312 5 0.0625 C5.63808594 0.07410156 6.27617187 0.08570312 6.93359375 0.09765625 C5.93359375 3.09765625 5.93359375 3.09765625 3.93359375 4.09765625 C4.92359375 4.42765625 5.91359375 4.75765625 6.93359375 5.09765625 C6.93359375 5.75765625 6.93359375 6.41765625 6.93359375 7.09765625 C3.63359375 7.09765625 0.33359375 7.09765625 -3.06640625 7.09765625 C-3.10894981 5.09810879 -3.10721408 3.09723989 -3.06640625 1.09765625 C-2.06640625 0.09765625 -2.06640625 0.09765625 0 0 Z " fill="#C1C1C1" transform="translate(8.06640625,64.90234375)"/>
<path d="M0 0 C1.32 0 2.64 0 4 0 C5.98 3.96 7.96 7.92 10 12 C8.68 12.33 7.36 12.66 6 13 C0 4 0 4 0 0 Z " fill="#09090A" transform="translate(106,42)"/>
<path d="M0 0 C0.66 0 1.32 0 2 0 C2 0.66 2 1.32 2 2 C2.66 2 3.32 2 4 2 C4 2.66 4 3.32 4 4 C4.66 4 5.32 4 6 4 C6.33 5.65 6.66 7.3 7 9 C6.01 9 5.02 9 4 9 C3.67 9.66 3.34 10.32 3 11 C1.02 9.02 -0.96 7.04 -3 5 C-1.125 1.125 -1.125 1.125 0 0 Z " fill="#282828" transform="translate(102,33)"/>
<path d="M0 0 C3.63 0.66 7.26 1.32 11 2 C11 3.65 11 5.3 11 7 C8.36 7 5.72 7 3 7 C2.67 6.34 2.34 5.68 2 5 C1.34 5.66 0.68 6.32 0 7 C0 4.69 0 2.38 0 0 Z " fill="#666666" transform="translate(60,120)"/>
<path d="M0 0 C0.99 0 1.98 0 3 0 C3.66 1.32 4.32 2.64 5 4 C5.33 3.01 5.66 2.02 6 1 C6.66 1 7.32 1 8 1 C8 3.97 8 6.94 8 10 C7.01 10 6.02 10 5 10 C4.34 8.68 3.68 7.36 3 6 C2.67 7.32 2.34 8.64 2 10 C1.34 10 0.68 10 0 10 C0 6.7 0 3.4 0 0 Z " fill="#CCCDCD" transform="translate(69,8)"/>
<path d="M0 0 C3.69230769 0.69230769 3.69230769 0.69230769 5 2 C6.25 4.125 6.25 4.125 7 7 C6.27278552 9.54525067 5.21236322 11.62190291 4 14 C2.9375 12.1875 2.9375 12.1875 2 10 C2.33 9.01 2.66 8.02 3 7 C1.35 6.67 -0.3 6.34 -2 6 C-1.125 1.125 -1.125 1.125 0 0 Z " fill="#C3C4C6" transform="translate(32,44)"/>
<path d="M0 0 C5.60461531 0.42089996 10.72086547 0.91613111 16 3 C15 5 15 5 13.2265625 5.66796875 C10.71276177 6.04283377 8.85893297 5.83171676 6.375 5.3125 C5.59898438 5.16425781 4.82296875 5.01601563 4.0234375 4.86328125 C2 4 2 4 0.7265625 1.91796875 C0.48679687 1.28503906 0.24703125 0.65210938 0 0 Z " fill="#7F8082" transform="translate(70,32)"/>
<path d="M0 0 C0.33 0 0.66 0 1 0 C1 1.65 1 3.3 1 5 C1.7425 5.020625 2.485 5.04125 3.25 5.0625 C6.42791249 6.14587926 6.72751232 6.74474412 8.3125 9.5625 C8.869375 10.696875 9.42625 11.83125 10 13 C9.34 13.66 8.68 14.32 8 15 C7.67 14.34 7.34 13.68 7 13 C6.195625 12.525625 5.39125 12.05125 4.5625 11.5625 C2 10 2 10 0 7 C-0.07905064 4.66800612 -0.08798769 2.33167378 0 0 Z " fill="#888A8A" transform="translate(25,58)"/>
<path d="M0 0 C3.3 0.33 6.6 0.66 10 1 C10 1.66 10 2.32 10 3 C9.01 3.33 8.02 3.66 7 4 C7 5.65 7 7.3 7 9 C3.63408134 7.55746343 1.48952921 5.66735273 -1 3 C-0.67 2.01 -0.34 1.02 0 0 Z " fill="#BDBDBD" transform="translate(12,41)"/>
<path d="M0 0 C1.1875 1.66015625 1.1875 1.66015625 2 4 C-0.8006772 10.52518888 -5.23574474 15.92284384 -11 20 C-9.84826645 17.53199953 -8.95216435 15.95216435 -7 14 C-6.27639992 12.32256344 -5.55581729 10.64362324 -4.86328125 8.953125 C-3.4802917 5.82418937 -1.74131339 2.94221918 0 0 Z " fill="#2D2D2D" transform="translate(130,93)"/>
<path d="M0 0 C3.3 0 6.6 0 10 0 C8.85120554 4.59517784 7.79386581 5.40906725 4 8 C3.34 8 2.68 8 2 8 C2.33 6.02 2.66 4.04 3 2 C2.01 2 1.02 2 0 2 C0 1.34 0 0.68 0 0 Z " fill="#C3C3C3" transform="translate(120,49)"/>
<path d="M0 0 C0.66 0.33 1.32 0.66 2 1 C1.01 1.33 0.02 1.66 -1 2 C-1.33 2.66 -1.66 3.32 -2 4 C-2.33 4.66 -2.66 5.32 -3 6 C-3.99 6.33 -4.98 6.66 -6 7 C-7.77939894 8.83084294 -7.77939894 8.83084294 -9.5 11 C-12.66666667 14.88888889 -12.66666667 14.88888889 -16 16 C-13.40725882 9.63599893 -6.17684883 3.08842441 0 0 Z " fill="#5E5E5E" transform="translate(43,27)"/>
<path d="M0 0 C1.4540625 0.0309375 1.4540625 0.0309375 2.9375 0.0625 C2.9375 0.7225 2.9375 1.3825 2.9375 2.0625 C1.2875 2.3925 -0.3625 2.7225 -2.0625 3.0625 C-2.0625 4.3825 -2.0625 5.7025 -2.0625 7.0625 C-1.0725 7.3925 -0.0825 7.7225 0.9375 8.0625 C0.9375 7.0725 0.9375 6.0825 0.9375 5.0625 C0.2775 4.7325 -0.3825 4.4025 -1.0625 4.0625 C0.2575 4.0625 1.5775 4.0625 2.9375 4.0625 C2.9375 5.7125 2.9375 7.3625 2.9375 9.0625 C0.625 9.75 0.625 9.75 -2.0625 10.0625 C-3.9375 9 -3.9375 9 -5.0625 7.0625 C-4.50485487 0.09193581 -4.50485487 0.09193581 0 0 Z " fill="#CBCBCB" transform="translate(83.0625,9.9375)"/>
<path d="M0 0 C0.33 0 0.66 0 1 0 C1.33 7.59 1.66 15.18 2 23 C3.32 22.34 4.64 21.68 6 21 C6.66 22.32 7.32 23.64 8 25 C5.36 25 2.72 25 0 25 C0 16.75 0 8.5 0 0 Z " fill="#767779" transform="translate(64,80)"/>
<path d="M0 0 C3.3222714 2.89359122 4.32084333 4.68914241 5 9 C3.37276701 8.54965877 1.74826336 8.08944646 0.125 7.625 C-0.77992187 7.36976562 -1.68484375 7.11453125 -2.6171875 6.8515625 C-5 6 -5 6 -7 4 C-6.030625 3.71125 -5.06125 3.4225 -4.0625 3.125 C-0.89335797 2.35785318 -0.89335797 2.35785318 0 0 Z " fill="#D6D7D9" transform="translate(105,44)"/>
<path d="M0 0 C4.43458973 1.3937282 6.87378374 3.60582235 10 7 C6.535 8.485 6.535 8.485 3 10 C2.71125 9.030625 2.4225 8.06125 2.125 7.0625 C1.35785318 3.89335797 1.35785318 3.89335797 -1 3 C-0.67 2.01 -0.34 1.02 0 0 Z " fill="#0C0C0C" transform="translate(104,15)"/>
<path d="M0 0 C0.9075 0.33 1.815 0.66 2.75 1 C6.07045807 2.19605723 6.07045807 2.19605723 10 2 C10.99 3.485 10.99 3.485 12 5 C7.38 5 2.76 5 -2 5 C-2 4.34 -2 3.68 -2 3 C-1.34 3 -0.68 3 0 3 C0 2.01 0 1.02 0 0 Z " fill="#848586" transform="translate(45,86)"/>
<path d="M0 0 C2.34058637 2.12780579 3.70700306 4.11562221 5 7 C4 8 4 8 1.49609375 8.09765625 C-0.01791016 8.08025391 -0.01791016 8.08025391 -1.5625 8.0625 C-2.57441406 8.05347656 -3.58632812 8.04445313 -4.62890625 8.03515625 C-5.41136719 8.02355469 -6.19382812 8.01195312 -7 8 C-6.01 7.34 -5.02 6.68 -4 6 C-3.34 5.01 -2.68 4.02 -2 3 C-2 3.66 -2 4.32 -2 5 C-1.34 5 -0.68 5 0 5 C0 3.35 0 1.7 0 0 Z " fill="#121313" transform="translate(71,13)"/>
<path d="M0 0 C0 0.66 0 1.32 0 2 C-1.32 2 -2.64 2 -4 2 C-4 2.66 -4 3.32 -4 4 C-2.35 4 -0.7 4 1 4 C1.33 5.65 1.66 7.3 2 9 C0.02 9.33 -1.96 9.66 -4 10 C-2.68 9.34 -1.36 8.68 0 8 C0 7.34 0 6.68 0 6 C-1.65 6 -3.3 6 -5 6 C-5.33 4.35 -5.66 2.7 -6 1 C-4 0 -4 0 0 0 Z " fill="#CACACA" transform="translate(56,10)"/>
<path d="M0 0 C0.99 0 1.98 0 3 0 C3 0.66 3 1.32 3 2 C4.2065625 2.3403125 4.2065625 2.3403125 5.4375 2.6875 C6.283125 3.120625 7.12875 3.55375 8 4 C8.8125 6.625 8.8125 6.625 9 9 C8.01 9.33 7.02 9.66 6 10 C4.99723227 8.52270825 3.99785546 7.04311423 3 5.5625 C2.443125 4.73878906 1.88625 3.91507812 1.3125 3.06640625 C0 1 0 1 0 0 Z " fill="#717275" transform="translate(36,80)"/>
<path d="M0 0 C3.3 0 6.6 0 10 0 C10 1.32 10 2.64 10 4 C4.88888889 8 4.88888889 8 2 8 C3 5 3 5 6 3 C3.03 2.505 3.03 2.505 0 2 C0 1.34 0 0.68 0 0 Z " fill="#CACACA" transform="translate(6,78)"/>
<path d="M0 0 C1.32 0.66 2.64 1.32 4 2 C3.67 2.66 3.34 3.32 3 4 C2.34 4 1.68 4 1 4 C1.33 4.66 1.66 5.32 2 6 C2.039992 7.99960012 2.04346799 10.00047242 2 12 C1.01 11.34 0.02 10.68 -1 10 C-1.99 10.495 -1.99 10.495 -3 11 C-2.69078116 9.54096742 -2.37751201 8.08279278 -2.0625 6.625 C-1.88847656 5.81289063 -1.71445312 5.00078125 -1.53515625 4.1640625 C-1 2 -1 2 0 0 Z " fill="#CECFD1" transform="translate(33,50)"/>
<path d="M0 0 C0.66 0 1.32 0 2 0 C1.690625 0.5775 1.38125 1.155 1.0625 1.75 C0.07416636 3.84294184 -0.5168613 5.74535275 -1 8 C-0.4225 7.71125 0.155 7.4225 0.75 7.125 C2.83333333 6.08333333 4.91666667 5.04166667 7 4 C5.84826645 6.46800047 4.95216435 8.04783565 3 10 C0.5 10.25 0.5 10.25 -2 10 C-2.66 9.34 -3.32 8.68 -4 8 C-3.66555164 4.65551641 -2.21127671 2.47662991 0 0 Z " fill="#D1D1D1" transform="translate(109,23)"/>
<path d="M0 0 C0.66 0.33 1.32 0.66 2 1 C-0.22453834 6.75762866 -2.6689823 8.38478377 -8 11 C-7.1216227 6.43243804 -6.614517 4.47932326 -2.875 1.5625 C-1.92625 1.046875 -0.9775 0.53125 0 0 Z " fill="#ABACAD" transform="translate(51,35)"/>
<path d="M0 0 C0.33 1.32 0.66 2.64 1 4 C3.31 4.33 5.62 4.66 8 5 C8 5.66 8 6.32 8 7 C5.36 7 2.72 7 0 7 C0 7.66 0 8.32 0 9 C-0.66 9 -1.32 9 -2 9 C-1.125 1.125 -1.125 1.125 0 0 Z " fill="#B2B2B2" transform="translate(7,55)"/>
<path d="M0 0 C0.33 1.65 0.66 3.3 1 5 C-3.455 4.01 -3.455 4.01 -8 3 C-8 2.01 -8 1.02 -8 0 C-4.71023192 -1.09658936 -3.28696233 -0.79953138 0 0 Z " fill="#BEBEBE" transform="translate(129,81)"/>
<path d="M0 0 C1.65 0.99 3.3 1.98 5 3 C5 3.66 5 4.32 5 5 C4.34 5 3.68 5 3 5 C3 5.66 3 6.32 3 7 C2.34 7 1.68 7 1 7 C1 9.97 1 12.94 1 16 C0.67 16 0.34 16 0 16 C0 10.72 0 5.44 0 0 Z " fill="#CECFD1" transform="translate(85,71)"/>
<path d="M0 0 C0 3.67165265 -1.09398129 4.89389544 -3 8 C-4.06619519 10.31008957 -5.03089021 12.64644764 -6 15 C-7.16952466 11.49142603 -6.76017128 9.57280503 -6 6 C-5.67 5.34 -5.34 4.68 -5 4 C-4.01 4 -3.02 4 -2 4 C-1.34 2.68 -0.68 1.36 0 0 Z " fill="#6A6A6A" transform="translate(12,33)"/>
<path d="M0 0 C2.475 0.99 2.475 0.99 5 2 C5 2.66 5 3.32 5 4 C3.68 4 2.36 4 1 4 C1.99 5.485 1.99 5.485 3 7 C1.68 7 0.36 7 -1 7 C-1 7.66 -1 8.32 -1 9 C-1.99 8.67 -2.98 8.34 -4 8 C-2.68 5.36 -1.36 2.72 0 0 Z " fill="#C6C6C6" transform="translate(94,13)"/>
<path d="M0 0 C0.66 0.33 1.32 0.66 2 1 C2.625 3.5625 2.625 3.5625 3 6 C-0.3 6.33 -3.6 6.66 -7 7 C-6.34 6.67 -5.68 6.34 -5 6 C-4.5359375 5.0409375 -4.5359375 5.0409375 -4.0625 4.0625 C-3 2 -3 2 0 0 Z " fill="#383838" transform="translate(59,17)"/>
<path d="M0 0 C2.31 0 4.62 0 7 0 C6.01 0.495 6.01 0.495 5 1 C5.33 3.97 5.66 6.94 6 10 C5.01 9.67 4.02 9.34 3 9 C3 6.69 3 4.38 3 2 C2.01 2 1.02 2 0 2 C0 1.34 0 0.68 0 0 Z " fill="#B9B9B9" transform="translate(57,9)"/>
<path d="M0 0 C0 4.82034999 -1.33364049 7.28604338 -4.625 10.8125 C-5.40875 11.534375 -6.1925 12.25625 -7 13 C-7.66 12.67 -8.32 12.34 -9 12 C-7.87749844 10.37327315 -6.75191267 8.74867418 -5.625 7.125 C-4.68527344 5.76761719 -4.68527344 5.76761719 -3.7265625 4.3828125 C-2 2 -2 2 0 0 Z " fill="#353535" transform="translate(17,24)"/>
<path d="M0 0 C0.66 0 1.32 0 2 0 C2 1.98 2 3.96 2 6 C2.66 6.33 3.32 6.66 4 7 C3.34 8.65 2.68 10.3 2 12 C1.34 12 0.68 12 0 12 C0 8.04 0 4.08 0 0 Z M4 4 C4.99 4.495 4.99 4.495 6 5 C5.01 5.495 5.01 5.495 4 6 C4 5.34 4 4.68 4 4 Z " fill="#020202" transform="translate(3,58)"/>
<path d="M0 0 C0 0.66 0 1.32 0 2 C-0.66 2 -1.32 2 -2 2 C-1.2575 3.1446875 -1.2575 3.1446875 -0.5 4.3125 C1 7 1 7 1 10 C0.34 10 -0.32 10 -1 10 C-2.0064275 8.33720673 -3.00585407 6.67016516 -4 5 C-4.99 4.34 -5.98 3.68 -7 3 C-2.25 0 -2.25 0 0 0 Z " fill="#C6C6C6" transform="translate(41,15)"/>
<path d="M0 0 C4 6 4 6 4 10 C3.34 10 2.68 10 2 10 C1.67 9.34 1.34 8.68 1 8 C-0.97888961 7.27306096 -2.97954558 6.60183749 -5 6 C-5 5.34 -5 4.68 -5 4 C-2.525 4.495 -2.525 4.495 0 5 C0 3.35 0 1.7 0 0 Z " fill="#C6C6C6" transform="translate(28,22)"/>
<path d="M0 0 C1.65 0.33 3.3 0.66 5 1 C4.67 2.32 4.34 3.64 4 5 C2.68 5.33 1.36 5.66 0 6 C-1.125 2.25 -1.125 2.25 0 0 Z " fill="#161616" transform="translate(100,20)"/>
<path d="M0 0 C-0.33 1.32 -0.66 2.64 -1 4 C-2.98 4.33 -4.96 4.66 -7 5 C-7.33 3.35 -7.66 1.7 -8 0 C-5.13822943 -1.43088528 -3.06624227 -0.59991697 0 0 Z " fill="#484848" transform="translate(87,121)"/>
<path d="M0 0 C0.66 0.33 1.32 0.66 2 1 C1 4 1 4 -0.765625 5.1171875 C-3.08703893 6.03438951 -5.30654703 6.62193615 -7.75 7.125 C-8.54921875 7.29257813 -9.3484375 7.46015625 -10.171875 7.6328125 C-10.77515625 7.75398438 -11.3784375 7.87515625 -12 8 C-9.38928701 5.93318555 -6.66162161 4.06890393 -3.875 2.25 C-3.19179687 1.80140625 -2.50859375 1.3528125 -1.8046875 0.890625 C-0.91136719 0.44976562 -0.91136719 0.44976562 0 0 Z " fill="#777777" transform="translate(109,118)"/>
<path d="M0 0 C1.65 0 3.3 0 5 0 C5.33 1.32 5.66 2.64 6 4 C4.35 4.33 2.7 4.66 1 5 C0.67 3.35 0.34 1.7 0 0 Z " fill="#0F0F0F" transform="translate(125,69)"/>
<path d="M0 0 C1.65 0 3.3 0 5 0 C5 0.66 5 1.32 5 2 C5.99 2.33 6.98 2.66 8 3 C8 3.66 8 4.32 8 5 C2.25 5.125 2.25 5.125 0 4 C0 2.68 0 1.36 0 0 Z " fill="#9E9E9E" transform="translate(7,67)"/>
<path d="M0 0 C1.11375 0.495 1.11375 0.495 2.25 1 C5.13883312 2.22782871 5.13883312 2.22782871 9 2 C9.66 2.33 10.32 2.66 11 3 C9.68 4.32 8.36 5.64 7 7 C5.82780457 6.21654285 4.66236332 5.42297164 3.5 4.625 C2.8503125 4.18414062 2.200625 3.74328125 1.53125 3.2890625 C1.0259375 2.86367188 0.520625 2.43828125 0 2 C0 1.34 0 0.68 0 0 Z " fill="#C5C5C5" transform="translate(15,35)"/>
<path d="M0 0 C0.33 0.99 0.66 1.98 1 3 C-4.75 7 -4.75 7 -7 7 C-6.67 5.02 -6.34 3.04 -6 1 C-5.01 1.33 -4.02 1.66 -3 2 C-2.01 1.34 -1.02 0.68 0 0 Z " fill="#CACACA" transform="translate(121,34)"/>
<path d="M0 0 C1.4540625 0.0309375 1.4540625 0.0309375 2.9375 0.0625 C2.2775 1.3825 1.6175 2.7025 0.9375 4.0625 C-5.0025 3.0725 -5.0025 3.0725 -11.0625 2.0625 C-11.0625 1.7325 -11.0625 1.4025 -11.0625 1.0625 C-9.928125 1.083125 -8.79375 1.10375 -7.625 1.125 C-3.70384291 1.05620777 -3.73763955 0.07627836 0 0 Z " fill="#5A5B5B" transform="translate(85.0625,35.9375)"/>
<path d="M0 0 C2.31 0 4.62 0 7 0 C5.875 1.9375 5.875 1.9375 4 4 C0.8125 4.75 0.8125 4.75 -2 5 C-1.34 3.35 -0.68 1.7 0 0 Z " fill="#909193" transform="translate(61,33)"/>
<path d="M0 0 C0.99 0.33 1.98 0.66 3 1 C3 2.32 3 3.64 3 5 C0.36 5.33 -2.28 5.66 -5 6 C-3.35 4.02 -1.7 2.04 0 0 Z " fill="#050505" transform="translate(24,21)"/>
<path d="M0 0 C0.66 0.33 1.32 0.66 2 1 C2 2.98 2 4.96 2 7 C1.34 7 0.68 7 0 7 C0 6.34 0 5.68 0 5 C-2.31 5 -4.62 5 -7 5 C-6.67 4.34 -6.34 3.68 -6 3 C-4.02 3 -2.04 3 0 3 C0 2.01 0 1.02 0 0 Z " fill="#C7C7C7" transform="translate(130,55)"/>
<path d="M0 0 C0.763125 0.495 1.52625 0.99 2.3125 1.5 C4.92363751 3.24368308 4.92363751 3.24368308 8 3 C8.66 3 9.32 3 10 3 C9.34 4.32 8.68 5.64 8 7 C4.21388773 6.45912682 2.44599233 4.88277668 0 2 C0 1.34 0 0.68 0 0 Z " fill="#C3C3C3" transform="translate(20,29)"/>
<path d="M0 0 C1.32 0.33 2.64 0.66 4 1 C4 2.32 4 3.64 4 5 C1.69 4.67 -0.62 4.34 -3 4 C-3 3.34 -3 2.68 -3 2 C-2.01 2 -1.02 2 0 2 C0 1.34 0 0.68 0 0 Z " fill="#4A4A4A" transform="translate(67,122)"/>
<path d="M0 0 C0.33 0.66 0.66 1.32 1 2 C3.01669827 3.13350534 3.01669827 3.13350534 5 4 C5 4.66 5 5.32 5 6 C2.6875 6.625 2.6875 6.625 0 7 C-0.99 6.34 -1.98 5.68 -3 5 C-2.01 3.35 -1.02 1.7 0 0 Z " fill="#767676" transform="translate(37,112)"/>
<path d="M0 0 C0.598125 0.20625 1.19625 0.4125 1.8125 0.625 C1.1525 1.945 0.4925 3.265 -0.1875 4.625 C-2.125 4.25 -2.125 4.25 -4.1875 3.625 C-4.5175 2.965 -4.8475 2.305 -5.1875 1.625 C-2.1875 -0.375 -2.1875 -0.375 0 0 Z " fill="#151515" transform="translate(123.1875,41.375)"/>
<path d="M0 0 C2.56269497 1.04109483 4.02610343 2.02610343 6 4 C3.03 4 0.06 4 -3 4 C-2.67 3.01 -2.34 2.02 -2 1 C-1.34 0.67 -0.68 0.34 0 0 Z " fill="#858688" transform="translate(84,87)"/>
<path d="M0 0 C1.8125 0.1875 1.8125 0.1875 4 1 C5.75 3.5625 5.75 3.5625 7 6 C5.68 6 4.36 6 3 6 C0 2.78571429 0 2.78571429 0 0 Z " fill="#555555" transform="translate(122,29)"/>
<path d="M0 0 C0 0.99 0 1.98 0 3 C-1.65 2.67 -3.3 2.34 -5 2 C-5.66 3.65 -6.32 5.3 -7 7 C-7.6875 5.1875 -7.6875 5.1875 -8 3 C-5.85915306 -0.33020635 -3.75910189 -0.30479204 0 0 Z " fill="#C3C3C3" transform="translate(105,18)"/>
<path d="M0 0 C3.26189156 0.5623951 4.91134848 1.4140505 7 4 C7.33 4.99 7.66 5.98 8 7 C4.63718422 5.55879324 2.4480582 3.71035015 0 1 C0 0.67 0 0.34 0 0 Z " fill="#595959" transform="translate(105,13)"/>
<path d="M0 0 C1.125 1.75 1.125 1.75 2 4 C1.375 6.1875 1.375 6.1875 0 8 C-2.125 8.75 -2.125 8.75 -4 9 C-2.80100302 5.9168649 -1.52299523 2.93720508 0 0 Z " fill="#626262" transform="translate(130,93)"/>
<path d="M0 0 C0.66 0 1.32 0 2 0 C2 0.66 2 1.32 2 2 C2.66 2 3.32 2 4 2 C5.06775224 3.96466413 6.06553465 5.96855359 7 8 C6.67 8.66 6.34 9.32 6 10 C0.42857143 3.71428571 0.42857143 3.71428571 0 0 Z " fill="#5E5E5E" transform="translate(3,89)"/>
<path d="M0 0 C0.33 0.99 0.66 1.98 1 3 C1.66 3 2.32 3 3 3 C3.33 4.65 3.66 6.3 4 8 C2.68 8 1.36 8 0 8 C0 5.36 0 2.72 0 0 Z " fill="#A9AAAC" transform="translate(26,55)"/>
<path d="M0 0 C-0.33 1.32 -0.66 2.64 -1 4 C-2.98 4.33 -4.96 4.66 -7 5 C-7.33 4.34 -7.66 3.68 -8 3 C-2.25 0 -2.25 0 0 0 Z " fill="#C7C8CA" transform="translate(51,31)"/>
<path d="M0 0 C0.33 0.66 0.66 1.32 1 2 C1.99 2.33 2.98 2.66 4 3 C1.625 4.5625 1.625 4.5625 -1 6 C-3 5 -3 5 -5 2 C-4.01 1.67 -3.02 1.34 -2 1 C-1.34 1.33 -0.68 1.66 0 2 C0 1.34 0 0.68 0 0 Z " fill="#303030" transform="translate(99,15)"/>
<path d="M0 0 C2.31 0 4.62 0 7 0 C6.67 0.99 6.34 1.98 6 3 C6.66 3.33 7.32 3.66 8 4 C5.6875 4.25 5.6875 4.25 3 4 C1.1875 2 1.1875 2 0 0 Z " fill="#7E8183" transform="translate(87,51)"/>
<path d="M0 0 C0.66 0.66 1.32 1.32 2 2 C1.01 3.32 0.02 4.64 -1 6 C-3.97 5.505 -3.97 5.505 -7 5 C-6.67 4.34 -6.34 3.68 -6 3 C-4.33333333 2.66666667 -2.66666667 2.33333333 -1 2 C-0.67 1.34 -0.34 0.68 0 0 Z " fill="#C9CACC" transform="translate(105,44)"/>
<path d="M0 0 C-0.8125 2.4375 -0.8125 2.4375 -2 5 C-2.99 5.33 -3.98 5.66 -5 6 C-5.33 4.68 -5.66 3.36 -6 2 C-3 0 -3 0 0 0 Z " fill="#9A9B9D" transform="translate(61,33)"/>
<path d="M0 0 C1.32 0.66 2.64 1.32 4 2 C4 2.66 4 3.32 4 4 C1.69 4 -0.62 4 -3 4 C-2.01 2.68 -1.02 1.36 0 0 Z " fill="#88898B" transform="translate(68,101)"/>
<path d="M0 0 C2.31 0.33 4.62 0.66 7 1 C6 3 6 3 4.125 3.6875 C2 4 2 4 -1 3 C-0.67 2.01 -0.34 1.02 0 0 Z " fill="#6D7070" transform="translate(79,34)"/>
<path d="M0 0 C1.32 0.33 2.64 0.66 4 1 C4 1.99 4 2.98 4 4 C3.34 4.66 2.68 5.32 2 6 C2 5.34 2 4.68 2 4 C1.34 4 0.68 4 0 4 C0 2.68 0 1.36 0 0 Z " fill="#6F6F6F" transform="translate(109,106)"/>
<path d="M0 0 C0.33 0 0.66 0 1 0 C1 2.64 1 5.28 1 8 C-0.32 6.68 -1.64 5.36 -3 4 C-2.02727325 2.64664105 -1.0260734 1.31337396 0 0 Z " fill="#D3D5D8" transform="translate(110,66)"/>
<path d="M0 0 C0.99 0.66 1.98 1.32 3 2 C3.1875 5.125 3.1875 5.125 3 8 C2.34 6.68 1.68 5.36 1 4 C-0.32 4 -1.64 4 -3 4 C-2.67 3.01 -2.34 2.02 -2 1 C-1.34 0.67 -0.68 0.34 0 0 Z " fill="#D4D4D4" transform="translate(123,38)"/>
<path d="M0 0 C1.485 0.99 1.485 0.99 3 2 C3 3.32 3 4.64 3 6 C1.68 5.67 0.36 5.34 -1 5 C-0.67 3.35 -0.34 1.7 0 0 Z " fill="#393939" transform="translate(81,12)"/>
<path d="M0 0 C0.66 0 1.32 0 2 0 C2.33 1.32 2.66 2.64 3 4 C1.68 4.33 0.36 4.66 -1 5 C-1 1 -1 1 0 0 Z " fill="#D7DADB" transform="translate(84,30)"/>
<path d="M0 0 C0 0.66 0 1.32 0 2 C-0.99 2 -1.98 2 -3 2 C-3.33 3.32 -3.66 4.64 -4 6 C-4.66 4.68 -5.32 3.36 -6 2 C-3 0 -3 0 0 0 Z " fill="#BDBDBD" transform="translate(48,12)"/>
</svg>
