<?xml version="1.0" encoding="UTF-8"?>
<svg version="1.1" xmlns="http://www.w3.org/2000/svg" width="212" height="238">
<path d="M0 0 C69.96 0 139.92 0 212 0 C212 78.54 212 157.08 212 238 C142.04 238 72.08 238 0 238 C0 159.46 0 80.92 0 0 Z " fill="#2062B0" transform="translate(0,0)"/>
<path d="M0 0 C43.89 0 87.78 0 133 0 C132.34 8.58 131.68 17.16 131 26 C128.40125 27.093125 125.8025 28.18625 123.125 29.3125 C119.41629901 30.87412791 115.70813989 32.43704028 112 34 C110.94603027 34.44408203 109.89206055 34.88816406 108.80615234 35.34570312 C105.47442442 36.75009533 102.14339284 38.15612845 98.8125 39.5625 C97.2668335 40.21375854 97.2668335 40.21375854 95.68994141 40.87817383 C87.09164476 44.51134254 78.55403467 48.25760983 70 52 C89.14 52.33 108.28 52.66 128 53 C126.85184774 75.96304527 126.85184774 75.96304527 126.0625 83.90234375 C125.97750244 84.79764297 125.89250488 85.6929422 125.80493164 86.6153717 C125.54081098 89.38983617 125.27075998 92.16367646 125 94.9375 C124.73113625 97.72926662 124.4635797 100.5211532 124.19702148 103.31314087 C124.02604094 105.10133921 123.85371084 106.88940911 123.67993164 108.67733765 C123.11172527 114.58331912 122.66250085 120.48316777 122.34375 126.40844727 C121.96206178 129.2860186 121.38000848 131.44096861 120 134 C118.22607422 135.00732422 118.22607422 135.00732422 116.0546875 135.5546875 C115.23621338 135.77350586 114.41773926 135.99232422 113.57446289 136.21777344 C112.23822876 136.54310059 112.23822876 136.54310059 110.875 136.875 C108.97490962 137.37627636 107.07518429 137.87893799 105.17578125 138.3828125 C103.67265381 138.77194824 103.67265381 138.77194824 102.13916016 139.16894531 C96.75118667 140.59534613 91.40950321 142.17822287 86.0625 143.75 C85.05106934 144.04374512 84.03963867 144.33749023 82.99755859 144.64013672 C82.04059082 144.91873535 81.08362305 145.19733398 80.09765625 145.484375 C79.20062988 145.74412109 78.30360352 146.00386719 77.37939453 146.27148438 C75.47472396 146.85465049 73.6025558 147.54354372 71.74609375 148.265625 C65.19618161 150.01723735 57.95279446 146.97405151 51.6484375 145.12890625 C50.18284897 144.70532082 50.18284897 144.70532082 48.68765259 144.2731781 C46.63128615 143.67777249 44.57558127 143.08007779 42.52050781 142.48022461 C39.37984671 141.56391406 36.23700461 140.65541608 33.09375 139.74804688 C31.09101257 139.16712589 29.0884039 138.58576079 27.0859375 138.00390625 C26.14938324 137.73300674 25.21282898 137.46210724 24.24789429 137.18299866 C20.07851086 135.96304067 15.99202585 134.7343262 12 133 C11.57007951 127.9648231 11.1429123 122.92942292 10.71826172 117.89379883 C10.57350544 116.18182105 10.42800544 114.46990599 10.28173828 112.75805664 C10.0712706 110.29329396 9.86350456 107.82831594 9.65625 105.36328125 C9.59062866 104.60163162 9.52500732 103.83998199 9.45739746 103.05525208 C9.14783352 99.34243129 9 95.73295499 9 92 C17.91 92 26.82 92 36 92 C36.75115321 95.00461285 37.16527775 97.305555 37.31640625 100.328125 C37.35830078 101.12734375 37.40019531 101.9265625 37.44335938 102.75 C37.48267578 103.575 37.52199219 104.4 37.5625 105.25 C37.60568359 106.09046875 37.64886719 106.9309375 37.69335938 107.796875 C37.79908543 109.86440671 37.90001295 111.93218281 38 114 C39.155 114.12246094 40.31 114.24492187 41.5 114.37109375 C46.4724534 114.99155614 51.18633969 116.26841032 56 117.62695312 C65.81672093 120.24410626 73.30129503 118.36326742 82.875 115.5 C85.12180139 114.84171769 87.36916922 114.18536458 89.6171875 113.53125 C90.60315918 113.23798828 91.58913086 112.94472656 92.60498047 112.64257812 C95 112 95 112 97 112 C96.98839844 110.93523437 96.97679687 109.87046875 96.96484375 108.7734375 C96.78331788 84.65004635 96.78331788 84.65004635 99 78 C68.64 78 38.28 78 7 78 C6.36588408 71.65884075 5.85961383 65.68977133 5.9375 59.375 C5.94201172 58.65699219 5.94652344 57.93898437 5.95117188 57.19921875 C5.96272595 55.46610792 5.98064842 53.7330413 6 52 C21.92595797 45.12325869 37.88682817 38.3450583 53.93041992 31.74707031 C55.09033447 31.26979492 56.25024902 30.79251953 57.4453125 30.30078125 C58.98469482 29.66910034 58.98469482 29.66910034 60.55517578 29.0246582 C62.0567083 28.39534604 63.54380395 27.72809803 65 27 C44.54 26.67 24.08 26.34 3 26 C1.7662163 17.36351409 0.72450274 8.69403283 0 0 Z " fill="#DEDEDE" transform="translate(39,44)"/>
<path d="M0 0 C28.38 0 56.76 0 86 0 C85.39809491 11.4361967 84.74613362 22.70006791 83.5625 34.0625 C83.28926804 36.76265755 83.02065988 39.46325776 82.75390625 42.1640625 C82.68797272 42.83076462 82.62203918 43.49746674 82.55410767 44.18437195 C81.94409405 50.42908083 81.45727856 56.68005526 81 62.9375 C80.31857319 72.19951558 79.51163655 81.44289848 78.625 90.6875 C77.02747972 107.36672988 75.61110883 124.06021157 74.20440674 140.75648499 C73.88632101 144.52892098 73.56690443 148.3012437 73.24725342 152.07354736 C73.07637311 154.09605988 72.90638629 156.11864802 72.73712158 158.14129639 C72.47416053 161.28059237 72.20805486 164.4196091 71.94140625 167.55859375 C71.86188217 168.51669449 71.78235809 169.47479523 71.70042419 170.46192932 C71.31049817 175.01854443 70.84577344 179.49966151 70 184 C69.17592651 184.21148682 69.17592651 184.21148682 68.33520508 184.42724609 C65.82674079 185.07307317 63.31962371 185.72398903 60.8125 186.375 C59.94818359 186.59671875 59.08386719 186.8184375 58.19335938 187.046875 C56.93168945 187.37558594 56.93168945 187.37558594 55.64453125 187.7109375 C54.87471924 187.90993652 54.10490723 188.10893555 53.31176758 188.31396484 C50.95445287 188.97334229 50.95445287 188.97334229 48.57421875 189.98144531 C45.80148389 191.07854792 43.05599955 191.84508372 40.16796875 192.5859375 C39.04648438 192.87525146 37.925 193.16456543 36.76953125 193.46264648 C35.58746094 193.76372314 34.40539062 194.0647998 33.1875 194.375 C31.37765625 194.83918335 31.37765625 194.83918335 29.53125 195.31274414 C27.12591228 195.92874133 24.72015805 196.54311474 22.31396484 197.15576172 C19.4645674 197.88165065 16.61675655 198.61330915 13.76953125 199.34765625 C12.34647093 199.71139464 10.92330499 200.07472019 9.5 200.4375 C8.2934375 200.74558594 7.086875 201.05367187 5.84375 201.37109375 C3 202 3 202 0 202 C0 193.42 0 184.84 0 176 C10.60044316 172.39790766 21.23913313 169.08569322 32 166 C33.38614502 165.60216309 33.38614502 165.60216309 34.80029297 165.19628906 C40.86488336 163.45723032 46.93155135 161.72554474 53 160 C53.77365202 157.17976705 54.20369736 154.49762575 54.43310547 151.58398438 C54.50342987 150.71366577 54.57375427 149.84334717 54.64620972 148.94665527 C54.71913239 148.00519653 54.79205505 147.06373779 54.8671875 146.09375 C54.98756882 144.60373474 54.98756882 144.60373474 55.11038208 143.08361816 C55.45189098 138.85627613 55.78594727 134.62835677 56.11962891 130.40039062 C57.45552174 113.55582606 59.19870588 96.81207843 61 80 C41.2 80 21.4 80 1 80 C3.50893593 77.49106407 6.28748477 76.42835031 9.5 75.0625 C10.18344482 74.76746582 10.86688965 74.47243164 11.57104492 74.16845703 C19.56009843 70.73183958 27.57839479 67.36173396 35.59765625 63.99633789 C41.64724686 61.45062221 47.64127409 58.82414869 53.58203125 56.03295898 C56.99792428 54.57368562 60.36822706 53.7537642 64 53 C63.98839844 52.34515625 63.97679687 51.6903125 63.96484375 51.015625 C63.79286694 33.62139918 63.79286694 33.62139918 66 27 C22.11 27 -21.78 27 -67 27 C-67 26.67 -67 26.34 -67 26 C-44.89 26 -22.78 26 0 26 C0 17.42 0 8.84 0 0 Z " fill="#3D9BD7" transform="translate(106,17)"/>
<path d="M0 0 C20.13 0 40.26 0 61 0 C59.85184774 22.96304527 59.85184774 22.96304527 59.0625 30.90234375 C58.97750244 31.79764297 58.89250488 32.6929422 58.80493164 33.6153717 C58.54081098 36.38983617 58.27075998 39.16367646 58 41.9375 C57.73113625 44.72926662 57.4635797 47.5211532 57.19702148 50.31314087 C57.02604094 52.10133921 56.85371084 53.88940911 56.67993164 55.67733765 C56.11172527 61.58331912 55.66250085 67.48316777 55.34375 73.40844727 C54.96206178 76.2860186 54.38000848 78.44096861 53 81 C51.22607422 82.00732422 51.22607422 82.00732422 49.0546875 82.5546875 C48.23621338 82.77350586 47.41773926 82.99232422 46.57446289 83.21777344 C45.23822876 83.54310059 45.23822876 83.54310059 43.875 83.875 C41.97490962 84.37627636 40.07518429 84.87893799 38.17578125 85.3828125 C37.17369629 85.64223633 36.17161133 85.90166016 35.13916016 86.16894531 C29.75118667 87.59534613 24.40950321 89.17822287 19.0625 90.75 C17.545354 91.19061768 17.545354 91.19061768 15.99755859 91.64013672 C15.04059082 91.91873535 14.08362305 92.19733398 13.09765625 92.484375 C12.20062988 92.74412109 11.30360352 93.00386719 10.37939453 93.27148438 C8.47472396 93.85465049 6.6025558 94.54354372 4.74609375 95.265625 C-1.80381839 97.01723735 -9.04720554 93.97405151 -15.3515625 92.12890625 C-16.32862152 91.84651596 -17.30568054 91.56412567 -18.31234741 91.2731781 C-20.36871385 90.67777249 -22.42441873 90.08007779 -24.47949219 89.48022461 C-27.62015329 88.56391406 -30.76299539 87.65541608 -33.90625 86.74804688 C-35.90898743 86.16712589 -37.9115961 85.58576079 -39.9140625 85.00390625 C-40.85061676 84.73300674 -41.78717102 84.46210724 -42.75210571 84.18299866 C-46.92148914 82.96304067 -51.00797415 81.7343262 -55 80 C-55.42992049 74.9648231 -55.8570877 69.92942292 -56.28173828 64.89379883 C-56.42649456 63.18182105 -56.57199456 61.46990599 -56.71826172 59.75805664 C-56.9287294 57.29329396 -57.13649544 54.82831594 -57.34375 52.36328125 C-57.44218201 51.22080681 -57.44218201 51.22080681 -57.54260254 50.05525208 C-57.85216648 46.34243129 -58 42.73295499 -58 39 C-49.09 39 -40.18 39 -31 39 C-30.24884679 42.00461285 -29.83472225 44.305555 -29.68359375 47.328125 C-29.64169922 48.12734375 -29.59980469 48.9265625 -29.55664062 49.75 C-29.51732422 50.575 -29.47800781 51.4 -29.4375 52.25 C-29.39431641 53.09046875 -29.35113281 53.9309375 -29.30664062 54.796875 C-29.20091457 56.86440671 -29.09998705 58.93218281 -29 61 C-27.2675 61.18369141 -27.2675 61.18369141 -25.5 61.37109375 C-20.5275466 61.99155614 -15.81366031 63.26841032 -11 64.62695312 C-1.18327907 67.24410626 6.30129503 65.36326742 15.875 62.5 C18.12180139 61.84171769 20.36916922 61.18536458 22.6171875 60.53125 C23.60315918 60.23798828 24.58913086 59.94472656 25.60498047 59.64257812 C28 59 28 59 30 59 C29.98839844 57.93523437 29.97679687 56.87046875 29.96484375 55.7734375 C29.78331788 31.65004635 29.78331788 31.65004635 32 25 C21.44 25 10.88 25 0 25 C0 18.4 0 11.8 0 5 C-0.66 4.67 -1.32 4.34 -2 4 C-1.34 4 -0.68 4 0 4 C0 2.68 0 1.36 0 0 Z " fill="#F8F9F8" transform="translate(106,97)"/>
<path d="M0 0 C0.33 0 0.66 0 1 0 C1 78.54 1 157.08 1 238 C-33.32 238 -67.64 238 -103 238 C-99.8115869 235.87439127 -97.37321009 235.15051607 -93.68359375 234.16821289 C-93.04733566 233.99717545 -92.41107758 233.826138 -91.75553894 233.6499176 C-89.65089772 233.08555161 -87.54424724 232.52910407 -85.4375 231.97265625 C-83.96585098 231.57963145 -82.49433596 231.18610456 -81.02294922 230.792099 C-77.14210342 229.75429768 -73.25952089 228.72314676 -69.37652588 227.69342041 C-65.46223668 226.65425439 -61.54952005 225.60920495 -57.63671875 224.56445312 C-53.21982611 223.3853828 -48.80279008 222.20687954 -44.38452148 221.03297424 C-43.70999435 220.85367087 -43.03546722 220.6743675 -42.34049988 220.4896307 C-40.41104816 219.97698663 -38.48140597 219.46505966 -36.55175781 218.95315552 C-32.40764053 217.84103345 -28.27627502 216.68617298 -24.14990234 215.50999451 C-22 215 -22 215 -19 215 C-18.94811523 213.83944092 -18.89623047 212.67888184 -18.84277344 211.4831543 C-18.34993877 201.03385974 -17.57638557 190.65384495 -16.5012207 180.24932861 C-16.04643805 175.83795899 -15.60914048 171.42485405 -15.171875 167.01171875 C-15.07769287 166.06232422 -14.98351074 165.11292969 -14.88647461 164.13476562 C-13.67274986 151.80593106 -12.59091864 139.46518735 -11.5 127.125 C-11.07462076 122.32157889 -10.64882878 117.51819454 -10.22265625 112.71484375 C-10.11883133 111.54455627 -10.01500641 110.3742688 -9.90803528 109.16851807 C-8.94516959 98.3389459 -7.94925683 87.51260296 -6.9375 76.6875 C-6.85776947 75.83381836 -6.77803894 74.98013672 -6.69589233 74.10058594 C-6.21594102 68.96418563 -5.73453071 63.82792292 -5.25256348 58.69171143 C-4.52590896 50.94734441 -3.80060913 43.2028521 -3.0774231 35.4581604 C-2.82129095 32.71901284 -2.56388802 29.97998685 -2.30639648 27.2409668 C-1.45663509 18.16561824 -0.65442856 9.09191936 0 0 Z " fill="#FBFCFD" transform="translate(211,0)"/>
<path d="M0 0 C0.33 0 0.66 0 1 0 C1.06184479 0.72675934 1.12368958 1.45351868 1.18740845 2.20230103 C1.99454946 11.67699937 2.80754635 21.15118639 3.625 30.625 C3.69201111 31.40161987 3.75902222 32.17823975 3.82806396 32.97839355 C5.75870718 55.33229846 7.79826475 77.67098639 10 100 C12.17100559 122.03834202 14.19876249 144.08535846 16.11364746 166.14727783 C16.30996999 168.40836143 16.50687013 170.66939415 16.70385742 172.93041992 C17.01402613 176.49401486 17.32218932 180.0577779 17.62868309 183.62169075 C17.79341992 185.53557124 17.95922318 187.44935984 18.12507629 189.36314392 C18.85385624 197.90331919 19.45582652 206.44637155 20 215 C20.88132599 215.16353973 20.88132599 215.16353973 21.78045654 215.3303833 C28.46752491 216.61422586 35.0103393 218.25710363 41.578125 220.046875 C42.66599304 220.34055969 43.75386108 220.63424438 44.87469482 220.93682861 C48.33396226 221.87150671 51.79198748 222.81069108 55.25 223.75 C57.52335812 224.36487689 59.79679506 224.97946245 62.0703125 225.59375 C76.05268996 229.37444469 90.02749528 233.18299808 104 237 C104 237.33 104 237.66 104 238 C69.68 238 35.36 238 0 238 C0 159.46 0 80.92 0 0 Z " fill="#FCFDFD" transform="translate(0,0)"/>
<path d="M0 0 C8.91 0 17.82 0 27 0 C27.75115321 3.00461285 28.16527775 5.305555 28.31640625 8.328125 C28.35830078 9.12734375 28.40019531 9.9265625 28.44335938 10.75 C28.48267578 11.575 28.52199219 12.4 28.5625 13.25 C28.60568359 14.09046875 28.64886719 14.9309375 28.69335938 15.796875 C28.79908543 17.86440671 28.90001295 19.93218281 29 22 C30.15757813 22.12246094 31.31515625 22.24492187 32.5078125 22.37109375 C36.75773353 22.90116529 40.7560288 23.91946526 44.875 25.0625 C51.00809471 26.69321537 56.62027706 27.55209141 63 27 C62.67 27.66 62.34 28.32 62 29 C59.9375 29.625 59.9375 29.625 58 30 C58.02320313 31.27617187 58.04640625 32.55234375 58.0703125 33.8671875 C58.08906829 35.5364525 58.10726869 37.2057238 58.125 38.875 C58.14175781 39.71675781 58.15851563 40.55851562 58.17578125 41.42578125 C58.18544922 42.63427734 58.18544922 42.63427734 58.1953125 43.8671875 C58.21102295 44.98262939 58.21102295 44.98262939 58.22705078 46.12060547 C58 48 58 48 56 50 C56.33 50.99 56.66 51.98 57 53 C56.67 53.33 56.34 53.66 56 54 C57.32 54.99 58.64 55.98 60 57 C54.00806615 56.32676629 48.42761786 54.82034399 42.6484375 53.12890625 C41.67137848 52.84651596 40.69431946 52.56412567 39.68765259 52.2731781 C37.63128615 51.67777249 35.57558127 51.08007779 33.52050781 50.48022461 C30.37984671 49.56391406 27.23700461 48.65541608 24.09375 47.74804688 C22.09101257 47.16712589 20.0884039 46.58576079 18.0859375 46.00390625 C17.14938324 45.73300674 16.21282898 45.46210724 15.24789429 45.18299866 C11.07851086 43.96304067 6.99202585 42.7343262 3 41 C2.57007951 35.9648231 2.1429123 30.92942292 1.71826172 25.89379883 C1.57350544 24.18182105 1.42800544 22.46990599 1.28173828 20.75805664 C1.0712706 18.29329396 0.86350456 15.82831594 0.65625 13.36328125 C0.59062866 12.60163162 0.52500732 11.83998199 0.45739746 11.05525208 C0.14783352 7.34243129 0 3.73295499 0 0 Z " fill="#E0E0DF" transform="translate(48,136)"/>
<path d="M0 0 C21.78 0 43.56 0 66 0 C64 23 64 23 63 25 C59.98657275 26.00447575 57.97861178 26.12669609 54.8293457 26.12939453 C53.24673698 26.13412277 53.24673698 26.13412277 51.63215637 26.13894653 C50.49155258 26.1369223 49.35094879 26.13489807 48.17578125 26.1328125 C47.00041306 26.13376923 45.82504486 26.13472595 44.61405945 26.13571167 C42.12332099 26.13639285 39.63258076 26.13454291 37.1418457 26.13037109 C33.34517371 26.12504583 29.54862131 26.13030588 25.75195312 26.13671875 C23.33072891 26.13605749 20.90950476 26.13477534 18.48828125 26.1328125 C16.7925573 26.13584885 16.7925573 26.13584885 15.06257629 26.13894653 C9.27910488 26.12192201 3.71916102 25.87346556 -2 25 C-2 24.01 -2 23.02 -2 22 C-1.34 22 -0.68 22 0 22 C0 14.74 0 7.48 0 0 Z " fill="#F8F8F8" transform="translate(106,44)"/>
<path d="M0 0 C1.66656881 -0.02757191 3.33327851 -0.04664803 5 -0.0625 C5.928125 -0.07410156 6.85625 -0.08570312 7.8125 -0.09765625 C11 0 11 0 14.57617188 0.5 C19.3815903 1.11628421 24.13011028 1.12611916 28.96875 1.09765625 C29.88966431 1.0962413 30.81057861 1.09482635 31.75939941 1.09336853 C34.67296734 1.08781407 37.58645568 1.07527025 40.5 1.0625 C42.48697805 1.05747911 44.47395731 1.05291723 46.4609375 1.04882812 C51.30734628 1.03871458 56.15358506 1.01913059 61 1 C61 9.25 61 17.5 61 26 C41.2 26 21.4 26 1 26 C0.36588408 19.65884075 -0.14038617 13.68977133 -0.0625 7.375 C-0.05798828 6.65699219 -0.05347656 5.93898438 -0.04882812 5.19921875 C-0.03727405 3.46610792 -0.01935158 1.7330413 0 0 Z " fill="#E1E1DF" transform="translate(45,96)"/>
<path d="M0 0 C30.36 0 60.72 0 92 0 C91.34 11.22 90.68 22.44 90 34 C64.4 42 64.4 42 60 42 C60 28.47 60 14.94 60 1 C40.2 1 20.4 1 0 1 C0 0.67 0 0.34 0 0 Z " fill="#3C9BD8" transform="translate(46,122)"/>
<path d="M0 0 C0.495 1.485 0.495 1.485 1 3 C-0.06992188 3.44988281 -1.13984375 3.89976563 -2.2421875 4.36328125 C-9.78951848 7.53836532 -17.33524683 10.71710861 -24.875 13.91015625 C-26.03531738 14.40153076 -27.19563477 14.89290527 -28.39111328 15.39916992 C-30.68654588 16.37155185 -32.9817978 17.34436043 -35.27685547 18.31762695 C-36.33791504 18.76710693 -37.39897461 19.21658691 -38.4921875 19.6796875 C-39.43433105 20.07913574 -40.37647461 20.47858398 -41.34716797 20.89013672 C-42.22260254 21.2563916 -43.09803711 21.62264648 -44 22 C-44.87027832 22.37527832 -45.74055664 22.75055664 -46.63720703 23.13720703 C-49.52199882 24.19061209 -51.95341668 24.14170155 -55 24 C-55 23.34 -55 22.68 -55 22 C-57.64 22 -60.28 22 -63 22 C-63 16.39 -63 10.78 -63 5 C-65.7113221 3.64433895 -67.88307998 3.83768915 -70.91845703 3.79467773 C-72.15959259 3.77473251 -73.40072815 3.75478729 -74.67947388 3.73423767 C-76.0389188 3.7172534 -77.39836505 3.70037459 -78.7578125 3.68359375 C-80.14501567 3.66302419 -81.53221257 3.64202772 -82.91940308 3.62062073 C-86.57227505 3.56540019 -90.22520359 3.51599089 -93.87817383 3.46777344 C-97.60503174 3.41755825 -101.33180741 3.36187229 -105.05859375 3.30664062 C-112.37232621 3.19905929 -119.68612701 3.09761432 -127 3 C-127 2.67 -127 2.34 -127 2 C-85.09 2 -43.18 2 0 2 C0 1.34 0 0.68 0 0 Z " fill="#D0D3D7" transform="translate(169,67)"/>
<path d="M0 0 C0.33 0 0.66 0 1 0 C1.78641868 8.85795703 2.56904364 17.71623886 3.34690857 26.57495117 C3.70827007 30.68896766 4.07090745 34.80286316 4.43652344 38.91650391 C4.78971326 42.89087857 5.13946954 46.86554216 5.48690796 50.84042358 C5.61965229 52.35227099 5.75360621 53.86401272 5.88882446 55.37564087 C7.72396123 75.91405815 7.72396123 75.91405815 5 80 C5 77.69 5 75.38 5 73 C1.9254644 73.7763932 1.9254644 73.7763932 0 76 C0 50.92 0 25.84 0 0 Z " fill="#F5F6F6" transform="translate(0,0)"/>
<path d="M0 0 C0 0.66 0 1.32 0 2 C1.32 2.33 2.64 2.66 4 3 C3.34 3.66 2.68 4.32 2 5 C-0.31 5 -2.62 5 -5 5 C-5 10.61 -5 16.22 -5 22 C-2.03 22.33 0.94 22.66 4 23 C4.33 23.99 4.66 24.98 5 26 C-5.15037594 29.78947368 -5.15037594 29.78947368 -10 29 C-12.84780619 26.76793569 -13.84997666 25.45007001 -15 22 C-13.35 21.67 -11.7 21.34 -10 21 C-10 15.06 -10 9.12 -10 3 C-10.66 2.67 -11.32 2.34 -12 2 C-7.8803623 0.70756464 -4.33168317 -0.26252625 0 0 Z M-7 22 C-7 22.99 -7 23.98 -7 25 C-5.02 25 -3.04 25 -1 25 C-1 24.34 -1 23.68 -1 23 C-3.97 22.505 -3.97 22.505 -7 22 Z " fill="#F2F3F1" transform="translate(116,163)"/>
<path d="M0 0 C30.36 0 60.72 0 92 0 C91.67 1.32 91.34 2.64 91 4 C80.77 4 70.54 4 60 4 C60 3.01 60 2.02 60 1 C40.2 1 20.4 1 0 1 C0 0.67 0 0.34 0 0 Z " fill="#5096CE" transform="translate(46,122)"/>
<path d="M0 0 C7.26 0 14.52 0 22 0 C22 0.66 22 1.32 22 2 C13.585 2.495 13.585 2.495 5 3 C5.33 9.6 5.66 16.2 6 23 C3.29120665 24.35439668 0.99066732 24.06501451 -2 24 C-2 23.01 -2 22.02 -2 21 C-1.34 21 -0.68 21 0 21 C0 14.07 0 7.14 0 0 Z " fill="#F4F3EE" transform="translate(106,45)"/>
<path d="M0 0 C0.33 0 0.66 0 1 0 C1.57435859 6.1193631 2.14386327 12.2391519 2.70898438 18.359375 C2.90167894 20.43892443 3.09567134 22.51835405 3.29101562 24.59765625 C3.57247348 27.59604396 3.84917482 30.59483952 4.125 33.59375 C4.21249512 34.51490601 4.29999023 35.43606201 4.39013672 36.38513184 C4.86603968 41.61647357 5.08576302 46.74701494 5 52 C4.67 50.68 4.34 49.36 4 48 C2.68 48 1.36 48 0 48 C0 32.16 0 16.32 0 0 Z " fill="#E6EDF4" transform="translate(0,0)"/>
<path d="M0 0 C8.91 0 17.82 0 27 0 C27 0.33 27 0.66 27 1 C20.4 1 13.8 1 7 1 C7.33 3.64 7.66 6.28 8 9 C6.68 9.33 5.36 9.66 4 10 C3.34 12.64 2.68 15.28 2 18 C1.67 18 1.34 18 1 18 C0.67 12.06 0.34 6.12 0 0 Z " fill="#C4C9D1" transform="translate(48,136)"/>
<path d="M0 0 C0 2.64 0 5.28 0 8 C-4.95 8 -9.9 8 -15 8 C-12.9079663 3.8159326 -12.61950135 3.42211684 -8.625 1.75 C-7.85414062 1.41484375 -7.08328125 1.0796875 -6.2890625 0.734375 C-4 0 -4 0 0 0 Z " fill="#EBF0F2" transform="translate(106,72)"/>
<path d="M0 0 C1.32 0 2.64 0 4 0 C4.89109922 3.07251011 5.16339724 5.86647393 5.1875 9.0625 C5.20167969 9.91972656 5.21585937 10.77695312 5.23046875 11.66015625 C5 14 5 14 3 17 C2.01 17.33 1.02 17.66 0 18 C0 12.06 0 6.12 0 0 Z " fill="#FAFDFD" transform="translate(0,48)"/>
<path d="M0 0 C0.33 0 0.66 0 1 0 C1.03440186 0.62044189 1.06880371 1.24088379 1.10424805 1.88012695 C1.27408079 4.6930311 1.48034134 7.50210869 1.6875 10.3125 C1.74099609 11.28896484 1.79449219 12.26542969 1.84960938 13.27148438 C2.06082819 15.9438616 2.29914773 18.41157979 3 21 C5.37708405 23.25918351 5.37708405 23.25918351 8 24 C7.67 24.99 7.34 25.98 7 27 C4.69 26.34 2.38 25.68 0 25 C-0.19789024 21.77138267 -0.38146345 18.54210273 -0.5625 15.3125 C-0.61857422 14.40048828 -0.67464844 13.48847656 -0.73242188 12.54882812 C-0.78076172 11.66259766 -0.82910156 10.77636719 -0.87890625 9.86328125 C-0.9260376 9.05157471 -0.97316895 8.23986816 -1.02172852 7.40356445 C-0.99838228 4.8210515 -0.5804792 2.51150091 0 0 Z " fill="#CDD2D5" transform="translate(51,152)"/>
<path d="M0 0 C0.61875 0.495 1.2375 0.99 1.875 1.5 C3.83880904 3.19222773 3.83880904 3.19222773 6 3 C6.33 5.97 6.66 8.94 7 12 C5.68 12 4.36 12 3 12 C3.99 13.32 4.98 14.64 6 16 C4.68 16 3.36 16 2 16 C1.66388432 13.89627599 1.33120054 11.79200343 1 9.6875 C0.814375 8.51574219 0.62875 7.34398437 0.4375 6.13671875 C0 3 0 3 0 0 Z " fill="#D8DAD9" transform="translate(40,53)"/>
<path d="M0 0 C0.99 0.66 1.98 1.32 3 2 C1.35 2.66 -0.3 3.32 -2 4 C-0.68 4.99 0.64 5.98 2 7 C1.67 7.33 1.34 7.66 1 8 C-1.53541298 7.90913549 -4.03554784 7.7629055 -6.5625 7.5625 C-7.27341797 7.51029297 -7.98433594 7.45808594 -8.71679688 7.40429688 C-10.47821999 7.27425893 -12.23916173 7.13773103 -14 7 C-11.55632062 4.55632062 -9.23291303 3.61808126 -6.0625 2.25 C-5.00160156 1.78078125 -3.94070312 1.3115625 -2.84765625 0.828125 C-1.43806641 0.41820313 -1.43806641 0.41820313 0 0 Z " fill="#CBD2D9" transform="translate(61,89)"/>
<path d="M0 0 C0.33 0 0.66 0 1 0 C1.22567411 3.77000648 1.42755846 7.54091787 1.625 11.3125 C1.68945312 12.38435547 1.75390625 13.45621094 1.8203125 14.56054688 C1.871875 15.58857422 1.9234375 16.61660156 1.9765625 17.67578125 C2.02893066 18.62364502 2.08129883 19.57150879 2.13525391 20.5480957 C2 23 2 23 0 26 C-0.66 25.34 -1.32 24.68 -2 24 C-1.34 24 -0.68 24 0 24 C0 18.72 0 13.44 0 8 C-0.66 8 -1.32 8 -2 8 C-2.20086443 4.28400809 -2.1519437 3.22791555 0 0 Z " fill="#2B6DB8" transform="translate(44,96)"/>
<path d="M0 0 C0.33 0 0.66 0 1 0 C1.96205088 6.37358711 2.10655578 12.55929529 2 19 C1.34 19 0.68 19 0 19 C-0.33 20.32 -0.66 21.64 -1 23 C-0.67 15.41 -0.34 7.82 0 0 Z " fill="#D6E7EF" transform="translate(137,125)"/>
<path d="M0 0 C0.66 0 1.32 0 2 0 C4.03974314 7.20385476 2.92920059 14.68254538 2 22 C1.67 22 1.34 22 1 22 C0.67 14.74 0.34 7.48 0 0 Z " fill="#145CAB" transform="translate(196,128)"/>
<path d="M0 0 C-0.66 1.32 -1.32 2.64 -2 4 C-2.66 4 -3.32 4 -4 4 C-4 4.66 -4 5.32 -4 6 C-6.02045442 5.39816251 -8.02111039 4.72693904 -10 4 C-10.33 3.34 -10.66 2.68 -11 2 C-3.57142857 -1.57142857 -3.57142857 -1.57142857 0 0 Z " fill="#E1E5E8" transform="translate(90,80)"/>
<path d="M0 0 C4.29 0.33 8.58 0.66 13 1 C13 1.66 13 2.32 13 3 C7.51053913 4.12029814 4.16569441 3.79217969 -1 2 C-0.67 1.34 -0.34 0.68 0 0 Z " fill="#2A69B2" transform="translate(98,234)"/>
<path d="M0 0 C0.33 1.32 0.66 2.64 1 4 C1.99 4 2.98 4 4 4 C4 4.66 4 5.32 4 6 C3.34 6 2.68 6 2 6 C2.2475 6.886875 2.495 7.77375 2.75 8.6875 C3 12 3 12 -1 17 C-0.67 11.39 -0.34 5.78 0 0 Z " fill="#E1E8EF" transform="translate(193,196)"/>
<path d="M0 0 C-0.33 0.99 -0.66 1.98 -1 3 C-4.96 3 -8.92 3 -13 3 C-13.33 2.34 -13.66 1.68 -14 1 C-8.83955235 -0.512545 -5.34001821 -1.33500455 0 0 Z " fill="#E8EFF2" transform="translate(180,220)"/>
<path d="M0 0 C1.83117102 3.13188377 2.2718057 5.44820595 2.25 9.0625 C2.25515625 9.91972656 2.2603125 10.77695312 2.265625 11.66015625 C2 14 2 14 0 17 C-0.19386492 14.35448944 -0.38038267 11.70882217 -0.5625 9.0625 C-0.61857422 8.30775391 -0.67464844 7.55300781 -0.73242188 6.77539062 C-0.86176157 4.85254042 -0.93516912 2.92610452 -1 1 C-0.67 0.67 -0.34 0.34 0 0 Z " fill="#195EA9" transform="translate(5,36)"/>
<path d="M0 0 C0.33 0 0.66 0 1 0 C2.15316726 6.34241995 2.09507063 12.56688704 2 19 C1.01 19 0.02 19 -1 19 C-0.67 12.73 -0.34 6.46 0 0 Z " fill="#4EA3DA" transform="translate(164,125)"/>
<path d="M0 0 C0.33 0 0.66 0 1 0 C1 2.64 1 5.28 1 8 C1.66 8 2.32 8 3 8 C3 11.3 3 14.6 3 18 C2.34 18.33 1.68 18.66 1 19 C0.03794912 12.62641289 -0.10655578 6.44070471 0 0 Z " fill="#155FA7" transform="translate(12,120)"/>
<path d="M0 0 C1.98 0 3.96 0 6 0 C6 2.31 6 4.62 6 7 C3.03 6.505 3.03 6.505 0 6 C0 5.34 0 4.68 0 4 C0.66 4 1.32 4 2 4 C2.33 3.01 2.66 2.02 3 1 C2.01 0.67 1.02 0.34 0 0 Z " fill="#EBF5F5" transform="translate(161,97)"/>
<path d="M0 0 C0.99 0 1.98 0 3 0 C3 4.29 3 8.58 3 13 C-0.375 8.5 -0.375 8.5 -0.1875 4.25 C-0.16042969 3.45078125 -0.13335937 2.6515625 -0.10546875 1.828125 C-0.07066406 1.22484375 -0.03585938 0.6215625 0 0 Z " fill="#2669B4" transform="translate(177,179)"/>
<path d="M0 0 C0.66 0.33 1.32 0.66 2 1 C1.67 2.32 1.34 3.64 1 5 C-1.64 4.67 -4.28 4.34 -7 4 C-4.61426621 2.10786631 -2.92824652 0.97608217 0 0 Z " fill="#4DA2D4" transform="translate(125,88)"/>
<path d="M0 0 C2.875 -0.125 2.875 -0.125 6 0 C6.66 0.66 7.32 1.32 8 2 C4.7 3.32 1.4 4.64 -2 6 C-2 5.34 -2 4.68 -2 4 C-1.01 3.67 -0.02 3.34 1 3 C1.33 2.34 1.66 1.68 2 1 C1.34 0.67 0.68 0.34 0 0 Z " fill="#C5D4DD" transform="translate(152,72)"/>
<path d="M0 0 C0 1.98 0 3.96 0 6 C0.66 6.33 1.32 6.66 2 7 C1.01 7.495 1.01 7.495 0 8 C-2.52588702 5.63707344 -3.88820837 4.33537489 -5 1 C-2 0 -2 0 0 0 Z " fill="#EDE9E8" transform="translate(106,184)"/>
<path d="M0 0 C2.13586678 3.20380017 2.23132175 4.01939967 2.125 7.6875 C2.10695312 8.49574219 2.08890625 9.30398437 2.0703125 10.13671875 C2.04710937 10.75160156 2.02390625 11.36648437 2 12 C0.02833476 8.35443121 -0.60930794 5.14133583 -1 1 C-0.67 0.67 -0.34 0.34 0 0 Z " fill="#1A5AAD" transform="translate(205,40)"/>
<path d="M0 0 C-3.08559304 2.26881841 -4.42209376 3.05451946 -8.3125 2.6875 C-9.199375 2.460625 -10.08625 2.23375 -11 2 C-7.00042393 -0.06874624 -4.43559483 -1.37656391 0 0 Z " fill="#E6EEF8" transform="translate(152,227)"/>
<path d="M0 0 C4.455 0.99 4.455 0.99 9 2 C8.01 2.33 7.02 2.66 6 3 C6 3.66 6 4.32 6 5 C4.125 4.75 4.125 4.75 2 4 C1.34 2.68 0.68 1.36 0 0 Z " fill="#EAF1F3" transform="translate(54,224)"/>
<path d="M0 0 C-0.66 1.32 -1.32 2.64 -2 4 C-4.97 3.505 -4.97 3.505 -8 3 C-8 2.34 -8 1.68 -8 1 C-5.29120665 -0.35439668 -2.99066732 -0.06501451 0 0 Z " fill="#225DA4" transform="translate(168,218)"/>
<path d="M0 0 C1.65 0 3.3 0 5 0 C5 0.66 5 1.32 5 2 C6.32 2.33 7.64 2.66 9 3 C5.18510326 4.46726798 2.70988378 3.43336419 -1 2 C-0.67 1.34 -0.34 0.68 0 0 Z " fill="#CBD9E1" transform="translate(109,89)"/>
<path d="M0 0 C2.31 0.33 4.62 0.66 7 1 C6.01 1.33 5.02 1.66 4 2 C4 2.66 4 3.32 4 4 C1.03 3.505 1.03 3.505 -2 3 C-1.34 2.67 -0.68 2.34 0 2 C0 1.34 0 0.68 0 0 Z " fill="#306EB5" transform="translate(76,227)"/>
<path d="M0 0 C1.32 0.33 2.64 0.66 4 1 C3.67 1.66 3.34 2.32 3 3 C2.34 3 1.68 3 1 3 C1 5.64 1 8.28 1 11 C0.67 11 0.34 11 0 11 C0 7.37 0 3.74 0 0 Z " fill="#DADBDB" transform="translate(45,96)"/>
<path d="M0 0 C0.99 0.66 1.98 1.32 3 2 C0.34771188 3.07525194 -2.28368454 4.09456151 -5 5 C-5.66 4.34 -6.32 3.68 -7 3 C-3.6875 1.375 -3.6875 1.375 0 0 Z " fill="#C3CCD2" transform="translate(61,89)"/>
<path d="M0 0 C0.33 0 0.66 0 1 0 C1 2.64 1 5.28 1 8 C1.66 8 2.32 8 3 8 C2.67 9.32 2.34 10.64 2 12 C0 10 0 10 -0.1953125 7.6171875 C-0.17210937 6.71226563 -0.14890625 5.80734375 -0.125 4.875 C-0.10695312 3.96492188 -0.08890625 3.05484375 -0.0703125 2.1171875 C-0.04710937 1.41851562 -0.02390625 0.71984375 0 0 Z " fill="#3099D0" transform="translate(165,120)"/>
</svg>
