<?xml version="1.0" encoding="UTF-8"?>
<svg version="1.1" xmlns="http://www.w3.org/2000/svg" width="475" height="292">
<path d="M0 0 C22.2324146 -0.71990676 43.33437131 6.12336984 59.92578125 21.12109375 C76.34324286 37.27322264 82.77241051 59.40737326 83.23828125 81.93359375 C82.75058947 97.42268454 79.59964536 114.39639744 70.61328125 127.39453125 C69.69560259 129.15748386 69.69560259 129.15748386 70.60546875 131.140625 C74.79054241 137.41823549 81.2358078 142.2587528 86.92578125 147.12109375 C85.43924619 150.5873921 83.46855774 152.81131411 80.79296875 155.44921875 C79.58447266 156.64804687 79.58447266 156.64804687 78.3515625 157.87109375 C77.08892578 159.10859375 77.08892578 159.10859375 75.80078125 160.37109375 C74.95128906 161.2115625 74.10179687 162.05203125 73.2265625 162.91796875 C71.13073202 164.99025058 69.03037412 167.05771768 66.92578125 169.12109375 C63.22377583 167.84145716 60.8848612 166.44432361 58.15625 163.64453125 C57.49560547 162.97421875 56.83496094 162.30390625 56.15429688 161.61328125 C55.48076172 160.91460937 54.80722656 160.2159375 54.11328125 159.49609375 C53.42041016 158.7896875 52.72753906 158.08328125 52.01367188 157.35546875 C50.31071246 155.61727569 48.61516933 153.87246314 46.92578125 152.12109375 C45.61867187 152.71857422 45.61867187 152.71857422 44.28515625 153.328125 C20.43170967 163.93826195 -6.18667117 165.74501953 -30.94921875 156.80859375 C-41.19431257 152.5513846 -49.16917262 146.8884213 -57.07421875 139.12109375 C-57.90566406 138.30898438 -57.90566406 138.30898438 -58.75390625 137.48046875 C-73.139374 122.08413029 -78.72528971 99.26419493 -78.32421875 78.734375 C-77.46288958 66.2854769 -75.40105853 54.49214143 -70.07421875 43.12109375 C-69.65527344 42.19167969 -69.23632812 41.26226562 -68.8046875 40.3046875 C-64.87153169 32.3363632 -59.2809639 26.35470793 -53.07421875 20.12109375 C-52.43871094 19.45078125 -51.80320312 18.78046875 -51.1484375 18.08984375 C-37.75018571 5.01837859 -17.95646198 1.04830569 0 0 Z M-34.82421875 42.68359375 C-44.86264066 55.18335949 -49.6745546 71.20764176 -48.07421875 87.12109375 C-45.6097907 102.68241905 -39.23749508 116.65677877 -26.25 126.1953125 C-13.82818447 133.94067983 0.14277954 136.21614458 14.484375 133.4296875 C28.55412162 129.46894611 39.37525909 121.61288764 46.609375 108.83984375 C54.5946682 92.34796224 54.72453213 75.2488857 48.92578125 58.12109375 C44.16871454 45.45540364 36.15964017 37.08016227 23.98046875 31.27734375 C4.1737047 23.78015429 -19.80631676 27.09834879 -34.82421875 42.68359375 Z " fill="#2C4C9A" transform="translate(85.07421875,29.87890625)"/>
<path d="M0 0 C13.24125 -0.061875 26.4825 -0.12375 40.125 -0.1875 C44.27852051 -0.21481201 48.43204102 -0.24212402 52.71142578 -0.27026367 C57.85327148 -0.28381348 57.85327148 -0.28381348 60.27389526 -0.28633118 C61.93497136 -0.29088451 63.59603866 -0.30132222 65.25704956 -0.31672668 C84.89198113 -0.48943846 102.52741543 1.88763448 117.1640625 16.1015625 C127.46507668 27.01986592 131.73951352 40.36157362 131.34375 55.28515625 C130.11667624 68.54591931 126.16139002 80.3936031 116.3125 89.8125 C109.40847214 95.38676374 101.82714282 99.05226681 93 100 C99.21230488 107.90507579 105.87954603 115.24408999 112.76953125 122.5546875 C115.71032579 125.67775922 118.56399177 128.86272092 121.36328125 132.11328125 C123.37873772 134.43658787 125.43848462 136.71748465 127.5 139 C128.25152344 139.83660156 129.00304687 140.67320312 129.77734375 141.53515625 C131.21921805 143.13414163 132.66929339 144.72578421 134.12890625 146.30859375 C135.08603516 147.36240234 135.08603516 147.36240234 136.0625 148.4375 C136.91521484 149.36369141 136.91521484 149.36369141 137.78515625 150.30859375 C139 152 139 152 139 155 C133.91416971 155.27419459 128.83272701 155.47250483 123.74121094 155.60424805 C122.01421114 155.6592039 120.28771466 155.73400699 118.5625 155.82983398 C103.46887163 156.64653205 103.46887163 156.64653205 98.72485352 152.68920898 C96.18726181 149.91274662 94.08584966 147.12496099 92 144 C90.57691994 142.21755783 89.14130175 140.44497473 87.6875 138.6875 C86.59501953 137.33205078 86.59501953 137.33205078 85.48046875 135.94921875 C82.07296984 131.89778303 78.44872408 128.0684844 74.81958008 124.21630859 C70.59365522 119.70558095 66.65128912 115.0479431 62.8046875 110.20703125 C62.20914063 109.47871094 61.61359375 108.75039062 61 108 C60.60014893 107.47003418 60.20029785 106.94006836 59.78833008 106.39404297 C57.13031932 104.32206461 54.91606667 104.56371192 51.58203125 104.48828125 C50.4525708 104.45516846 49.32311035 104.42205566 48.15942383 104.38793945 C46.00769653 104.35059692 46.00769653 104.35059692 43.8125 104.3125 C36.9753125 104.1578125 36.9753125 104.1578125 30 104 C30 120.83 30 137.66 30 155 C20.1 155 10.2 155 0 155 C0 103.85 0 52.7 0 0 Z M30 28 C30 44.17 30 60.34 30 77 C41.3540625 77.061875 41.3540625 77.061875 52.9375 77.125 C56.49519165 77.15231201 56.49519165 77.15231201 60.12475586 77.18017578 C62.02978286 77.18602354 63.93481239 77.19111843 65.83984375 77.1953125 C66.8086145 77.20554443 67.77738525 77.21577637 68.7755127 77.22631836 C78.80453646 77.22886154 87.35625407 75.9326998 95 69 C99.75052579 62.98266734 101.51424454 56.56026904 100.8125 48.97265625 C99.72371116 43.24517328 96.95834145 38.24975309 93 34 C86.75668966 29.79450615 80.5322641 27.86666949 73.02612305 27.88647461 C72.05219604 27.88659546 71.07826904 27.88671631 70.0748291 27.88684082 C69.06400269 27.89195679 68.05317627 27.89707275 67.01171875 27.90234375 C65.60388123 27.90385437 65.60388123 27.90385437 64.16760254 27.90539551 C60.67422253 27.91061266 57.18085999 27.92457392 53.6875 27.9375 C45.870625 27.958125 38.05375 27.97875 30 28 Z " fill="#2C4C9A" transform="translate(188,34)"/>
<path d="M0 0 C5.05705232 4.41703322 9.26636701 8.81961237 12 15 C11.8605957 17.03979492 11.8605957 17.03979492 11 19 C9.11401367 20.38793945 9.11401367 20.38793945 6.66796875 21.61328125 C5.34635742 22.2774707 5.34635742 22.2774707 3.99804688 22.95507812 C3.07056641 23.40302734 2.14308594 23.85097656 1.1875 24.3125 C-0.18631836 25.01342773 -0.18631836 25.01342773 -1.58789062 25.72851562 C-8.38086426 29.0780008 -8.38086426 29.0780008 -11.17236328 28.72631836 C-13.69241384 27.72482886 -15.14489538 26.1568517 -17.0625 24.25 C-26.52562098 15.5935713 -38.43610634 12.46367238 -51.0703125 12.75 C-59.70293636 13.48665057 -68.29085616 15.22220261 -75 21 C-78.18354238 24.79971188 -79.14006837 29.0882692 -79 34 C-77.33235854 39.88579339 -75.16179484 41.93654637 -70 45 C-61.43767968 48.52278322 -52.22076055 49.66594645 -43.125 51 C-23.56164158 53.88309437 -3.63165416 57.14382542 10 73 C18.05519865 85.4350939 18.85664499 100.40489417 16.34765625 114.72265625 C14.29455257 121.55164919 10.85557345 126.82405882 6 132 C5.42636719 132.61488281 4.85273438 133.22976562 4.26171875 133.86328125 C-11.22598467 148.82035672 -32.55373881 150.6221257 -52.9453125 150.47070312 C-72.21329343 150.01333186 -89.60459785 146.0483883 -103.8828125 132.26171875 C-106.91136701 129.0264179 -109.56911728 125.7031204 -112 122 C-112.42410156 121.37996094 -112.84820312 120.75992188 -113.28515625 120.12109375 C-114.95647663 117.49797057 -116.02541284 115.62851184 -115.89794922 112.47607422 C-114.69229011 109.1514971 -113.33501334 108.61338328 -110.1953125 107.0703125 C-109.21949219 106.585625 -108.24367188 106.1009375 -107.23828125 105.6015625 C-106.21089844 105.11429687 -105.18351562 104.62703125 -104.125 104.125 C-102.59552734 103.35929687 -102.59552734 103.35929687 -101.03515625 102.578125 C-93.41285865 98.86238045 -93.41285865 98.86238045 -90 100 C-88.640625 101.85546875 -88.640625 101.85546875 -87.25 104.1875 C-82.62093014 111.37053944 -76.90314001 115.8189508 -69 119 C-68.26910156 119.30035156 -67.53820312 119.60070312 -66.78515625 119.91015625 C-54.57013784 124.05901716 -38.78179921 123.76813945 -26.6796875 119.3359375 C-21.53328703 116.7702393 -17.63069215 113.51398373 -14.5 108.6875 C-13.31559453 102.32132058 -12.84791762 96.06992987 -16.63671875 90.5234375 C-25.50390963 80.61454225 -41.54579762 79.84456575 -53.875 78.0625 C-71.79949866 75.44252894 -90.303079 72.17017459 -102.3828125 57.30859375 C-109.23387831 47.52844907 -110.82747182 35.95473229 -109.59375 24.234375 C-107.53802612 13.03608966 -102.15179917 4.722939 -93.19140625 -2.15625 C-67.15844188 -19.57656074 -24.80738395 -19.67960067 0 0 Z " fill="#2C4C9A" transform="translate(452,43)"/>
<path d="M0 0 C152.46 0 304.92 0 462 0 C462 0.99 462 1.98 462 3 C309.54 3 157.08 3 0 3 C0 2.01 0 1.02 0 0 Z " fill="#EC6E24" transform="translate(7,207)"/>
<path d="M0 0 C3.94606772 3.26959897 7.26041205 6.61104868 8.1875 11.8125 C8.60954975 17.21081081 8.26751787 21.74245645 6.1875 26.8125 C7.1775 27.8025 8.1675 28.7925 9.1875 29.8125 C8.13875002 32.43437494 7.53818687 33.60621361 5.0625 35.0625 C4.44375 35.31 3.825 35.5575 3.1875 35.8125 C2.2903125 35.0390625 2.2903125 35.0390625 1.375 34.25 C0.653125 33.775625 -0.06875 33.30125 -0.8125 32.8125 C-2.2975 33.3075 -2.2975 33.3075 -3.8125 33.8125 C-11.2292001 34.47393086 -16.86053266 34.52447415 -22.8125 29.8125 C-27.30325184 24.13997136 -28.28994936 19.97424047 -27.8125 12.8125 C-26.42461374 6.62582059 -24.06925666 3.31700444 -18.8125 -0.1875 C-12.81868443 -3.18440779 -6.0741932 -2.56465935 0 0 Z M-17.8125 7.8125 C-20.34484649 12.01816378 -20.53040049 16.01795028 -19.8125 20.8125 C-18.01856332 23.68279869 -16.82986724 25.30381638 -13.8125 26.8125 C-8.07999088 27.31630686 -8.07999088 27.31630686 -2.9375 25.125 C-0.57295602 22.55181978 0.50075834 21.24620832 1.1875 17.8125 C0.7901417 13.92798002 0.28375498 10.25235729 -2.12109375 7.09375 C-6.83628711 3.52196381 -13.48732738 4.01159073 -17.8125 7.8125 Z " fill="#2C4C9A" transform="translate(34.8125,227.1875)"/>
<path d="M0 0 C3.17625 -0.061875 6.3525 -0.12375 9.625 -0.1875 C11.1092749 -0.22846802 11.1092749 -0.22846802 12.62353516 -0.27026367 C17.82654348 -0.31917006 21.5651546 -0.03616339 26 3 C28.80295101 5.85639711 29.45107698 7.96862006 29.5 11.9375 C29.39438343 15.90985667 29.13919216 16.81685242 26.625 20.125 C24 22 24 22 22 22 C22.6496875 22.77085937 23.299375 23.54171875 23.96875 24.3359375 C24.8040625 25.33882812 25.639375 26.34171875 26.5 27.375 C27.3353125 28.37273437 28.170625 29.37046875 29.03125 30.3984375 C31 33 31 33 31 35 C25.44615304 35.96971931 25.44615304 35.96971931 22 35 C19.34177105 32.35461273 17.26825031 29.58896295 15.140625 26.50390625 C12.9861372 23.46171979 12.9861372 23.46171979 8 23 C8 26.96 8 30.92 8 35 C5.36 35 2.72 35 0 35 C0 23.45 0 11.9 0 0 Z M8 7 C8 10.3 8 13.6 8 17 C9.5675 17.061875 11.135 17.12375 12.75 17.1875 C13.63171875 17.22230469 14.5134375 17.25710937 15.421875 17.29296875 C18.44671583 16.94923684 19.75583602 15.99772541 22 14 C21.42547254 10.06924356 21.42547254 10.06924356 19 7 C16.33050591 6.75684344 16.33050591 6.75684344 13.375 6.875 C12.37210938 6.89304688 11.36921875 6.91109375 10.3359375 6.9296875 C9.17964844 6.96449219 9.17964844 6.96449219 8 7 Z " fill="#2C4C9A" transform="translate(56,226)"/>
<path d="M0 0 C6 0 6 0 7.85864258 1.43701172 C8.61890747 2.42338623 8.61890747 2.42338623 9.39453125 3.4296875 C9.95720703 4.14253906 10.51988281 4.85539063 11.09960938 5.58984375 C11.66486328 6.34394531 12.23011719 7.09804687 12.8125 7.875 C13.39708984 8.62136719 13.98167969 9.36773437 14.58398438 10.13671875 C18.74312601 15.48625203 18.74312601 15.48625203 20 18 C20.33 12.06 20.66 6.12 21 0 C23.64 0 26.28 0 29 0 C29 11.55 29 23.1 29 35 C27.02 35 25.04 35 23 35 C20.98211536 32.98211536 19.52691813 31.25191588 17.9375 28.9375 C17.52951172 28.37611328 17.12152344 27.81472656 16.70117188 27.23632812 C15.92232448 26.15972233 15.15094151 25.07763832 14.39038086 23.98803711 C12.28355643 20.97559262 10.13667547 17.99134566 8 15 C7.67 21.6 7.34 28.2 7 35 C4.69 35 2.38 35 0 35 C0 23.45 0 11.9 0 0 Z " fill="#2C4C9A" transform="translate(398,226)"/>
<path d="M0 0 C5.42325601 2.43111476 8.60054439 6.38473968 10.75 11.9375 C11.50610313 18.17535085 11.12666058 23.49661588 8 29 C4.82703853 32.42679839 1.67385155 34.86909623 -3.046875 35.23828125 C-13.0224466 35.43821359 -13.0224466 35.43821359 -17.625 33.375 C-22.19836042 28.80163958 -25.09280902 24.34541609 -25.3125 17.8125 C-25.24728678 12.80738568 -23.87296992 9.08312766 -21 5 C-14.54834039 -0.99082678 -8.5539163 -0.6917176 0 0 Z M-15 9 C-17.14259381 12.60511518 -18.21115834 16.05935427 -17.75390625 20.26171875 C-16.54320931 24.32996127 -15.37443888 25.75517458 -11.75 28.125 C-7.28150962 29.16764776 -5.16529088 28.88616946 -1 27 C1.59183414 24.80690958 2.75883677 23.23311767 3.4140625 19.8828125 C3.67288156 15.83706194 3.35840279 12.82673728 0.9375 9.5 C-4.30196529 5.0408806 -9.51038251 4.75802285 -15 9 Z " fill="#2C4C9A" transform="translate(373,226)"/>
<path d="M0 0 C4.50665768 2.13473258 7.1741532 4.91822129 10 9 C11.87894454 14.63683363 11.74720942 20.75837174 9.875 26.375 C7.2157355 30.0979703 4.13912885 32.93043557 0 35 C-13.64732453 35.98019458 -13.64732453 35.98019458 -19 32 C-23.1392198 28.32069351 -24.07465245 24.15386499 -24.875 18.8515625 C-25.136936 12.87614749 -23.33700331 8.6112604 -19.5625 4.0625 C-13.45988458 -0.84936119 -7.65869147 -0.77254547 0 0 Z M-15.8125 10.625 C-17.69365283 14.38730565 -17.74672637 17.88944913 -17 22 C-15.66234609 24.86555194 -14.52250674 25.85318575 -12 28 C-7.94108767 29.2545729 -5.78315844 29.25603257 -1.75 27.9375 C1.65159562 25.54092127 2.72915507 23.96204597 4 20 C4.29155364 15.49417104 3.53320364 12.73707561 0.875 9.0625 C-5.59271514 4.4226174 -10.23044624 5.62040008 -15.8125 10.625 Z " fill="#2C4C9A" transform="translate(182,226)"/>
<path d="M0 0 C2.5 1.625 2.5 1.625 4.5 3.625 C4.125 5.75 4.125 5.75 3.5 7.625 C1.1875 8.25 1.1875 8.25 -1.5 8.625 C-2.49 7.965 -3.48 7.305 -4.5 6.625 C-7.01584891 6.38349227 -7.01584891 6.38349227 -9.6875 6.5 C-11.03908203 6.52707031 -11.03908203 6.52707031 -12.41796875 6.5546875 C-13.44857422 6.58949219 -13.44857422 6.58949219 -14.5 6.625 C-14.17 7.945 -13.84 9.265 -13.5 10.625 C-12.46359375 10.86734375 -11.4271875 11.1096875 -10.359375 11.359375 C-8.98940071 11.69717688 -7.61961885 12.03575984 -6.25 12.375 C-5.56808594 12.53226563 -4.88617188 12.68953125 -4.18359375 12.8515625 C0.09680999 13.93205277 2.89784198 14.98722242 5.5 18.625 C6.30433632 22.03649544 6.11877859 25.18548299 5.5 28.625 C2.94660172 32.71043725 0.27286092 33.92826229 -4.25 35.0625 C-9.3202953 35.84835799 -13.73810368 35.61769925 -18.5 33.625 C-21.625 31.25 -21.625 31.25 -23.5 28.625 C-23.3125 26.3125 -23.3125 26.3125 -22.5 24.625 C-20.1875 23.9375 -20.1875 23.9375 -17.5 23.625 C-17.04238281 24.09679687 -16.58476562 24.56859375 -16.11328125 25.0546875 C-14.07296912 27.04065717 -12.80148726 27.16202042 -10 27.4375 C-9.2265625 27.52644531 -8.453125 27.61539063 -7.65625 27.70703125 C-5.19874356 27.80164483 -5.19874356 27.80164483 -2.5 25.625 C-2.83 24.305 -3.16 22.985 -3.5 21.625 C-4.53640625 21.39425781 -5.5728125 21.16351563 -6.640625 20.92578125 C-8.0106556 20.59734926 -9.3804346 20.26786651 -10.75 19.9375 C-11.43191406 19.78861328 -12.11382812 19.63972656 -12.81640625 19.48632812 C-16.33401303 18.61546431 -18.35837767 17.76504373 -20.953125 15.19921875 C-23.03873773 11.72846423 -23.06937234 9.61060636 -22.5 5.625 C-20.75347373 2.71412289 -19.25388353 1.09063394 -16.375 -0.6875 C-10.70571232 -2.04319923 -5.44970963 -2.14095735 0 0 Z " fill="#2C4C9A" transform="translate(463.5,226.375)"/>
<path d="M0 0 C2.5 1.625 2.5 1.625 4.5 3.625 C4.125 5.75 4.125 5.75 3.5 7.625 C1.1875 8.25 1.1875 8.25 -1.5 8.625 C-2.49 7.965 -3.48 7.305 -4.5 6.625 C-7.01584891 6.38349227 -7.01584891 6.38349227 -9.6875 6.5 C-11.03908203 6.52707031 -11.03908203 6.52707031 -12.41796875 6.5546875 C-13.44857422 6.58949219 -13.44857422 6.58949219 -14.5 6.625 C-14.17 7.945 -13.84 9.265 -13.5 10.625 C-12.46359375 10.86734375 -11.4271875 11.1096875 -10.359375 11.359375 C-8.98940071 11.69717688 -7.61961885 12.03575984 -6.25 12.375 C-5.56808594 12.53226563 -4.88617188 12.68953125 -4.18359375 12.8515625 C0.09680999 13.93205277 2.89784198 14.98722242 5.5 18.625 C6.30433632 22.03649544 6.11877859 25.18548299 5.5 28.625 C2.94660172 32.71043725 0.27286092 33.92826229 -4.25 35.0625 C-9.3202953 35.84835799 -13.73810368 35.61769925 -18.5 33.625 C-21.625 31.25 -21.625 31.25 -23.5 28.625 C-23.3125 26.3125 -23.3125 26.3125 -22.5 24.625 C-20.375 23.875 -20.375 23.875 -17.5 23.625 C-15.4934562 24.94846506 -13.49371825 26.28229179 -11.5 27.625 C-7.33571287 28.11491613 -6.03430656 27.98120437 -2.5 25.625 C-2.83 24.305 -3.16 22.985 -3.5 21.625 C-4.53640625 21.39425781 -5.5728125 21.16351563 -6.640625 20.92578125 C-8.0106556 20.59734926 -9.3804346 20.26786651 -10.75 19.9375 C-11.43191406 19.78861328 -12.11382812 19.63972656 -12.81640625 19.48632812 C-16.33401303 18.61546431 -18.35837767 17.76504373 -20.953125 15.19921875 C-23.03873773 11.72846423 -23.06937234 9.61060636 -22.5 5.625 C-20.75347373 2.71412289 -19.25388353 1.09063394 -16.375 -0.6875 C-10.70571232 -2.04319923 -5.44970963 -2.14095735 0 0 Z " fill="#2C4C9A" transform="translate(139.5,226.375)"/>
<path d="M0 0 C2.31 0 4.62 0 7 0 C7.02187378 0.90709717 7.02187378 0.90709717 7.04418945 1.83251953 C7.11909188 4.59729265 7.21561073 7.36091357 7.3125 10.125 C7.33505859 11.07632813 7.35761719 12.02765625 7.38085938 13.0078125 C7.58378796 18.32085191 7.88824152 22.48054125 11 27 C14.24587532 28.10497883 16.07050402 28.32657967 19.3125 27.1875 C21.15097822 26.09312675 21.15097822 26.09312675 22 24 C22.15306901 22.18828902 22.24946661 20.3716206 22.31640625 18.5546875 C22.35830078 17.47832031 22.40019531 16.40195313 22.44335938 15.29296875 C22.48267578 14.16503906 22.52199219 13.03710938 22.5625 11.875 C22.60568359 10.73933594 22.64886719 9.60367188 22.69335938 8.43359375 C22.7996604 5.62252232 22.90169405 2.81136055 23 0 C25.64 0 28.28 0 31 0 C31.08796382 3.66651247 31.14071247 7.33274918 31.1875 11 C31.21263672 12.02996094 31.23777344 13.05992187 31.26367188 14.12109375 C31.33468368 21.55366244 31.0075125 27.9153718 25.5625 33.5 C19.81842702 35.91855704 13.78113911 36.12107458 7.7734375 34.33984375 C3.98757466 32.47913244 2.12162173 30.10422304 0.57788086 26.25366211 C-0.65320606 21.45257917 -0.30136806 16.48218427 -0.1875 11.5625 C-0.17396484 10.44939453 -0.16042969 9.33628906 -0.14648438 8.18945312 C-0.11132997 5.45912788 -0.06212106 2.72982256 0 0 Z " fill="#2C4C9A" transform="translate(242,226)"/>
<path d="M0 0 C9.24 0 18.48 0 28 0 C28 2.31 28 4.62 28 7 C24.7 7 21.4 7 18 7 C18 16.24 18 25.48 18 35 C15.36 35 12.72 35 10 35 C10 25.76 10 16.52 10 7 C6.7 7 3.4 7 0 7 C0 4.69 0 2.38 0 0 Z " fill="#2C4C9A" transform="translate(286,226)"/>
<path d="M0 0 C2.64 0 5.28 0 8 0 C8 9.24 8 18.48 8 28 C13.61 28 19.22 28 25 28 C25 30.31 25 32.62 25 35 C16.75 35 8.5 35 0 35 C0 23.45 0 11.9 0 0 Z " fill="#2C4C9A" transform="translate(206,226)"/>
<path d="M0 0 C2.31 0 4.62 0 7 0 C7 11.55 7 23.1 7 35 C4.69 35 2.38 35 0 35 C0 23.45 0 11.9 0 0 Z " fill="#2C4C9A" transform="translate(327,226)"/>
</svg>
